M48
INCH,TZ
T1C0.031
T2C0.040
T3C0.051
T4C0.059
%
G90
G05
T1
X007500Y-033400
X007500Y-036600
X008000Y-038000
X009000Y-037000
X009000Y-038000
X009000Y-039000
X009500Y-034500
X009500Y-035500
X010000Y-037000
X010000Y-038000
X010000Y-039000
X012000Y-031000
X013000Y-030000
X013000Y-031000
X014000Y-031000
X021400Y-039150
X024600Y-039150
X027330Y-039150
X028000Y-028000
X028000Y-029000
X028000Y-030000
X028000Y-031000
X028670Y-039150
X029000Y-029000
X029000Y-030000
X029000Y-031000
X030000Y-030000
X030000Y-031000
X031000Y-038000
X031500Y-034500
X031500Y-035500
X032000Y-038000
X033000Y-038000
X033500Y-033400
X033500Y-036600
T2
X017000Y-039150
X018000Y-039150
X019000Y-039150
T3
X011720Y-039150
X014280Y-039150
X015382Y-031250
X017311Y-031250
X025146Y-031250
X026012Y-031250
T4
X009500Y-032500
X014250Y-029500
X018500Y-026500
X022500Y-026500
X026750Y-029500
X031500Y-032500
T0
M30
