G04 #@! TF.FileFunction,Copper,L2,Bot,Signal*
%FSLAX46Y46*%
G04 Gerber Fmt 4.6, Leading zero omitted, Abs format (unit mm)*
G04 Created by KiCad (PCBNEW 4.0.7-e2-6376~58~ubuntu16.04.1) date Tue Oct 17 16:23:07 2017*
%MOMM*%
%LPD*%
G01*
G04 APERTURE LIST*
%ADD10C,0.101600*%
%ADD11C,1.600000*%
%ADD12C,3.000000*%
%ADD13C,2.286000*%
%ADD14C,1.400000*%
%ADD15C,1.520000*%
%ADD16R,1.727200X1.727200*%
%ADD17C,1.727200*%
%ADD18C,2.500000*%
%ADD19C,1.800000*%
%ADD20C,0.254000*%
G04 APERTURE END LIST*
D10*
D11*
X19050000Y-84836000D03*
X19050000Y-92964000D03*
X85090000Y-84836000D03*
X85090000Y-92964000D03*
D12*
X67945000Y-74930000D03*
X46990000Y-67310000D03*
X24130000Y-82550000D03*
X57150000Y-67310000D03*
X36195000Y-74930000D03*
X80010000Y-82550000D03*
D11*
X62484000Y-99441000D03*
X54356000Y-99441000D03*
D13*
X29768800Y-99441000D03*
X36271200Y-99441000D03*
D14*
X25400000Y-99060000D03*
X25400000Y-96520000D03*
X25400000Y-93980000D03*
X22860000Y-93980000D03*
X22860000Y-96520000D03*
X22860000Y-99060000D03*
X20320000Y-96520000D03*
X30480000Y-78740000D03*
X33020000Y-78740000D03*
X35560000Y-78740000D03*
X33020000Y-76200000D03*
X73660000Y-78740000D03*
X71120000Y-78740000D03*
X76200000Y-78740000D03*
X73660000Y-76200000D03*
X71120000Y-76200000D03*
X71120000Y-73660000D03*
X73660000Y-73660000D03*
X76200000Y-76200000D03*
X71120000Y-71120000D03*
D15*
X81280000Y-96520000D03*
X83820000Y-96520000D03*
X78740000Y-96520000D03*
D11*
X69418200Y-99441000D03*
X72821800Y-99441000D03*
D16*
X43180000Y-99441000D03*
D17*
X45720000Y-99441000D03*
X48260000Y-99441000D03*
D18*
X43970000Y-79375000D03*
X63870000Y-79375000D03*
X66070000Y-79375000D03*
X39070000Y-79375000D03*
D19*
X24130000Y-87630000D03*
X24130000Y-90170000D03*
X80010000Y-90170000D03*
X80010000Y-87630000D03*
D20*
G36*
X61495416Y-63185159D02*
X65440004Y-64224834D01*
X69107527Y-66010883D01*
X72358285Y-68475271D01*
X75068473Y-71524144D01*
X77145546Y-75059571D01*
X77317161Y-75468963D01*
X77239556Y-75352159D01*
X77055078Y-75166388D01*
X76838030Y-75019988D01*
X76596680Y-74918533D01*
X76340221Y-74865890D01*
X76078420Y-74864062D01*
X75821251Y-74913120D01*
X75578507Y-75011194D01*
X75359437Y-75154550D01*
X75172383Y-75337727D01*
X75024471Y-75553747D01*
X74929233Y-75775952D01*
X74844438Y-75570223D01*
X74699556Y-75352159D01*
X74515078Y-75166388D01*
X74298030Y-75019988D01*
X74080895Y-74928712D01*
X74264834Y-74857367D01*
X74485885Y-74717084D01*
X74675478Y-74536537D01*
X74826392Y-74322603D01*
X74932878Y-74083430D01*
X74990881Y-73828129D01*
X74995057Y-73529097D01*
X74944205Y-73272276D01*
X74844438Y-73030223D01*
X74699556Y-72812159D01*
X74515078Y-72626388D01*
X74298030Y-72479988D01*
X74056680Y-72378533D01*
X73800221Y-72325890D01*
X73538420Y-72324062D01*
X73281251Y-72373120D01*
X73038507Y-72471194D01*
X72819437Y-72614550D01*
X72632383Y-72797727D01*
X72484471Y-73013747D01*
X72389233Y-73235952D01*
X72304438Y-73030223D01*
X72159556Y-72812159D01*
X71975078Y-72626388D01*
X71758030Y-72479988D01*
X71540895Y-72388712D01*
X71724834Y-72317367D01*
X71945885Y-72177084D01*
X72135478Y-71996537D01*
X72286392Y-71782603D01*
X72392878Y-71543430D01*
X72450881Y-71288129D01*
X72455057Y-70989097D01*
X72404205Y-70732276D01*
X72304438Y-70490223D01*
X72159556Y-70272159D01*
X71975078Y-70086388D01*
X71758030Y-69939988D01*
X71516680Y-69838533D01*
X71260221Y-69785890D01*
X70998420Y-69784062D01*
X70741251Y-69833120D01*
X70498507Y-69931194D01*
X70279437Y-70074550D01*
X70092383Y-70257727D01*
X69944471Y-70473747D01*
X69841334Y-70714383D01*
X69786901Y-70970469D01*
X69783246Y-71232250D01*
X69830507Y-71489756D01*
X69926884Y-71733178D01*
X70068707Y-71953244D01*
X70250574Y-72141572D01*
X70465556Y-72290989D01*
X70695685Y-72391530D01*
X70498507Y-72471194D01*
X70279437Y-72614550D01*
X70092383Y-72797727D01*
X69944471Y-73013747D01*
X69841334Y-73254383D01*
X69786901Y-73510469D01*
X69783246Y-73772250D01*
X69800069Y-73863911D01*
X69607512Y-73574089D01*
X69312485Y-73276995D01*
X68965371Y-73042864D01*
X68579391Y-72880613D01*
X68169248Y-72796422D01*
X67750563Y-72793499D01*
X67339284Y-72871955D01*
X66951077Y-73028801D01*
X66600728Y-73258063D01*
X66301582Y-73551008D01*
X66065033Y-73896479D01*
X65900091Y-74281317D01*
X65813040Y-74690862D01*
X65807194Y-75109517D01*
X65882776Y-75521333D01*
X66036908Y-75910626D01*
X66263719Y-76262567D01*
X66554569Y-76563751D01*
X66898380Y-76802706D01*
X67282057Y-76970330D01*
X67690984Y-77060239D01*
X68109588Y-77069007D01*
X68521922Y-76996302D01*
X68912281Y-76844891D01*
X69265797Y-76620543D01*
X69569004Y-76331803D01*
X69795284Y-76011031D01*
X69786901Y-76050469D01*
X69783246Y-76312250D01*
X69830507Y-76569756D01*
X69926884Y-76813178D01*
X70068707Y-77033244D01*
X70250574Y-77221572D01*
X70465556Y-77370989D01*
X70695685Y-77471530D01*
X70498507Y-77551194D01*
X70279437Y-77694550D01*
X70092383Y-77877727D01*
X69944471Y-78093747D01*
X69841334Y-78334383D01*
X69786901Y-78590469D01*
X69783246Y-78852250D01*
X69830507Y-79109756D01*
X69926884Y-79353178D01*
X70068707Y-79573244D01*
X70250574Y-79761572D01*
X70465556Y-79910989D01*
X70705466Y-80015803D01*
X70961166Y-80072023D01*
X71222915Y-80077505D01*
X71480745Y-80032043D01*
X71724834Y-79937367D01*
X71945885Y-79797084D01*
X72135478Y-79616537D01*
X72286392Y-79402603D01*
X72392285Y-79164762D01*
X72466884Y-79353178D01*
X72608707Y-79573244D01*
X72790574Y-79761572D01*
X73005556Y-79910989D01*
X73245466Y-80015803D01*
X73501166Y-80072023D01*
X73762915Y-80077505D01*
X74020745Y-80032043D01*
X74264834Y-79937367D01*
X74485885Y-79797084D01*
X74675478Y-79616537D01*
X74826392Y-79402603D01*
X74932285Y-79164762D01*
X75006884Y-79353178D01*
X75148707Y-79573244D01*
X75330574Y-79761572D01*
X75545556Y-79910989D01*
X75785466Y-80015803D01*
X76041166Y-80072023D01*
X76302915Y-80077505D01*
X76560745Y-80032043D01*
X76804834Y-79937367D01*
X77025885Y-79797084D01*
X77215478Y-79616537D01*
X77366392Y-79402603D01*
X77472878Y-79163430D01*
X77530881Y-78908129D01*
X77535057Y-78609097D01*
X77484205Y-78352276D01*
X77384438Y-78110223D01*
X77239556Y-77892159D01*
X77055078Y-77706388D01*
X76838030Y-77559988D01*
X76620895Y-77468712D01*
X76804834Y-77397367D01*
X77025885Y-77257084D01*
X77215478Y-77076537D01*
X77366392Y-76862603D01*
X77472878Y-76623430D01*
X77530881Y-76368129D01*
X77535057Y-76069097D01*
X77504910Y-75916846D01*
X77736895Y-76470252D01*
X77755435Y-76504622D01*
X77771124Y-76540404D01*
X77787103Y-76563329D01*
X77800364Y-76587914D01*
X77825230Y-76618033D01*
X77847567Y-76650081D01*
X77867690Y-76669463D01*
X77885477Y-76691007D01*
X77915718Y-76715721D01*
X77943857Y-76742823D01*
X77967368Y-76757930D01*
X77988995Y-76775605D01*
X78023460Y-76793974D01*
X78056327Y-76815094D01*
X78082320Y-76825346D01*
X78106972Y-76838485D01*
X78144349Y-76849810D01*
X78180691Y-76864144D01*
X78208179Y-76869151D01*
X78234917Y-76877253D01*
X78273791Y-76881103D01*
X78312216Y-76888103D01*
X78321753Y-76888825D01*
X80727539Y-77053862D01*
X82990615Y-77665519D01*
X85091782Y-78705092D01*
X86951019Y-80132990D01*
X88497492Y-81894814D01*
X89672311Y-83923469D01*
X90430721Y-86141681D01*
X90743834Y-88464948D01*
X90599725Y-90804790D01*
X90003882Y-93072082D01*
X88979003Y-95180455D01*
X87564121Y-97049613D01*
X85813135Y-98608350D01*
X83792731Y-99797302D01*
X81579869Y-100571180D01*
X79232863Y-100904191D01*
X78732608Y-100915000D01*
X48530993Y-100915000D01*
X48664953Y-100891379D01*
X48938954Y-100785101D01*
X49187094Y-100627627D01*
X49399922Y-100424954D01*
X49569330Y-100184803D01*
X49688866Y-99916320D01*
X49753977Y-99629733D01*
X49754927Y-99561659D01*
X52919114Y-99561659D01*
X52969915Y-99838453D01*
X53073512Y-100100109D01*
X53225959Y-100336660D01*
X53421448Y-100539095D01*
X53652534Y-100699704D01*
X53910415Y-100812369D01*
X54185268Y-100872800D01*
X54466624Y-100878693D01*
X54743767Y-100829826D01*
X55006140Y-100728058D01*
X55243749Y-100577267D01*
X55447544Y-100383195D01*
X55609762Y-100153236D01*
X55724225Y-99896148D01*
X55786573Y-99621723D01*
X55787411Y-99561659D01*
X61047114Y-99561659D01*
X61097915Y-99838453D01*
X61201512Y-100100109D01*
X61353959Y-100336660D01*
X61549448Y-100539095D01*
X61780534Y-100699704D01*
X62038415Y-100812369D01*
X62313268Y-100872800D01*
X62594624Y-100878693D01*
X62871767Y-100829826D01*
X63134140Y-100728058D01*
X63371749Y-100577267D01*
X63575544Y-100383195D01*
X63737762Y-100153236D01*
X63852225Y-99896148D01*
X63914573Y-99621723D01*
X63915411Y-99561659D01*
X67981314Y-99561659D01*
X68032115Y-99838453D01*
X68135712Y-100100109D01*
X68288159Y-100336660D01*
X68483648Y-100539095D01*
X68714734Y-100699704D01*
X68972615Y-100812369D01*
X69247468Y-100872800D01*
X69528824Y-100878693D01*
X69805967Y-100829826D01*
X70068340Y-100728058D01*
X70305949Y-100577267D01*
X70456706Y-100433702D01*
X72008703Y-100433702D01*
X72080286Y-100677671D01*
X72335796Y-100798571D01*
X72609984Y-100867300D01*
X72892312Y-100881217D01*
X73171930Y-100839787D01*
X73438092Y-100744603D01*
X73563314Y-100677671D01*
X73634897Y-100433702D01*
X72821800Y-99620605D01*
X72008703Y-100433702D01*
X70456706Y-100433702D01*
X70509744Y-100383195D01*
X70671962Y-100153236D01*
X70786425Y-99896148D01*
X70848773Y-99621723D01*
X70850311Y-99511512D01*
X71381583Y-99511512D01*
X71423013Y-99791130D01*
X71518197Y-100057292D01*
X71585129Y-100182514D01*
X71829098Y-100254097D01*
X72642195Y-99441000D01*
X73001405Y-99441000D01*
X73814502Y-100254097D01*
X74058471Y-100182514D01*
X74179371Y-99927004D01*
X74248100Y-99652816D01*
X74262017Y-99370488D01*
X74220587Y-99090870D01*
X74125403Y-98824708D01*
X74058471Y-98699486D01*
X73814502Y-98627903D01*
X73001405Y-99441000D01*
X72642195Y-99441000D01*
X71829098Y-98627903D01*
X71585129Y-98699486D01*
X71464229Y-98954996D01*
X71395500Y-99229184D01*
X71381583Y-99511512D01*
X70850311Y-99511512D01*
X70853261Y-99300291D01*
X70798600Y-99024233D01*
X70691360Y-98764049D01*
X70535626Y-98529650D01*
X70454840Y-98448298D01*
X72008703Y-98448298D01*
X72821800Y-99261395D01*
X73634897Y-98448298D01*
X73563314Y-98204329D01*
X73307804Y-98083429D01*
X73033616Y-98014700D01*
X72751288Y-98000783D01*
X72471670Y-98042213D01*
X72205508Y-98137397D01*
X72080286Y-98204329D01*
X72008703Y-98448298D01*
X70454840Y-98448298D01*
X70337329Y-98329964D01*
X70104023Y-98172597D01*
X69844594Y-98063543D01*
X69568924Y-98006956D01*
X69287513Y-98004991D01*
X69011080Y-98057724D01*
X68750154Y-98163145D01*
X68514673Y-98317239D01*
X68313608Y-98514137D01*
X68154616Y-98746339D01*
X68043753Y-99005000D01*
X67985243Y-99280268D01*
X67981314Y-99561659D01*
X63915411Y-99561659D01*
X63919061Y-99300291D01*
X63864400Y-99024233D01*
X63757160Y-98764049D01*
X63601426Y-98529650D01*
X63403129Y-98329964D01*
X63169823Y-98172597D01*
X62910394Y-98063543D01*
X62634724Y-98006956D01*
X62353313Y-98004991D01*
X62076880Y-98057724D01*
X61815954Y-98163145D01*
X61580473Y-98317239D01*
X61379408Y-98514137D01*
X61220416Y-98746339D01*
X61109553Y-99005000D01*
X61051043Y-99280268D01*
X61047114Y-99561659D01*
X55787411Y-99561659D01*
X55791061Y-99300291D01*
X55736400Y-99024233D01*
X55629160Y-98764049D01*
X55473426Y-98529650D01*
X55275129Y-98329964D01*
X55041823Y-98172597D01*
X54782394Y-98063543D01*
X54506724Y-98006956D01*
X54225313Y-98004991D01*
X53948880Y-98057724D01*
X53687954Y-98163145D01*
X53452473Y-98317239D01*
X53251408Y-98514137D01*
X53092416Y-98746339D01*
X52981553Y-99005000D01*
X52923043Y-99280268D01*
X52919114Y-99561659D01*
X49754927Y-99561659D01*
X49758664Y-99294055D01*
X49701581Y-99005761D01*
X49589588Y-98734046D01*
X49426951Y-98489258D01*
X49219866Y-98280722D01*
X48976219Y-98116380D01*
X48705292Y-98002493D01*
X48417404Y-97943398D01*
X48123521Y-97941346D01*
X47834836Y-97996416D01*
X47562345Y-98106509D01*
X47316428Y-98267433D01*
X47106451Y-98473058D01*
X46989586Y-98643736D01*
X46886951Y-98489258D01*
X46679866Y-98280722D01*
X46436219Y-98116380D01*
X46165292Y-98002493D01*
X45877404Y-97943398D01*
X45583521Y-97941346D01*
X45294836Y-97996416D01*
X45022345Y-98106509D01*
X44776428Y-98267433D01*
X44647908Y-98393289D01*
X44620494Y-98304766D01*
X44521700Y-98154841D01*
X44385050Y-98038375D01*
X44221363Y-97964590D01*
X44043600Y-97939328D01*
X42316400Y-97939328D01*
X42215279Y-97947392D01*
X42043766Y-98000506D01*
X41893841Y-98099300D01*
X41777375Y-98235950D01*
X41703590Y-98399637D01*
X41678328Y-98577400D01*
X41678328Y-100304600D01*
X41686392Y-100405721D01*
X41739506Y-100577234D01*
X41838300Y-100727159D01*
X41974950Y-100843625D01*
X42133291Y-100915000D01*
X37266926Y-100915000D01*
X37371143Y-100848862D01*
X37623650Y-100608403D01*
X37824642Y-100323478D01*
X37966465Y-100004940D01*
X38043715Y-99664921D01*
X38049276Y-99266658D01*
X37981550Y-98924615D01*
X37848677Y-98602241D01*
X37655718Y-98311815D01*
X37410024Y-98064399D01*
X37120952Y-97869417D01*
X36799513Y-97734297D01*
X36457951Y-97664184D01*
X36109276Y-97661750D01*
X35766768Y-97727087D01*
X35443474Y-97857706D01*
X35151708Y-98048632D01*
X34902583Y-98292594D01*
X34705588Y-98580297D01*
X34568227Y-98900785D01*
X34495731Y-99241849D01*
X34490863Y-99590499D01*
X34553807Y-99933455D01*
X34682166Y-100257653D01*
X34871051Y-100550744D01*
X35113267Y-100801567D01*
X35276476Y-100915000D01*
X30764526Y-100915000D01*
X30868743Y-100848862D01*
X31121250Y-100608403D01*
X31322242Y-100323478D01*
X31464065Y-100004940D01*
X31541315Y-99664921D01*
X31546876Y-99266658D01*
X31479150Y-98924615D01*
X31346277Y-98602241D01*
X31153318Y-98311815D01*
X30907624Y-98064399D01*
X30618552Y-97869417D01*
X30297113Y-97734297D01*
X29955551Y-97664184D01*
X29606876Y-97661750D01*
X29264368Y-97727087D01*
X28941074Y-97857706D01*
X28649308Y-98048632D01*
X28400183Y-98292594D01*
X28203188Y-98580297D01*
X28065827Y-98900785D01*
X27993331Y-99241849D01*
X27988463Y-99590499D01*
X28051407Y-99933455D01*
X28179766Y-100257653D01*
X28368651Y-100550744D01*
X28610867Y-100801567D01*
X28774076Y-100915000D01*
X25433504Y-100915000D01*
X23313590Y-100707140D01*
X21306650Y-100101209D01*
X19455626Y-99117003D01*
X17831020Y-97792007D01*
X16871586Y-96632250D01*
X18983246Y-96632250D01*
X19030507Y-96889756D01*
X19126884Y-97133178D01*
X19268707Y-97353244D01*
X19450574Y-97541572D01*
X19665556Y-97690989D01*
X19905466Y-97795803D01*
X20161166Y-97852023D01*
X20422915Y-97857505D01*
X20680745Y-97812043D01*
X20924834Y-97717367D01*
X21145885Y-97577084D01*
X21335478Y-97396537D01*
X21486392Y-97182603D01*
X21592285Y-96944762D01*
X21666884Y-97133178D01*
X21808707Y-97353244D01*
X21990574Y-97541572D01*
X22205556Y-97690989D01*
X22435685Y-97791530D01*
X22238507Y-97871194D01*
X22019437Y-98014550D01*
X21832383Y-98197727D01*
X21684471Y-98413747D01*
X21581334Y-98654383D01*
X21526901Y-98910469D01*
X21523246Y-99172250D01*
X21570507Y-99429756D01*
X21666884Y-99673178D01*
X21808707Y-99893244D01*
X21990574Y-100081572D01*
X22205556Y-100230989D01*
X22445466Y-100335803D01*
X22701166Y-100392023D01*
X22962915Y-100397505D01*
X23220745Y-100352043D01*
X23464834Y-100257367D01*
X23685885Y-100117084D01*
X23875478Y-99936537D01*
X24026392Y-99722603D01*
X24132285Y-99484762D01*
X24206884Y-99673178D01*
X24348707Y-99893244D01*
X24530574Y-100081572D01*
X24745556Y-100230989D01*
X24985466Y-100335803D01*
X25241166Y-100392023D01*
X25502915Y-100397505D01*
X25760745Y-100352043D01*
X26004834Y-100257367D01*
X26225885Y-100117084D01*
X26415478Y-99936537D01*
X26566392Y-99722603D01*
X26672878Y-99483430D01*
X26730881Y-99228129D01*
X26735057Y-98929097D01*
X26684205Y-98672276D01*
X26584438Y-98430223D01*
X26439556Y-98212159D01*
X26255078Y-98026388D01*
X26038030Y-97879988D01*
X25820895Y-97788712D01*
X26004834Y-97717367D01*
X26225885Y-97577084D01*
X26415478Y-97396537D01*
X26566392Y-97182603D01*
X26672878Y-96943430D01*
X26730881Y-96688129D01*
X26731590Y-96637295D01*
X77343166Y-96637295D01*
X77392551Y-96906375D01*
X77493261Y-97160737D01*
X77641458Y-97390694D01*
X77831498Y-97587486D01*
X78056143Y-97743619D01*
X78306835Y-97853143D01*
X78574027Y-97911889D01*
X78847541Y-97917619D01*
X79116958Y-97870113D01*
X79372018Y-97771182D01*
X79603003Y-97624594D01*
X79801118Y-97435932D01*
X79958815Y-97212383D01*
X80009043Y-97099569D01*
X80033261Y-97160737D01*
X80181458Y-97390694D01*
X80371498Y-97587486D01*
X80596143Y-97743619D01*
X80846835Y-97853143D01*
X81114027Y-97911889D01*
X81387541Y-97917619D01*
X81656958Y-97870113D01*
X81912018Y-97771182D01*
X82143003Y-97624594D01*
X82290497Y-97484137D01*
X83035469Y-97484137D01*
X83102206Y-97724025D01*
X83350892Y-97840924D01*
X83617606Y-97907061D01*
X83892097Y-97919895D01*
X84163817Y-97878931D01*
X84422326Y-97785744D01*
X84537794Y-97724025D01*
X84604531Y-97484137D01*
X83820000Y-96699605D01*
X83035469Y-97484137D01*
X82290497Y-97484137D01*
X82341118Y-97435932D01*
X82498815Y-97212383D01*
X82547390Y-97103280D01*
X82554256Y-97122326D01*
X82615975Y-97237794D01*
X82855863Y-97304531D01*
X83640395Y-96520000D01*
X83999605Y-96520000D01*
X84784137Y-97304531D01*
X85024025Y-97237794D01*
X85140924Y-96989108D01*
X85207061Y-96722394D01*
X85219895Y-96447903D01*
X85178931Y-96176183D01*
X85085744Y-95917674D01*
X85024025Y-95802206D01*
X84784137Y-95735469D01*
X83999605Y-96520000D01*
X83640395Y-96520000D01*
X82855863Y-95735469D01*
X82615975Y-95802206D01*
X82550485Y-95941527D01*
X82517672Y-95861918D01*
X82366278Y-95634053D01*
X82288633Y-95555863D01*
X83035469Y-95555863D01*
X83820000Y-96340395D01*
X84604531Y-95555863D01*
X84537794Y-95315975D01*
X84289108Y-95199076D01*
X84022394Y-95132939D01*
X83747903Y-95120105D01*
X83476183Y-95161069D01*
X83217674Y-95254256D01*
X83102206Y-95315975D01*
X83035469Y-95555863D01*
X82288633Y-95555863D01*
X82173509Y-95439933D01*
X81946706Y-95286953D01*
X81694509Y-95180939D01*
X81426523Y-95125929D01*
X81152956Y-95124019D01*
X80884228Y-95175282D01*
X80630575Y-95277764D01*
X80401658Y-95427563D01*
X80206197Y-95618972D01*
X80051637Y-95844702D01*
X80010314Y-95941115D01*
X79977672Y-95861918D01*
X79826278Y-95634053D01*
X79633509Y-95439933D01*
X79406706Y-95286953D01*
X79154509Y-95180939D01*
X78886523Y-95125929D01*
X78612956Y-95124019D01*
X78344228Y-95175282D01*
X78090575Y-95277764D01*
X77861658Y-95427563D01*
X77666197Y-95618972D01*
X77511637Y-95844702D01*
X77403865Y-96096153D01*
X77346986Y-96363748D01*
X77343166Y-96637295D01*
X26731590Y-96637295D01*
X26735057Y-96389097D01*
X26684205Y-96132276D01*
X26584438Y-95890223D01*
X26439556Y-95672159D01*
X26255078Y-95486388D01*
X26038030Y-95339988D01*
X25820895Y-95248712D01*
X26004834Y-95177367D01*
X26225885Y-95037084D01*
X26415478Y-94856537D01*
X26566392Y-94642603D01*
X26672878Y-94403430D01*
X26730881Y-94148129D01*
X26735057Y-93849097D01*
X26684205Y-93592276D01*
X26584438Y-93350223D01*
X26439556Y-93132159D01*
X26392387Y-93084659D01*
X83653114Y-93084659D01*
X83703915Y-93361453D01*
X83807512Y-93623109D01*
X83959959Y-93859660D01*
X84155448Y-94062095D01*
X84386534Y-94222704D01*
X84644415Y-94335369D01*
X84919268Y-94395800D01*
X85200624Y-94401693D01*
X85477767Y-94352826D01*
X85740140Y-94251058D01*
X85977749Y-94100267D01*
X86181544Y-93906195D01*
X86343762Y-93676236D01*
X86458225Y-93419148D01*
X86520573Y-93144723D01*
X86525061Y-92823291D01*
X86470400Y-92547233D01*
X86363160Y-92287049D01*
X86207426Y-92052650D01*
X86009129Y-91852964D01*
X85775823Y-91695597D01*
X85516394Y-91586543D01*
X85240724Y-91529956D01*
X84959313Y-91527991D01*
X84682880Y-91580724D01*
X84421954Y-91686145D01*
X84186473Y-91840239D01*
X83985408Y-92037137D01*
X83826416Y-92269339D01*
X83715553Y-92528000D01*
X83657043Y-92803268D01*
X83653114Y-93084659D01*
X26392387Y-93084659D01*
X26255078Y-92946388D01*
X26038030Y-92799988D01*
X25796680Y-92698533D01*
X25540221Y-92645890D01*
X25278420Y-92644062D01*
X25021251Y-92693120D01*
X24778507Y-92791194D01*
X24559437Y-92934550D01*
X24372383Y-93117727D01*
X24224471Y-93333747D01*
X24129233Y-93555952D01*
X24044438Y-93350223D01*
X23899556Y-93132159D01*
X23715078Y-92946388D01*
X23498030Y-92799988D01*
X23256680Y-92698533D01*
X23000221Y-92645890D01*
X22738420Y-92644062D01*
X22481251Y-92693120D01*
X22238507Y-92791194D01*
X22019437Y-92934550D01*
X21832383Y-93117727D01*
X21684471Y-93333747D01*
X21581334Y-93574383D01*
X21526901Y-93830469D01*
X21523246Y-94092250D01*
X21570507Y-94349756D01*
X21666884Y-94593178D01*
X21808707Y-94813244D01*
X21990574Y-95001572D01*
X22205556Y-95150989D01*
X22435685Y-95251530D01*
X22238507Y-95331194D01*
X22019437Y-95474550D01*
X21832383Y-95657727D01*
X21684471Y-95873747D01*
X21589233Y-96095952D01*
X21504438Y-95890223D01*
X21359556Y-95672159D01*
X21175078Y-95486388D01*
X20958030Y-95339988D01*
X20716680Y-95238533D01*
X20460221Y-95185890D01*
X20198420Y-95184062D01*
X19941251Y-95233120D01*
X19698507Y-95331194D01*
X19479437Y-95474550D01*
X19292383Y-95657727D01*
X19144471Y-95873747D01*
X19041334Y-96114383D01*
X18986901Y-96370469D01*
X18983246Y-96632250D01*
X16871586Y-96632250D01*
X16494713Y-96176689D01*
X15497609Y-94332583D01*
X15111313Y-93084659D01*
X17613114Y-93084659D01*
X17663915Y-93361453D01*
X17767512Y-93623109D01*
X17919959Y-93859660D01*
X18115448Y-94062095D01*
X18346534Y-94222704D01*
X18604415Y-94335369D01*
X18879268Y-94395800D01*
X19160624Y-94401693D01*
X19437767Y-94352826D01*
X19700140Y-94251058D01*
X19937749Y-94100267D01*
X20141544Y-93906195D01*
X20303762Y-93676236D01*
X20418225Y-93419148D01*
X20480573Y-93144723D01*
X20485061Y-92823291D01*
X20430400Y-92547233D01*
X20323160Y-92287049D01*
X20167426Y-92052650D01*
X19969129Y-91852964D01*
X19735823Y-91695597D01*
X19476394Y-91586543D01*
X19200724Y-91529956D01*
X18919313Y-91527991D01*
X18642880Y-91580724D01*
X18381954Y-91686145D01*
X18146473Y-91840239D01*
X17945408Y-92037137D01*
X17786416Y-92269339D01*
X17675553Y-92528000D01*
X17617043Y-92803268D01*
X17613114Y-93084659D01*
X15111313Y-93084659D01*
X14877681Y-92329918D01*
X14658547Y-90244989D01*
X14848551Y-88157203D01*
X14965728Y-87759067D01*
X22592983Y-87759067D01*
X22647324Y-88055150D01*
X22758140Y-88335040D01*
X22921210Y-88588075D01*
X23130322Y-88804617D01*
X23267441Y-88899917D01*
X23163509Y-88967928D01*
X22948432Y-89178547D01*
X22778361Y-89426930D01*
X22659773Y-89703617D01*
X22597186Y-89998067D01*
X22592983Y-90299067D01*
X22647324Y-90595150D01*
X22758140Y-90875040D01*
X22921210Y-91128075D01*
X23130322Y-91344617D01*
X23377512Y-91516419D01*
X23653364Y-91636935D01*
X23947371Y-91701577D01*
X24248334Y-91707881D01*
X24544789Y-91655608D01*
X24825446Y-91546748D01*
X25079613Y-91385449D01*
X25297610Y-91177854D01*
X25471132Y-90931869D01*
X25593572Y-90656866D01*
X25660265Y-90363317D01*
X25665066Y-90019486D01*
X25606595Y-89724190D01*
X25491882Y-89445874D01*
X25325295Y-89195141D01*
X25113180Y-88981540D01*
X24992953Y-88900445D01*
X25079613Y-88845449D01*
X25297610Y-88637854D01*
X25471132Y-88391869D01*
X25593572Y-88116866D01*
X25660265Y-87823317D01*
X25661162Y-87759067D01*
X78472983Y-87759067D01*
X78527324Y-88055150D01*
X78638140Y-88335040D01*
X78801210Y-88588075D01*
X79010322Y-88804617D01*
X79147441Y-88899917D01*
X79043509Y-88967928D01*
X78828432Y-89178547D01*
X78658361Y-89426930D01*
X78539773Y-89703617D01*
X78477186Y-89998067D01*
X78472983Y-90299067D01*
X78527324Y-90595150D01*
X78638140Y-90875040D01*
X78801210Y-91128075D01*
X79010322Y-91344617D01*
X79257512Y-91516419D01*
X79533364Y-91636935D01*
X79827371Y-91701577D01*
X80128334Y-91707881D01*
X80424789Y-91655608D01*
X80705446Y-91546748D01*
X80959613Y-91385449D01*
X81177610Y-91177854D01*
X81351132Y-90931869D01*
X81473572Y-90656866D01*
X81540265Y-90363317D01*
X81545066Y-90019486D01*
X81486595Y-89724190D01*
X81371882Y-89445874D01*
X81205295Y-89195141D01*
X80993180Y-88981540D01*
X80872953Y-88900445D01*
X80959613Y-88845449D01*
X81177610Y-88637854D01*
X81351132Y-88391869D01*
X81473572Y-88116866D01*
X81540265Y-87823317D01*
X81545066Y-87479486D01*
X81486595Y-87184190D01*
X81371882Y-86905874D01*
X81205295Y-86655141D01*
X80993180Y-86441540D01*
X80743616Y-86273206D01*
X80466108Y-86156553D01*
X80171228Y-86096023D01*
X79870206Y-86093921D01*
X79574509Y-86150328D01*
X79295400Y-86263096D01*
X79043509Y-86427928D01*
X78828432Y-86638547D01*
X78658361Y-86886930D01*
X78539773Y-87163617D01*
X78477186Y-87458067D01*
X78472983Y-87759067D01*
X25661162Y-87759067D01*
X25665066Y-87479486D01*
X25606595Y-87184190D01*
X25491882Y-86905874D01*
X25325295Y-86655141D01*
X25113180Y-86441540D01*
X24863616Y-86273206D01*
X24586108Y-86156553D01*
X24291228Y-86096023D01*
X23990206Y-86093921D01*
X23694509Y-86150328D01*
X23415400Y-86263096D01*
X23163509Y-86427928D01*
X22948432Y-86638547D01*
X22778361Y-86886930D01*
X22659773Y-87163617D01*
X22597186Y-87458067D01*
X22592983Y-87759067D01*
X14965728Y-87759067D01*
X15440455Y-86146086D01*
X16062271Y-84956659D01*
X17613114Y-84956659D01*
X17663915Y-85233453D01*
X17767512Y-85495109D01*
X17919959Y-85731660D01*
X18115448Y-85934095D01*
X18346534Y-86094704D01*
X18604415Y-86207369D01*
X18879268Y-86267800D01*
X19160624Y-86273693D01*
X19437767Y-86224826D01*
X19700140Y-86123058D01*
X19937749Y-85972267D01*
X20141544Y-85778195D01*
X20303762Y-85548236D01*
X20418225Y-85291148D01*
X20480573Y-85016723D01*
X20481411Y-84956659D01*
X83653114Y-84956659D01*
X83703915Y-85233453D01*
X83807512Y-85495109D01*
X83959959Y-85731660D01*
X84155448Y-85934095D01*
X84386534Y-86094704D01*
X84644415Y-86207369D01*
X84919268Y-86267800D01*
X85200624Y-86273693D01*
X85477767Y-86224826D01*
X85740140Y-86123058D01*
X85977749Y-85972267D01*
X86181544Y-85778195D01*
X86343762Y-85548236D01*
X86458225Y-85291148D01*
X86520573Y-85016723D01*
X86525061Y-84695291D01*
X86470400Y-84419233D01*
X86363160Y-84159049D01*
X86207426Y-83924650D01*
X86009129Y-83724964D01*
X85775823Y-83567597D01*
X85516394Y-83458543D01*
X85240724Y-83401956D01*
X84959313Y-83399991D01*
X84682880Y-83452724D01*
X84421954Y-83558145D01*
X84186473Y-83712239D01*
X83985408Y-83909137D01*
X83826416Y-84141339D01*
X83715553Y-84400000D01*
X83657043Y-84675268D01*
X83653114Y-84956659D01*
X20481411Y-84956659D01*
X20485061Y-84695291D01*
X20430400Y-84419233D01*
X20323160Y-84159049D01*
X20167426Y-83924650D01*
X19969129Y-83724964D01*
X19735823Y-83567597D01*
X19476394Y-83458543D01*
X19200724Y-83401956D01*
X18919313Y-83399991D01*
X18642880Y-83452724D01*
X18381954Y-83558145D01*
X18146473Y-83712239D01*
X17945408Y-83909137D01*
X17786416Y-84141339D01*
X17675553Y-84400000D01*
X17617043Y-84675268D01*
X17613114Y-84956659D01*
X16062271Y-84956659D01*
X16411715Y-84288234D01*
X17664955Y-82729517D01*
X21992194Y-82729517D01*
X22067776Y-83141333D01*
X22221908Y-83530626D01*
X22448719Y-83882567D01*
X22739569Y-84183751D01*
X23083380Y-84422706D01*
X23467057Y-84590330D01*
X23875984Y-84680239D01*
X24294588Y-84689007D01*
X24706922Y-84616302D01*
X25097281Y-84464891D01*
X25450797Y-84240543D01*
X25754004Y-83951803D01*
X25995354Y-83609668D01*
X26165652Y-83227171D01*
X26258413Y-82818881D01*
X26259660Y-82729517D01*
X77872194Y-82729517D01*
X77947776Y-83141333D01*
X78101908Y-83530626D01*
X78328719Y-83882567D01*
X78619569Y-84183751D01*
X78963380Y-84422706D01*
X79347057Y-84590330D01*
X79755984Y-84680239D01*
X80174588Y-84689007D01*
X80586922Y-84616302D01*
X80977281Y-84464891D01*
X81330797Y-84240543D01*
X81634004Y-83951803D01*
X81875354Y-83609668D01*
X82045652Y-83227171D01*
X82138413Y-82818881D01*
X82145091Y-82340652D01*
X82063766Y-81929931D01*
X81904214Y-81542829D01*
X81672512Y-81194089D01*
X81377485Y-80896995D01*
X81030371Y-80662864D01*
X80644391Y-80500613D01*
X80234248Y-80416422D01*
X79815563Y-80413499D01*
X79404284Y-80491955D01*
X79016077Y-80648801D01*
X78665728Y-80878063D01*
X78366582Y-81171008D01*
X78130033Y-81516479D01*
X77965091Y-81901317D01*
X77878040Y-82310862D01*
X77872194Y-82729517D01*
X26259660Y-82729517D01*
X26265091Y-82340652D01*
X26183766Y-81929931D01*
X26024214Y-81542829D01*
X25792512Y-81194089D01*
X25497485Y-80896995D01*
X25188534Y-80688605D01*
X37936000Y-80688605D01*
X38061914Y-80978577D01*
X38394126Y-81144433D01*
X38752312Y-81242290D01*
X39122706Y-81268389D01*
X39491075Y-81221725D01*
X39843262Y-81104094D01*
X40078086Y-80978577D01*
X40204000Y-80688605D01*
X42836000Y-80688605D01*
X42961914Y-80978577D01*
X43294126Y-81144433D01*
X43652312Y-81242290D01*
X44022706Y-81268389D01*
X44391075Y-81221725D01*
X44743262Y-81104094D01*
X44978086Y-80978577D01*
X45104000Y-80688605D01*
X43970000Y-79554605D01*
X42836000Y-80688605D01*
X40204000Y-80688605D01*
X39070000Y-79554605D01*
X37936000Y-80688605D01*
X25188534Y-80688605D01*
X25150371Y-80662864D01*
X24764391Y-80500613D01*
X24354248Y-80416422D01*
X23935563Y-80413499D01*
X23524284Y-80491955D01*
X23136077Y-80648801D01*
X22785728Y-80878063D01*
X22486582Y-81171008D01*
X22250033Y-81516479D01*
X22085091Y-81901317D01*
X21998040Y-82310862D01*
X21992194Y-82729517D01*
X17664955Y-82729517D01*
X17725338Y-82654416D01*
X19331283Y-81306867D01*
X21168386Y-80296911D01*
X23166675Y-79663017D01*
X25251332Y-79429185D01*
X27322858Y-79595187D01*
X27373563Y-79594286D01*
X27424268Y-79595783D01*
X27440288Y-79593100D01*
X27456526Y-79592811D01*
X27506091Y-79582078D01*
X27556120Y-79573698D01*
X27571316Y-79567953D01*
X27587185Y-79564517D01*
X27633714Y-79544365D01*
X27681171Y-79526424D01*
X27694962Y-79517837D01*
X27709861Y-79511384D01*
X27751588Y-79482579D01*
X27794658Y-79455761D01*
X27806520Y-79444658D01*
X27819881Y-79435434D01*
X27855224Y-79399067D01*
X27892259Y-79364400D01*
X27898520Y-79357170D01*
X29786241Y-77146261D01*
X31894408Y-75480816D01*
X31844471Y-75553747D01*
X31741334Y-75794383D01*
X31686901Y-76050469D01*
X31683246Y-76312250D01*
X31730507Y-76569756D01*
X31826884Y-76813178D01*
X31968707Y-77033244D01*
X32150574Y-77221572D01*
X32365556Y-77370989D01*
X32595685Y-77471530D01*
X32398507Y-77551194D01*
X32179437Y-77694550D01*
X31992383Y-77877727D01*
X31844471Y-78093747D01*
X31749233Y-78315952D01*
X31664438Y-78110223D01*
X31519556Y-77892159D01*
X31335078Y-77706388D01*
X31118030Y-77559988D01*
X30876680Y-77458533D01*
X30620221Y-77405890D01*
X30358420Y-77404062D01*
X30101251Y-77453120D01*
X29858507Y-77551194D01*
X29639437Y-77694550D01*
X29452383Y-77877727D01*
X29304471Y-78093747D01*
X29201334Y-78334383D01*
X29146901Y-78590469D01*
X29143246Y-78852250D01*
X29190507Y-79109756D01*
X29286884Y-79353178D01*
X29428707Y-79573244D01*
X29610574Y-79761572D01*
X29825556Y-79910989D01*
X30065466Y-80015803D01*
X30321166Y-80072023D01*
X30582915Y-80077505D01*
X30840745Y-80032043D01*
X31084834Y-79937367D01*
X31305885Y-79797084D01*
X31495478Y-79616537D01*
X31646392Y-79402603D01*
X31752285Y-79164762D01*
X31826884Y-79353178D01*
X31968707Y-79573244D01*
X32150574Y-79761572D01*
X32365556Y-79910989D01*
X32605466Y-80015803D01*
X32861166Y-80072023D01*
X33122915Y-80077505D01*
X33380745Y-80032043D01*
X33624834Y-79937367D01*
X33845885Y-79797084D01*
X34035478Y-79616537D01*
X34186392Y-79402603D01*
X34292285Y-79164762D01*
X34366884Y-79353178D01*
X34508707Y-79573244D01*
X34690574Y-79761572D01*
X34905556Y-79910989D01*
X35145466Y-80015803D01*
X35401166Y-80072023D01*
X35662915Y-80077505D01*
X35920745Y-80032043D01*
X36164834Y-79937367D01*
X36385885Y-79797084D01*
X36575478Y-79616537D01*
X36708683Y-79427706D01*
X37176611Y-79427706D01*
X37223275Y-79796075D01*
X37340906Y-80148262D01*
X37466423Y-80383086D01*
X37756395Y-80509000D01*
X38890395Y-79375000D01*
X39249605Y-79375000D01*
X40383605Y-80509000D01*
X40673577Y-80383086D01*
X40839433Y-80050874D01*
X40937290Y-79692688D01*
X40955961Y-79427706D01*
X42076611Y-79427706D01*
X42123275Y-79796075D01*
X42240906Y-80148262D01*
X42366423Y-80383086D01*
X42656395Y-80509000D01*
X43790395Y-79375000D01*
X44149605Y-79375000D01*
X45283605Y-80509000D01*
X45573577Y-80383086D01*
X45739433Y-80050874D01*
X45837290Y-79692688D01*
X45848507Y-79533496D01*
X61982522Y-79533496D01*
X62049254Y-79897091D01*
X62185338Y-80240799D01*
X62385590Y-80551529D01*
X62642382Y-80817446D01*
X62945935Y-81028420D01*
X63284684Y-81176416D01*
X63645729Y-81255797D01*
X64015315Y-81263539D01*
X64379367Y-81199346D01*
X64724017Y-81065666D01*
X64972570Y-80907929D01*
X65145935Y-81028420D01*
X65484684Y-81176416D01*
X65845729Y-81255797D01*
X66215315Y-81263539D01*
X66579367Y-81199346D01*
X66924017Y-81065666D01*
X67236137Y-80867588D01*
X67503840Y-80612658D01*
X67716929Y-80310586D01*
X67867286Y-79972877D01*
X67949185Y-79612396D01*
X67955081Y-79190166D01*
X67883279Y-78827539D01*
X67742410Y-78485764D01*
X67537839Y-78177860D01*
X67277358Y-77915555D01*
X66970890Y-77708839D01*
X66630107Y-77565587D01*
X66267990Y-77491255D01*
X65898331Y-77488674D01*
X65535211Y-77557943D01*
X65192461Y-77696423D01*
X64969140Y-77842561D01*
X64770890Y-77708839D01*
X64430107Y-77565587D01*
X64067990Y-77491255D01*
X63698331Y-77488674D01*
X63335211Y-77557943D01*
X62992461Y-77696423D01*
X62683137Y-77898840D01*
X62419019Y-78157482D01*
X62210169Y-78462500D01*
X62064542Y-78802275D01*
X61987683Y-79163864D01*
X61982522Y-79533496D01*
X45848507Y-79533496D01*
X45863389Y-79322294D01*
X45816725Y-78953925D01*
X45699094Y-78601738D01*
X45573577Y-78366914D01*
X45283605Y-78241000D01*
X44149605Y-79375000D01*
X43790395Y-79375000D01*
X42656395Y-78241000D01*
X42366423Y-78366914D01*
X42200567Y-78699126D01*
X42102710Y-79057312D01*
X42076611Y-79427706D01*
X40955961Y-79427706D01*
X40963389Y-79322294D01*
X40916725Y-78953925D01*
X40799094Y-78601738D01*
X40673577Y-78366914D01*
X40383605Y-78241000D01*
X39249605Y-79375000D01*
X38890395Y-79375000D01*
X37756395Y-78241000D01*
X37466423Y-78366914D01*
X37300567Y-78699126D01*
X37202710Y-79057312D01*
X37176611Y-79427706D01*
X36708683Y-79427706D01*
X36726392Y-79402603D01*
X36832878Y-79163430D01*
X36890881Y-78908129D01*
X36895057Y-78609097D01*
X36844205Y-78352276D01*
X36744438Y-78110223D01*
X36711997Y-78061395D01*
X37936000Y-78061395D01*
X39070000Y-79195395D01*
X40204000Y-78061395D01*
X42836000Y-78061395D01*
X43970000Y-79195395D01*
X45104000Y-78061395D01*
X44978086Y-77771423D01*
X44645874Y-77605567D01*
X44287688Y-77507710D01*
X43917294Y-77481611D01*
X43548925Y-77528275D01*
X43196738Y-77645906D01*
X42961914Y-77771423D01*
X42836000Y-78061395D01*
X40204000Y-78061395D01*
X40078086Y-77771423D01*
X39745874Y-77605567D01*
X39387688Y-77507710D01*
X39017294Y-77481611D01*
X38648925Y-77528275D01*
X38296738Y-77645906D01*
X38061914Y-77771423D01*
X37936000Y-78061395D01*
X36711997Y-78061395D01*
X36599556Y-77892159D01*
X36415078Y-77706388D01*
X36198030Y-77559988D01*
X35956680Y-77458533D01*
X35700221Y-77405890D01*
X35438420Y-77404062D01*
X35181251Y-77453120D01*
X34938507Y-77551194D01*
X34719437Y-77694550D01*
X34532383Y-77877727D01*
X34384471Y-78093747D01*
X34289233Y-78315952D01*
X34204438Y-78110223D01*
X34059556Y-77892159D01*
X33875078Y-77706388D01*
X33658030Y-77559988D01*
X33440895Y-77468712D01*
X33624834Y-77397367D01*
X33845885Y-77257084D01*
X34035478Y-77076537D01*
X34186392Y-76862603D01*
X34292878Y-76623430D01*
X34350881Y-76368129D01*
X34355057Y-76069097D01*
X34339987Y-75992988D01*
X34513719Y-76262567D01*
X34804569Y-76563751D01*
X35148380Y-76802706D01*
X35532057Y-76970330D01*
X35940984Y-77060239D01*
X36359588Y-77069007D01*
X36771922Y-76996302D01*
X37162281Y-76844891D01*
X37515797Y-76620543D01*
X37819004Y-76331803D01*
X38060354Y-75989668D01*
X38230652Y-75607171D01*
X38323413Y-75198881D01*
X38330091Y-74720652D01*
X38248766Y-74309931D01*
X38089214Y-73922829D01*
X37857512Y-73574089D01*
X37570978Y-73285547D01*
X39911954Y-73072199D01*
X39921539Y-73070369D01*
X39931298Y-73070159D01*
X39987125Y-73057849D01*
X40043272Y-73047131D01*
X40052321Y-73043473D01*
X40061852Y-73041372D01*
X40114221Y-73018455D01*
X40167219Y-72997035D01*
X40175384Y-72991691D01*
X40184327Y-72987777D01*
X40231276Y-72955105D01*
X40279075Y-72923817D01*
X40286041Y-72916994D01*
X40294059Y-72911414D01*
X40333771Y-72870241D01*
X40374580Y-72830268D01*
X40380091Y-72822218D01*
X40386869Y-72815190D01*
X40392753Y-72807650D01*
X42920727Y-69520933D01*
X44905711Y-67781107D01*
X44927776Y-67901333D01*
X45081908Y-68290626D01*
X45308719Y-68642567D01*
X45599569Y-68943751D01*
X45943380Y-69182706D01*
X46327057Y-69350330D01*
X46735984Y-69440239D01*
X47154588Y-69449007D01*
X47566922Y-69376302D01*
X47957281Y-69224891D01*
X48310797Y-69000543D01*
X48614004Y-68711803D01*
X48855354Y-68369668D01*
X49025652Y-67987171D01*
X49118413Y-67578881D01*
X49119660Y-67489517D01*
X55012194Y-67489517D01*
X55087776Y-67901333D01*
X55241908Y-68290626D01*
X55468719Y-68642567D01*
X55759569Y-68943751D01*
X56103380Y-69182706D01*
X56487057Y-69350330D01*
X56895984Y-69440239D01*
X57314588Y-69449007D01*
X57726922Y-69376302D01*
X58117281Y-69224891D01*
X58470797Y-69000543D01*
X58774004Y-68711803D01*
X59015354Y-68369668D01*
X59185652Y-67987171D01*
X59278413Y-67578881D01*
X59285091Y-67100652D01*
X59203766Y-66689931D01*
X59044214Y-66302829D01*
X58812512Y-65954089D01*
X58517485Y-65656995D01*
X58170371Y-65422864D01*
X57784391Y-65260613D01*
X57374248Y-65176422D01*
X56955563Y-65173499D01*
X56544284Y-65251955D01*
X56156077Y-65408801D01*
X55805728Y-65638063D01*
X55506582Y-65931008D01*
X55270033Y-66276479D01*
X55105091Y-66661317D01*
X55018040Y-67070862D01*
X55012194Y-67489517D01*
X49119660Y-67489517D01*
X49125091Y-67100652D01*
X49043766Y-66689931D01*
X48884214Y-66302829D01*
X48652512Y-65954089D01*
X48357485Y-65656995D01*
X48202170Y-65552234D01*
X49519997Y-64790331D01*
X53380872Y-63473398D01*
X57424012Y-62931459D01*
X61495416Y-63185159D01*
X61495416Y-63185159D01*
G37*
X61495416Y-63185159D02*
X65440004Y-64224834D01*
X69107527Y-66010883D01*
X72358285Y-68475271D01*
X75068473Y-71524144D01*
X77145546Y-75059571D01*
X77317161Y-75468963D01*
X77239556Y-75352159D01*
X77055078Y-75166388D01*
X76838030Y-75019988D01*
X76596680Y-74918533D01*
X76340221Y-74865890D01*
X76078420Y-74864062D01*
X75821251Y-74913120D01*
X75578507Y-75011194D01*
X75359437Y-75154550D01*
X75172383Y-75337727D01*
X75024471Y-75553747D01*
X74929233Y-75775952D01*
X74844438Y-75570223D01*
X74699556Y-75352159D01*
X74515078Y-75166388D01*
X74298030Y-75019988D01*
X74080895Y-74928712D01*
X74264834Y-74857367D01*
X74485885Y-74717084D01*
X74675478Y-74536537D01*
X74826392Y-74322603D01*
X74932878Y-74083430D01*
X74990881Y-73828129D01*
X74995057Y-73529097D01*
X74944205Y-73272276D01*
X74844438Y-73030223D01*
X74699556Y-72812159D01*
X74515078Y-72626388D01*
X74298030Y-72479988D01*
X74056680Y-72378533D01*
X73800221Y-72325890D01*
X73538420Y-72324062D01*
X73281251Y-72373120D01*
X73038507Y-72471194D01*
X72819437Y-72614550D01*
X72632383Y-72797727D01*
X72484471Y-73013747D01*
X72389233Y-73235952D01*
X72304438Y-73030223D01*
X72159556Y-72812159D01*
X71975078Y-72626388D01*
X71758030Y-72479988D01*
X71540895Y-72388712D01*
X71724834Y-72317367D01*
X71945885Y-72177084D01*
X72135478Y-71996537D01*
X72286392Y-71782603D01*
X72392878Y-71543430D01*
X72450881Y-71288129D01*
X72455057Y-70989097D01*
X72404205Y-70732276D01*
X72304438Y-70490223D01*
X72159556Y-70272159D01*
X71975078Y-70086388D01*
X71758030Y-69939988D01*
X71516680Y-69838533D01*
X71260221Y-69785890D01*
X70998420Y-69784062D01*
X70741251Y-69833120D01*
X70498507Y-69931194D01*
X70279437Y-70074550D01*
X70092383Y-70257727D01*
X69944471Y-70473747D01*
X69841334Y-70714383D01*
X69786901Y-70970469D01*
X69783246Y-71232250D01*
X69830507Y-71489756D01*
X69926884Y-71733178D01*
X70068707Y-71953244D01*
X70250574Y-72141572D01*
X70465556Y-72290989D01*
X70695685Y-72391530D01*
X70498507Y-72471194D01*
X70279437Y-72614550D01*
X70092383Y-72797727D01*
X69944471Y-73013747D01*
X69841334Y-73254383D01*
X69786901Y-73510469D01*
X69783246Y-73772250D01*
X69800069Y-73863911D01*
X69607512Y-73574089D01*
X69312485Y-73276995D01*
X68965371Y-73042864D01*
X68579391Y-72880613D01*
X68169248Y-72796422D01*
X67750563Y-72793499D01*
X67339284Y-72871955D01*
X66951077Y-73028801D01*
X66600728Y-73258063D01*
X66301582Y-73551008D01*
X66065033Y-73896479D01*
X65900091Y-74281317D01*
X65813040Y-74690862D01*
X65807194Y-75109517D01*
X65882776Y-75521333D01*
X66036908Y-75910626D01*
X66263719Y-76262567D01*
X66554569Y-76563751D01*
X66898380Y-76802706D01*
X67282057Y-76970330D01*
X67690984Y-77060239D01*
X68109588Y-77069007D01*
X68521922Y-76996302D01*
X68912281Y-76844891D01*
X69265797Y-76620543D01*
X69569004Y-76331803D01*
X69795284Y-76011031D01*
X69786901Y-76050469D01*
X69783246Y-76312250D01*
X69830507Y-76569756D01*
X69926884Y-76813178D01*
X70068707Y-77033244D01*
X70250574Y-77221572D01*
X70465556Y-77370989D01*
X70695685Y-77471530D01*
X70498507Y-77551194D01*
X70279437Y-77694550D01*
X70092383Y-77877727D01*
X69944471Y-78093747D01*
X69841334Y-78334383D01*
X69786901Y-78590469D01*
X69783246Y-78852250D01*
X69830507Y-79109756D01*
X69926884Y-79353178D01*
X70068707Y-79573244D01*
X70250574Y-79761572D01*
X70465556Y-79910989D01*
X70705466Y-80015803D01*
X70961166Y-80072023D01*
X71222915Y-80077505D01*
X71480745Y-80032043D01*
X71724834Y-79937367D01*
X71945885Y-79797084D01*
X72135478Y-79616537D01*
X72286392Y-79402603D01*
X72392285Y-79164762D01*
X72466884Y-79353178D01*
X72608707Y-79573244D01*
X72790574Y-79761572D01*
X73005556Y-79910989D01*
X73245466Y-80015803D01*
X73501166Y-80072023D01*
X73762915Y-80077505D01*
X74020745Y-80032043D01*
X74264834Y-79937367D01*
X74485885Y-79797084D01*
X74675478Y-79616537D01*
X74826392Y-79402603D01*
X74932285Y-79164762D01*
X75006884Y-79353178D01*
X75148707Y-79573244D01*
X75330574Y-79761572D01*
X75545556Y-79910989D01*
X75785466Y-80015803D01*
X76041166Y-80072023D01*
X76302915Y-80077505D01*
X76560745Y-80032043D01*
X76804834Y-79937367D01*
X77025885Y-79797084D01*
X77215478Y-79616537D01*
X77366392Y-79402603D01*
X77472878Y-79163430D01*
X77530881Y-78908129D01*
X77535057Y-78609097D01*
X77484205Y-78352276D01*
X77384438Y-78110223D01*
X77239556Y-77892159D01*
X77055078Y-77706388D01*
X76838030Y-77559988D01*
X76620895Y-77468712D01*
X76804834Y-77397367D01*
X77025885Y-77257084D01*
X77215478Y-77076537D01*
X77366392Y-76862603D01*
X77472878Y-76623430D01*
X77530881Y-76368129D01*
X77535057Y-76069097D01*
X77504910Y-75916846D01*
X77736895Y-76470252D01*
X77755435Y-76504622D01*
X77771124Y-76540404D01*
X77787103Y-76563329D01*
X77800364Y-76587914D01*
X77825230Y-76618033D01*
X77847567Y-76650081D01*
X77867690Y-76669463D01*
X77885477Y-76691007D01*
X77915718Y-76715721D01*
X77943857Y-76742823D01*
X77967368Y-76757930D01*
X77988995Y-76775605D01*
X78023460Y-76793974D01*
X78056327Y-76815094D01*
X78082320Y-76825346D01*
X78106972Y-76838485D01*
X78144349Y-76849810D01*
X78180691Y-76864144D01*
X78208179Y-76869151D01*
X78234917Y-76877253D01*
X78273791Y-76881103D01*
X78312216Y-76888103D01*
X78321753Y-76888825D01*
X80727539Y-77053862D01*
X82990615Y-77665519D01*
X85091782Y-78705092D01*
X86951019Y-80132990D01*
X88497492Y-81894814D01*
X89672311Y-83923469D01*
X90430721Y-86141681D01*
X90743834Y-88464948D01*
X90599725Y-90804790D01*
X90003882Y-93072082D01*
X88979003Y-95180455D01*
X87564121Y-97049613D01*
X85813135Y-98608350D01*
X83792731Y-99797302D01*
X81579869Y-100571180D01*
X79232863Y-100904191D01*
X78732608Y-100915000D01*
X48530993Y-100915000D01*
X48664953Y-100891379D01*
X48938954Y-100785101D01*
X49187094Y-100627627D01*
X49399922Y-100424954D01*
X49569330Y-100184803D01*
X49688866Y-99916320D01*
X49753977Y-99629733D01*
X49754927Y-99561659D01*
X52919114Y-99561659D01*
X52969915Y-99838453D01*
X53073512Y-100100109D01*
X53225959Y-100336660D01*
X53421448Y-100539095D01*
X53652534Y-100699704D01*
X53910415Y-100812369D01*
X54185268Y-100872800D01*
X54466624Y-100878693D01*
X54743767Y-100829826D01*
X55006140Y-100728058D01*
X55243749Y-100577267D01*
X55447544Y-100383195D01*
X55609762Y-100153236D01*
X55724225Y-99896148D01*
X55786573Y-99621723D01*
X55787411Y-99561659D01*
X61047114Y-99561659D01*
X61097915Y-99838453D01*
X61201512Y-100100109D01*
X61353959Y-100336660D01*
X61549448Y-100539095D01*
X61780534Y-100699704D01*
X62038415Y-100812369D01*
X62313268Y-100872800D01*
X62594624Y-100878693D01*
X62871767Y-100829826D01*
X63134140Y-100728058D01*
X63371749Y-100577267D01*
X63575544Y-100383195D01*
X63737762Y-100153236D01*
X63852225Y-99896148D01*
X63914573Y-99621723D01*
X63915411Y-99561659D01*
X67981314Y-99561659D01*
X68032115Y-99838453D01*
X68135712Y-100100109D01*
X68288159Y-100336660D01*
X68483648Y-100539095D01*
X68714734Y-100699704D01*
X68972615Y-100812369D01*
X69247468Y-100872800D01*
X69528824Y-100878693D01*
X69805967Y-100829826D01*
X70068340Y-100728058D01*
X70305949Y-100577267D01*
X70456706Y-100433702D01*
X72008703Y-100433702D01*
X72080286Y-100677671D01*
X72335796Y-100798571D01*
X72609984Y-100867300D01*
X72892312Y-100881217D01*
X73171930Y-100839787D01*
X73438092Y-100744603D01*
X73563314Y-100677671D01*
X73634897Y-100433702D01*
X72821800Y-99620605D01*
X72008703Y-100433702D01*
X70456706Y-100433702D01*
X70509744Y-100383195D01*
X70671962Y-100153236D01*
X70786425Y-99896148D01*
X70848773Y-99621723D01*
X70850311Y-99511512D01*
X71381583Y-99511512D01*
X71423013Y-99791130D01*
X71518197Y-100057292D01*
X71585129Y-100182514D01*
X71829098Y-100254097D01*
X72642195Y-99441000D01*
X73001405Y-99441000D01*
X73814502Y-100254097D01*
X74058471Y-100182514D01*
X74179371Y-99927004D01*
X74248100Y-99652816D01*
X74262017Y-99370488D01*
X74220587Y-99090870D01*
X74125403Y-98824708D01*
X74058471Y-98699486D01*
X73814502Y-98627903D01*
X73001405Y-99441000D01*
X72642195Y-99441000D01*
X71829098Y-98627903D01*
X71585129Y-98699486D01*
X71464229Y-98954996D01*
X71395500Y-99229184D01*
X71381583Y-99511512D01*
X70850311Y-99511512D01*
X70853261Y-99300291D01*
X70798600Y-99024233D01*
X70691360Y-98764049D01*
X70535626Y-98529650D01*
X70454840Y-98448298D01*
X72008703Y-98448298D01*
X72821800Y-99261395D01*
X73634897Y-98448298D01*
X73563314Y-98204329D01*
X73307804Y-98083429D01*
X73033616Y-98014700D01*
X72751288Y-98000783D01*
X72471670Y-98042213D01*
X72205508Y-98137397D01*
X72080286Y-98204329D01*
X72008703Y-98448298D01*
X70454840Y-98448298D01*
X70337329Y-98329964D01*
X70104023Y-98172597D01*
X69844594Y-98063543D01*
X69568924Y-98006956D01*
X69287513Y-98004991D01*
X69011080Y-98057724D01*
X68750154Y-98163145D01*
X68514673Y-98317239D01*
X68313608Y-98514137D01*
X68154616Y-98746339D01*
X68043753Y-99005000D01*
X67985243Y-99280268D01*
X67981314Y-99561659D01*
X63915411Y-99561659D01*
X63919061Y-99300291D01*
X63864400Y-99024233D01*
X63757160Y-98764049D01*
X63601426Y-98529650D01*
X63403129Y-98329964D01*
X63169823Y-98172597D01*
X62910394Y-98063543D01*
X62634724Y-98006956D01*
X62353313Y-98004991D01*
X62076880Y-98057724D01*
X61815954Y-98163145D01*
X61580473Y-98317239D01*
X61379408Y-98514137D01*
X61220416Y-98746339D01*
X61109553Y-99005000D01*
X61051043Y-99280268D01*
X61047114Y-99561659D01*
X55787411Y-99561659D01*
X55791061Y-99300291D01*
X55736400Y-99024233D01*
X55629160Y-98764049D01*
X55473426Y-98529650D01*
X55275129Y-98329964D01*
X55041823Y-98172597D01*
X54782394Y-98063543D01*
X54506724Y-98006956D01*
X54225313Y-98004991D01*
X53948880Y-98057724D01*
X53687954Y-98163145D01*
X53452473Y-98317239D01*
X53251408Y-98514137D01*
X53092416Y-98746339D01*
X52981553Y-99005000D01*
X52923043Y-99280268D01*
X52919114Y-99561659D01*
X49754927Y-99561659D01*
X49758664Y-99294055D01*
X49701581Y-99005761D01*
X49589588Y-98734046D01*
X49426951Y-98489258D01*
X49219866Y-98280722D01*
X48976219Y-98116380D01*
X48705292Y-98002493D01*
X48417404Y-97943398D01*
X48123521Y-97941346D01*
X47834836Y-97996416D01*
X47562345Y-98106509D01*
X47316428Y-98267433D01*
X47106451Y-98473058D01*
X46989586Y-98643736D01*
X46886951Y-98489258D01*
X46679866Y-98280722D01*
X46436219Y-98116380D01*
X46165292Y-98002493D01*
X45877404Y-97943398D01*
X45583521Y-97941346D01*
X45294836Y-97996416D01*
X45022345Y-98106509D01*
X44776428Y-98267433D01*
X44647908Y-98393289D01*
X44620494Y-98304766D01*
X44521700Y-98154841D01*
X44385050Y-98038375D01*
X44221363Y-97964590D01*
X44043600Y-97939328D01*
X42316400Y-97939328D01*
X42215279Y-97947392D01*
X42043766Y-98000506D01*
X41893841Y-98099300D01*
X41777375Y-98235950D01*
X41703590Y-98399637D01*
X41678328Y-98577400D01*
X41678328Y-100304600D01*
X41686392Y-100405721D01*
X41739506Y-100577234D01*
X41838300Y-100727159D01*
X41974950Y-100843625D01*
X42133291Y-100915000D01*
X37266926Y-100915000D01*
X37371143Y-100848862D01*
X37623650Y-100608403D01*
X37824642Y-100323478D01*
X37966465Y-100004940D01*
X38043715Y-99664921D01*
X38049276Y-99266658D01*
X37981550Y-98924615D01*
X37848677Y-98602241D01*
X37655718Y-98311815D01*
X37410024Y-98064399D01*
X37120952Y-97869417D01*
X36799513Y-97734297D01*
X36457951Y-97664184D01*
X36109276Y-97661750D01*
X35766768Y-97727087D01*
X35443474Y-97857706D01*
X35151708Y-98048632D01*
X34902583Y-98292594D01*
X34705588Y-98580297D01*
X34568227Y-98900785D01*
X34495731Y-99241849D01*
X34490863Y-99590499D01*
X34553807Y-99933455D01*
X34682166Y-100257653D01*
X34871051Y-100550744D01*
X35113267Y-100801567D01*
X35276476Y-100915000D01*
X30764526Y-100915000D01*
X30868743Y-100848862D01*
X31121250Y-100608403D01*
X31322242Y-100323478D01*
X31464065Y-100004940D01*
X31541315Y-99664921D01*
X31546876Y-99266658D01*
X31479150Y-98924615D01*
X31346277Y-98602241D01*
X31153318Y-98311815D01*
X30907624Y-98064399D01*
X30618552Y-97869417D01*
X30297113Y-97734297D01*
X29955551Y-97664184D01*
X29606876Y-97661750D01*
X29264368Y-97727087D01*
X28941074Y-97857706D01*
X28649308Y-98048632D01*
X28400183Y-98292594D01*
X28203188Y-98580297D01*
X28065827Y-98900785D01*
X27993331Y-99241849D01*
X27988463Y-99590499D01*
X28051407Y-99933455D01*
X28179766Y-100257653D01*
X28368651Y-100550744D01*
X28610867Y-100801567D01*
X28774076Y-100915000D01*
X25433504Y-100915000D01*
X23313590Y-100707140D01*
X21306650Y-100101209D01*
X19455626Y-99117003D01*
X17831020Y-97792007D01*
X16871586Y-96632250D01*
X18983246Y-96632250D01*
X19030507Y-96889756D01*
X19126884Y-97133178D01*
X19268707Y-97353244D01*
X19450574Y-97541572D01*
X19665556Y-97690989D01*
X19905466Y-97795803D01*
X20161166Y-97852023D01*
X20422915Y-97857505D01*
X20680745Y-97812043D01*
X20924834Y-97717367D01*
X21145885Y-97577084D01*
X21335478Y-97396537D01*
X21486392Y-97182603D01*
X21592285Y-96944762D01*
X21666884Y-97133178D01*
X21808707Y-97353244D01*
X21990574Y-97541572D01*
X22205556Y-97690989D01*
X22435685Y-97791530D01*
X22238507Y-97871194D01*
X22019437Y-98014550D01*
X21832383Y-98197727D01*
X21684471Y-98413747D01*
X21581334Y-98654383D01*
X21526901Y-98910469D01*
X21523246Y-99172250D01*
X21570507Y-99429756D01*
X21666884Y-99673178D01*
X21808707Y-99893244D01*
X21990574Y-100081572D01*
X22205556Y-100230989D01*
X22445466Y-100335803D01*
X22701166Y-100392023D01*
X22962915Y-100397505D01*
X23220745Y-100352043D01*
X23464834Y-100257367D01*
X23685885Y-100117084D01*
X23875478Y-99936537D01*
X24026392Y-99722603D01*
X24132285Y-99484762D01*
X24206884Y-99673178D01*
X24348707Y-99893244D01*
X24530574Y-100081572D01*
X24745556Y-100230989D01*
X24985466Y-100335803D01*
X25241166Y-100392023D01*
X25502915Y-100397505D01*
X25760745Y-100352043D01*
X26004834Y-100257367D01*
X26225885Y-100117084D01*
X26415478Y-99936537D01*
X26566392Y-99722603D01*
X26672878Y-99483430D01*
X26730881Y-99228129D01*
X26735057Y-98929097D01*
X26684205Y-98672276D01*
X26584438Y-98430223D01*
X26439556Y-98212159D01*
X26255078Y-98026388D01*
X26038030Y-97879988D01*
X25820895Y-97788712D01*
X26004834Y-97717367D01*
X26225885Y-97577084D01*
X26415478Y-97396537D01*
X26566392Y-97182603D01*
X26672878Y-96943430D01*
X26730881Y-96688129D01*
X26731590Y-96637295D01*
X77343166Y-96637295D01*
X77392551Y-96906375D01*
X77493261Y-97160737D01*
X77641458Y-97390694D01*
X77831498Y-97587486D01*
X78056143Y-97743619D01*
X78306835Y-97853143D01*
X78574027Y-97911889D01*
X78847541Y-97917619D01*
X79116958Y-97870113D01*
X79372018Y-97771182D01*
X79603003Y-97624594D01*
X79801118Y-97435932D01*
X79958815Y-97212383D01*
X80009043Y-97099569D01*
X80033261Y-97160737D01*
X80181458Y-97390694D01*
X80371498Y-97587486D01*
X80596143Y-97743619D01*
X80846835Y-97853143D01*
X81114027Y-97911889D01*
X81387541Y-97917619D01*
X81656958Y-97870113D01*
X81912018Y-97771182D01*
X82143003Y-97624594D01*
X82290497Y-97484137D01*
X83035469Y-97484137D01*
X83102206Y-97724025D01*
X83350892Y-97840924D01*
X83617606Y-97907061D01*
X83892097Y-97919895D01*
X84163817Y-97878931D01*
X84422326Y-97785744D01*
X84537794Y-97724025D01*
X84604531Y-97484137D01*
X83820000Y-96699605D01*
X83035469Y-97484137D01*
X82290497Y-97484137D01*
X82341118Y-97435932D01*
X82498815Y-97212383D01*
X82547390Y-97103280D01*
X82554256Y-97122326D01*
X82615975Y-97237794D01*
X82855863Y-97304531D01*
X83640395Y-96520000D01*
X83999605Y-96520000D01*
X84784137Y-97304531D01*
X85024025Y-97237794D01*
X85140924Y-96989108D01*
X85207061Y-96722394D01*
X85219895Y-96447903D01*
X85178931Y-96176183D01*
X85085744Y-95917674D01*
X85024025Y-95802206D01*
X84784137Y-95735469D01*
X83999605Y-96520000D01*
X83640395Y-96520000D01*
X82855863Y-95735469D01*
X82615975Y-95802206D01*
X82550485Y-95941527D01*
X82517672Y-95861918D01*
X82366278Y-95634053D01*
X82288633Y-95555863D01*
X83035469Y-95555863D01*
X83820000Y-96340395D01*
X84604531Y-95555863D01*
X84537794Y-95315975D01*
X84289108Y-95199076D01*
X84022394Y-95132939D01*
X83747903Y-95120105D01*
X83476183Y-95161069D01*
X83217674Y-95254256D01*
X83102206Y-95315975D01*
X83035469Y-95555863D01*
X82288633Y-95555863D01*
X82173509Y-95439933D01*
X81946706Y-95286953D01*
X81694509Y-95180939D01*
X81426523Y-95125929D01*
X81152956Y-95124019D01*
X80884228Y-95175282D01*
X80630575Y-95277764D01*
X80401658Y-95427563D01*
X80206197Y-95618972D01*
X80051637Y-95844702D01*
X80010314Y-95941115D01*
X79977672Y-95861918D01*
X79826278Y-95634053D01*
X79633509Y-95439933D01*
X79406706Y-95286953D01*
X79154509Y-95180939D01*
X78886523Y-95125929D01*
X78612956Y-95124019D01*
X78344228Y-95175282D01*
X78090575Y-95277764D01*
X77861658Y-95427563D01*
X77666197Y-95618972D01*
X77511637Y-95844702D01*
X77403865Y-96096153D01*
X77346986Y-96363748D01*
X77343166Y-96637295D01*
X26731590Y-96637295D01*
X26735057Y-96389097D01*
X26684205Y-96132276D01*
X26584438Y-95890223D01*
X26439556Y-95672159D01*
X26255078Y-95486388D01*
X26038030Y-95339988D01*
X25820895Y-95248712D01*
X26004834Y-95177367D01*
X26225885Y-95037084D01*
X26415478Y-94856537D01*
X26566392Y-94642603D01*
X26672878Y-94403430D01*
X26730881Y-94148129D01*
X26735057Y-93849097D01*
X26684205Y-93592276D01*
X26584438Y-93350223D01*
X26439556Y-93132159D01*
X26392387Y-93084659D01*
X83653114Y-93084659D01*
X83703915Y-93361453D01*
X83807512Y-93623109D01*
X83959959Y-93859660D01*
X84155448Y-94062095D01*
X84386534Y-94222704D01*
X84644415Y-94335369D01*
X84919268Y-94395800D01*
X85200624Y-94401693D01*
X85477767Y-94352826D01*
X85740140Y-94251058D01*
X85977749Y-94100267D01*
X86181544Y-93906195D01*
X86343762Y-93676236D01*
X86458225Y-93419148D01*
X86520573Y-93144723D01*
X86525061Y-92823291D01*
X86470400Y-92547233D01*
X86363160Y-92287049D01*
X86207426Y-92052650D01*
X86009129Y-91852964D01*
X85775823Y-91695597D01*
X85516394Y-91586543D01*
X85240724Y-91529956D01*
X84959313Y-91527991D01*
X84682880Y-91580724D01*
X84421954Y-91686145D01*
X84186473Y-91840239D01*
X83985408Y-92037137D01*
X83826416Y-92269339D01*
X83715553Y-92528000D01*
X83657043Y-92803268D01*
X83653114Y-93084659D01*
X26392387Y-93084659D01*
X26255078Y-92946388D01*
X26038030Y-92799988D01*
X25796680Y-92698533D01*
X25540221Y-92645890D01*
X25278420Y-92644062D01*
X25021251Y-92693120D01*
X24778507Y-92791194D01*
X24559437Y-92934550D01*
X24372383Y-93117727D01*
X24224471Y-93333747D01*
X24129233Y-93555952D01*
X24044438Y-93350223D01*
X23899556Y-93132159D01*
X23715078Y-92946388D01*
X23498030Y-92799988D01*
X23256680Y-92698533D01*
X23000221Y-92645890D01*
X22738420Y-92644062D01*
X22481251Y-92693120D01*
X22238507Y-92791194D01*
X22019437Y-92934550D01*
X21832383Y-93117727D01*
X21684471Y-93333747D01*
X21581334Y-93574383D01*
X21526901Y-93830469D01*
X21523246Y-94092250D01*
X21570507Y-94349756D01*
X21666884Y-94593178D01*
X21808707Y-94813244D01*
X21990574Y-95001572D01*
X22205556Y-95150989D01*
X22435685Y-95251530D01*
X22238507Y-95331194D01*
X22019437Y-95474550D01*
X21832383Y-95657727D01*
X21684471Y-95873747D01*
X21589233Y-96095952D01*
X21504438Y-95890223D01*
X21359556Y-95672159D01*
X21175078Y-95486388D01*
X20958030Y-95339988D01*
X20716680Y-95238533D01*
X20460221Y-95185890D01*
X20198420Y-95184062D01*
X19941251Y-95233120D01*
X19698507Y-95331194D01*
X19479437Y-95474550D01*
X19292383Y-95657727D01*
X19144471Y-95873747D01*
X19041334Y-96114383D01*
X18986901Y-96370469D01*
X18983246Y-96632250D01*
X16871586Y-96632250D01*
X16494713Y-96176689D01*
X15497609Y-94332583D01*
X15111313Y-93084659D01*
X17613114Y-93084659D01*
X17663915Y-93361453D01*
X17767512Y-93623109D01*
X17919959Y-93859660D01*
X18115448Y-94062095D01*
X18346534Y-94222704D01*
X18604415Y-94335369D01*
X18879268Y-94395800D01*
X19160624Y-94401693D01*
X19437767Y-94352826D01*
X19700140Y-94251058D01*
X19937749Y-94100267D01*
X20141544Y-93906195D01*
X20303762Y-93676236D01*
X20418225Y-93419148D01*
X20480573Y-93144723D01*
X20485061Y-92823291D01*
X20430400Y-92547233D01*
X20323160Y-92287049D01*
X20167426Y-92052650D01*
X19969129Y-91852964D01*
X19735823Y-91695597D01*
X19476394Y-91586543D01*
X19200724Y-91529956D01*
X18919313Y-91527991D01*
X18642880Y-91580724D01*
X18381954Y-91686145D01*
X18146473Y-91840239D01*
X17945408Y-92037137D01*
X17786416Y-92269339D01*
X17675553Y-92528000D01*
X17617043Y-92803268D01*
X17613114Y-93084659D01*
X15111313Y-93084659D01*
X14877681Y-92329918D01*
X14658547Y-90244989D01*
X14848551Y-88157203D01*
X14965728Y-87759067D01*
X22592983Y-87759067D01*
X22647324Y-88055150D01*
X22758140Y-88335040D01*
X22921210Y-88588075D01*
X23130322Y-88804617D01*
X23267441Y-88899917D01*
X23163509Y-88967928D01*
X22948432Y-89178547D01*
X22778361Y-89426930D01*
X22659773Y-89703617D01*
X22597186Y-89998067D01*
X22592983Y-90299067D01*
X22647324Y-90595150D01*
X22758140Y-90875040D01*
X22921210Y-91128075D01*
X23130322Y-91344617D01*
X23377512Y-91516419D01*
X23653364Y-91636935D01*
X23947371Y-91701577D01*
X24248334Y-91707881D01*
X24544789Y-91655608D01*
X24825446Y-91546748D01*
X25079613Y-91385449D01*
X25297610Y-91177854D01*
X25471132Y-90931869D01*
X25593572Y-90656866D01*
X25660265Y-90363317D01*
X25665066Y-90019486D01*
X25606595Y-89724190D01*
X25491882Y-89445874D01*
X25325295Y-89195141D01*
X25113180Y-88981540D01*
X24992953Y-88900445D01*
X25079613Y-88845449D01*
X25297610Y-88637854D01*
X25471132Y-88391869D01*
X25593572Y-88116866D01*
X25660265Y-87823317D01*
X25661162Y-87759067D01*
X78472983Y-87759067D01*
X78527324Y-88055150D01*
X78638140Y-88335040D01*
X78801210Y-88588075D01*
X79010322Y-88804617D01*
X79147441Y-88899917D01*
X79043509Y-88967928D01*
X78828432Y-89178547D01*
X78658361Y-89426930D01*
X78539773Y-89703617D01*
X78477186Y-89998067D01*
X78472983Y-90299067D01*
X78527324Y-90595150D01*
X78638140Y-90875040D01*
X78801210Y-91128075D01*
X79010322Y-91344617D01*
X79257512Y-91516419D01*
X79533364Y-91636935D01*
X79827371Y-91701577D01*
X80128334Y-91707881D01*
X80424789Y-91655608D01*
X80705446Y-91546748D01*
X80959613Y-91385449D01*
X81177610Y-91177854D01*
X81351132Y-90931869D01*
X81473572Y-90656866D01*
X81540265Y-90363317D01*
X81545066Y-90019486D01*
X81486595Y-89724190D01*
X81371882Y-89445874D01*
X81205295Y-89195141D01*
X80993180Y-88981540D01*
X80872953Y-88900445D01*
X80959613Y-88845449D01*
X81177610Y-88637854D01*
X81351132Y-88391869D01*
X81473572Y-88116866D01*
X81540265Y-87823317D01*
X81545066Y-87479486D01*
X81486595Y-87184190D01*
X81371882Y-86905874D01*
X81205295Y-86655141D01*
X80993180Y-86441540D01*
X80743616Y-86273206D01*
X80466108Y-86156553D01*
X80171228Y-86096023D01*
X79870206Y-86093921D01*
X79574509Y-86150328D01*
X79295400Y-86263096D01*
X79043509Y-86427928D01*
X78828432Y-86638547D01*
X78658361Y-86886930D01*
X78539773Y-87163617D01*
X78477186Y-87458067D01*
X78472983Y-87759067D01*
X25661162Y-87759067D01*
X25665066Y-87479486D01*
X25606595Y-87184190D01*
X25491882Y-86905874D01*
X25325295Y-86655141D01*
X25113180Y-86441540D01*
X24863616Y-86273206D01*
X24586108Y-86156553D01*
X24291228Y-86096023D01*
X23990206Y-86093921D01*
X23694509Y-86150328D01*
X23415400Y-86263096D01*
X23163509Y-86427928D01*
X22948432Y-86638547D01*
X22778361Y-86886930D01*
X22659773Y-87163617D01*
X22597186Y-87458067D01*
X22592983Y-87759067D01*
X14965728Y-87759067D01*
X15440455Y-86146086D01*
X16062271Y-84956659D01*
X17613114Y-84956659D01*
X17663915Y-85233453D01*
X17767512Y-85495109D01*
X17919959Y-85731660D01*
X18115448Y-85934095D01*
X18346534Y-86094704D01*
X18604415Y-86207369D01*
X18879268Y-86267800D01*
X19160624Y-86273693D01*
X19437767Y-86224826D01*
X19700140Y-86123058D01*
X19937749Y-85972267D01*
X20141544Y-85778195D01*
X20303762Y-85548236D01*
X20418225Y-85291148D01*
X20480573Y-85016723D01*
X20481411Y-84956659D01*
X83653114Y-84956659D01*
X83703915Y-85233453D01*
X83807512Y-85495109D01*
X83959959Y-85731660D01*
X84155448Y-85934095D01*
X84386534Y-86094704D01*
X84644415Y-86207369D01*
X84919268Y-86267800D01*
X85200624Y-86273693D01*
X85477767Y-86224826D01*
X85740140Y-86123058D01*
X85977749Y-85972267D01*
X86181544Y-85778195D01*
X86343762Y-85548236D01*
X86458225Y-85291148D01*
X86520573Y-85016723D01*
X86525061Y-84695291D01*
X86470400Y-84419233D01*
X86363160Y-84159049D01*
X86207426Y-83924650D01*
X86009129Y-83724964D01*
X85775823Y-83567597D01*
X85516394Y-83458543D01*
X85240724Y-83401956D01*
X84959313Y-83399991D01*
X84682880Y-83452724D01*
X84421954Y-83558145D01*
X84186473Y-83712239D01*
X83985408Y-83909137D01*
X83826416Y-84141339D01*
X83715553Y-84400000D01*
X83657043Y-84675268D01*
X83653114Y-84956659D01*
X20481411Y-84956659D01*
X20485061Y-84695291D01*
X20430400Y-84419233D01*
X20323160Y-84159049D01*
X20167426Y-83924650D01*
X19969129Y-83724964D01*
X19735823Y-83567597D01*
X19476394Y-83458543D01*
X19200724Y-83401956D01*
X18919313Y-83399991D01*
X18642880Y-83452724D01*
X18381954Y-83558145D01*
X18146473Y-83712239D01*
X17945408Y-83909137D01*
X17786416Y-84141339D01*
X17675553Y-84400000D01*
X17617043Y-84675268D01*
X17613114Y-84956659D01*
X16062271Y-84956659D01*
X16411715Y-84288234D01*
X17664955Y-82729517D01*
X21992194Y-82729517D01*
X22067776Y-83141333D01*
X22221908Y-83530626D01*
X22448719Y-83882567D01*
X22739569Y-84183751D01*
X23083380Y-84422706D01*
X23467057Y-84590330D01*
X23875984Y-84680239D01*
X24294588Y-84689007D01*
X24706922Y-84616302D01*
X25097281Y-84464891D01*
X25450797Y-84240543D01*
X25754004Y-83951803D01*
X25995354Y-83609668D01*
X26165652Y-83227171D01*
X26258413Y-82818881D01*
X26259660Y-82729517D01*
X77872194Y-82729517D01*
X77947776Y-83141333D01*
X78101908Y-83530626D01*
X78328719Y-83882567D01*
X78619569Y-84183751D01*
X78963380Y-84422706D01*
X79347057Y-84590330D01*
X79755984Y-84680239D01*
X80174588Y-84689007D01*
X80586922Y-84616302D01*
X80977281Y-84464891D01*
X81330797Y-84240543D01*
X81634004Y-83951803D01*
X81875354Y-83609668D01*
X82045652Y-83227171D01*
X82138413Y-82818881D01*
X82145091Y-82340652D01*
X82063766Y-81929931D01*
X81904214Y-81542829D01*
X81672512Y-81194089D01*
X81377485Y-80896995D01*
X81030371Y-80662864D01*
X80644391Y-80500613D01*
X80234248Y-80416422D01*
X79815563Y-80413499D01*
X79404284Y-80491955D01*
X79016077Y-80648801D01*
X78665728Y-80878063D01*
X78366582Y-81171008D01*
X78130033Y-81516479D01*
X77965091Y-81901317D01*
X77878040Y-82310862D01*
X77872194Y-82729517D01*
X26259660Y-82729517D01*
X26265091Y-82340652D01*
X26183766Y-81929931D01*
X26024214Y-81542829D01*
X25792512Y-81194089D01*
X25497485Y-80896995D01*
X25188534Y-80688605D01*
X37936000Y-80688605D01*
X38061914Y-80978577D01*
X38394126Y-81144433D01*
X38752312Y-81242290D01*
X39122706Y-81268389D01*
X39491075Y-81221725D01*
X39843262Y-81104094D01*
X40078086Y-80978577D01*
X40204000Y-80688605D01*
X42836000Y-80688605D01*
X42961914Y-80978577D01*
X43294126Y-81144433D01*
X43652312Y-81242290D01*
X44022706Y-81268389D01*
X44391075Y-81221725D01*
X44743262Y-81104094D01*
X44978086Y-80978577D01*
X45104000Y-80688605D01*
X43970000Y-79554605D01*
X42836000Y-80688605D01*
X40204000Y-80688605D01*
X39070000Y-79554605D01*
X37936000Y-80688605D01*
X25188534Y-80688605D01*
X25150371Y-80662864D01*
X24764391Y-80500613D01*
X24354248Y-80416422D01*
X23935563Y-80413499D01*
X23524284Y-80491955D01*
X23136077Y-80648801D01*
X22785728Y-80878063D01*
X22486582Y-81171008D01*
X22250033Y-81516479D01*
X22085091Y-81901317D01*
X21998040Y-82310862D01*
X21992194Y-82729517D01*
X17664955Y-82729517D01*
X17725338Y-82654416D01*
X19331283Y-81306867D01*
X21168386Y-80296911D01*
X23166675Y-79663017D01*
X25251332Y-79429185D01*
X27322858Y-79595187D01*
X27373563Y-79594286D01*
X27424268Y-79595783D01*
X27440288Y-79593100D01*
X27456526Y-79592811D01*
X27506091Y-79582078D01*
X27556120Y-79573698D01*
X27571316Y-79567953D01*
X27587185Y-79564517D01*
X27633714Y-79544365D01*
X27681171Y-79526424D01*
X27694962Y-79517837D01*
X27709861Y-79511384D01*
X27751588Y-79482579D01*
X27794658Y-79455761D01*
X27806520Y-79444658D01*
X27819881Y-79435434D01*
X27855224Y-79399067D01*
X27892259Y-79364400D01*
X27898520Y-79357170D01*
X29786241Y-77146261D01*
X31894408Y-75480816D01*
X31844471Y-75553747D01*
X31741334Y-75794383D01*
X31686901Y-76050469D01*
X31683246Y-76312250D01*
X31730507Y-76569756D01*
X31826884Y-76813178D01*
X31968707Y-77033244D01*
X32150574Y-77221572D01*
X32365556Y-77370989D01*
X32595685Y-77471530D01*
X32398507Y-77551194D01*
X32179437Y-77694550D01*
X31992383Y-77877727D01*
X31844471Y-78093747D01*
X31749233Y-78315952D01*
X31664438Y-78110223D01*
X31519556Y-77892159D01*
X31335078Y-77706388D01*
X31118030Y-77559988D01*
X30876680Y-77458533D01*
X30620221Y-77405890D01*
X30358420Y-77404062D01*
X30101251Y-77453120D01*
X29858507Y-77551194D01*
X29639437Y-77694550D01*
X29452383Y-77877727D01*
X29304471Y-78093747D01*
X29201334Y-78334383D01*
X29146901Y-78590469D01*
X29143246Y-78852250D01*
X29190507Y-79109756D01*
X29286884Y-79353178D01*
X29428707Y-79573244D01*
X29610574Y-79761572D01*
X29825556Y-79910989D01*
X30065466Y-80015803D01*
X30321166Y-80072023D01*
X30582915Y-80077505D01*
X30840745Y-80032043D01*
X31084834Y-79937367D01*
X31305885Y-79797084D01*
X31495478Y-79616537D01*
X31646392Y-79402603D01*
X31752285Y-79164762D01*
X31826884Y-79353178D01*
X31968707Y-79573244D01*
X32150574Y-79761572D01*
X32365556Y-79910989D01*
X32605466Y-80015803D01*
X32861166Y-80072023D01*
X33122915Y-80077505D01*
X33380745Y-80032043D01*
X33624834Y-79937367D01*
X33845885Y-79797084D01*
X34035478Y-79616537D01*
X34186392Y-79402603D01*
X34292285Y-79164762D01*
X34366884Y-79353178D01*
X34508707Y-79573244D01*
X34690574Y-79761572D01*
X34905556Y-79910989D01*
X35145466Y-80015803D01*
X35401166Y-80072023D01*
X35662915Y-80077505D01*
X35920745Y-80032043D01*
X36164834Y-79937367D01*
X36385885Y-79797084D01*
X36575478Y-79616537D01*
X36708683Y-79427706D01*
X37176611Y-79427706D01*
X37223275Y-79796075D01*
X37340906Y-80148262D01*
X37466423Y-80383086D01*
X37756395Y-80509000D01*
X38890395Y-79375000D01*
X39249605Y-79375000D01*
X40383605Y-80509000D01*
X40673577Y-80383086D01*
X40839433Y-80050874D01*
X40937290Y-79692688D01*
X40955961Y-79427706D01*
X42076611Y-79427706D01*
X42123275Y-79796075D01*
X42240906Y-80148262D01*
X42366423Y-80383086D01*
X42656395Y-80509000D01*
X43790395Y-79375000D01*
X44149605Y-79375000D01*
X45283605Y-80509000D01*
X45573577Y-80383086D01*
X45739433Y-80050874D01*
X45837290Y-79692688D01*
X45848507Y-79533496D01*
X61982522Y-79533496D01*
X62049254Y-79897091D01*
X62185338Y-80240799D01*
X62385590Y-80551529D01*
X62642382Y-80817446D01*
X62945935Y-81028420D01*
X63284684Y-81176416D01*
X63645729Y-81255797D01*
X64015315Y-81263539D01*
X64379367Y-81199346D01*
X64724017Y-81065666D01*
X64972570Y-80907929D01*
X65145935Y-81028420D01*
X65484684Y-81176416D01*
X65845729Y-81255797D01*
X66215315Y-81263539D01*
X66579367Y-81199346D01*
X66924017Y-81065666D01*
X67236137Y-80867588D01*
X67503840Y-80612658D01*
X67716929Y-80310586D01*
X67867286Y-79972877D01*
X67949185Y-79612396D01*
X67955081Y-79190166D01*
X67883279Y-78827539D01*
X67742410Y-78485764D01*
X67537839Y-78177860D01*
X67277358Y-77915555D01*
X66970890Y-77708839D01*
X66630107Y-77565587D01*
X66267990Y-77491255D01*
X65898331Y-77488674D01*
X65535211Y-77557943D01*
X65192461Y-77696423D01*
X64969140Y-77842561D01*
X64770890Y-77708839D01*
X64430107Y-77565587D01*
X64067990Y-77491255D01*
X63698331Y-77488674D01*
X63335211Y-77557943D01*
X62992461Y-77696423D01*
X62683137Y-77898840D01*
X62419019Y-78157482D01*
X62210169Y-78462500D01*
X62064542Y-78802275D01*
X61987683Y-79163864D01*
X61982522Y-79533496D01*
X45848507Y-79533496D01*
X45863389Y-79322294D01*
X45816725Y-78953925D01*
X45699094Y-78601738D01*
X45573577Y-78366914D01*
X45283605Y-78241000D01*
X44149605Y-79375000D01*
X43790395Y-79375000D01*
X42656395Y-78241000D01*
X42366423Y-78366914D01*
X42200567Y-78699126D01*
X42102710Y-79057312D01*
X42076611Y-79427706D01*
X40955961Y-79427706D01*
X40963389Y-79322294D01*
X40916725Y-78953925D01*
X40799094Y-78601738D01*
X40673577Y-78366914D01*
X40383605Y-78241000D01*
X39249605Y-79375000D01*
X38890395Y-79375000D01*
X37756395Y-78241000D01*
X37466423Y-78366914D01*
X37300567Y-78699126D01*
X37202710Y-79057312D01*
X37176611Y-79427706D01*
X36708683Y-79427706D01*
X36726392Y-79402603D01*
X36832878Y-79163430D01*
X36890881Y-78908129D01*
X36895057Y-78609097D01*
X36844205Y-78352276D01*
X36744438Y-78110223D01*
X36711997Y-78061395D01*
X37936000Y-78061395D01*
X39070000Y-79195395D01*
X40204000Y-78061395D01*
X42836000Y-78061395D01*
X43970000Y-79195395D01*
X45104000Y-78061395D01*
X44978086Y-77771423D01*
X44645874Y-77605567D01*
X44287688Y-77507710D01*
X43917294Y-77481611D01*
X43548925Y-77528275D01*
X43196738Y-77645906D01*
X42961914Y-77771423D01*
X42836000Y-78061395D01*
X40204000Y-78061395D01*
X40078086Y-77771423D01*
X39745874Y-77605567D01*
X39387688Y-77507710D01*
X39017294Y-77481611D01*
X38648925Y-77528275D01*
X38296738Y-77645906D01*
X38061914Y-77771423D01*
X37936000Y-78061395D01*
X36711997Y-78061395D01*
X36599556Y-77892159D01*
X36415078Y-77706388D01*
X36198030Y-77559988D01*
X35956680Y-77458533D01*
X35700221Y-77405890D01*
X35438420Y-77404062D01*
X35181251Y-77453120D01*
X34938507Y-77551194D01*
X34719437Y-77694550D01*
X34532383Y-77877727D01*
X34384471Y-78093747D01*
X34289233Y-78315952D01*
X34204438Y-78110223D01*
X34059556Y-77892159D01*
X33875078Y-77706388D01*
X33658030Y-77559988D01*
X33440895Y-77468712D01*
X33624834Y-77397367D01*
X33845885Y-77257084D01*
X34035478Y-77076537D01*
X34186392Y-76862603D01*
X34292878Y-76623430D01*
X34350881Y-76368129D01*
X34355057Y-76069097D01*
X34339987Y-75992988D01*
X34513719Y-76262567D01*
X34804569Y-76563751D01*
X35148380Y-76802706D01*
X35532057Y-76970330D01*
X35940984Y-77060239D01*
X36359588Y-77069007D01*
X36771922Y-76996302D01*
X37162281Y-76844891D01*
X37515797Y-76620543D01*
X37819004Y-76331803D01*
X38060354Y-75989668D01*
X38230652Y-75607171D01*
X38323413Y-75198881D01*
X38330091Y-74720652D01*
X38248766Y-74309931D01*
X38089214Y-73922829D01*
X37857512Y-73574089D01*
X37570978Y-73285547D01*
X39911954Y-73072199D01*
X39921539Y-73070369D01*
X39931298Y-73070159D01*
X39987125Y-73057849D01*
X40043272Y-73047131D01*
X40052321Y-73043473D01*
X40061852Y-73041372D01*
X40114221Y-73018455D01*
X40167219Y-72997035D01*
X40175384Y-72991691D01*
X40184327Y-72987777D01*
X40231276Y-72955105D01*
X40279075Y-72923817D01*
X40286041Y-72916994D01*
X40294059Y-72911414D01*
X40333771Y-72870241D01*
X40374580Y-72830268D01*
X40380091Y-72822218D01*
X40386869Y-72815190D01*
X40392753Y-72807650D01*
X42920727Y-69520933D01*
X44905711Y-67781107D01*
X44927776Y-67901333D01*
X45081908Y-68290626D01*
X45308719Y-68642567D01*
X45599569Y-68943751D01*
X45943380Y-69182706D01*
X46327057Y-69350330D01*
X46735984Y-69440239D01*
X47154588Y-69449007D01*
X47566922Y-69376302D01*
X47957281Y-69224891D01*
X48310797Y-69000543D01*
X48614004Y-68711803D01*
X48855354Y-68369668D01*
X49025652Y-67987171D01*
X49118413Y-67578881D01*
X49119660Y-67489517D01*
X55012194Y-67489517D01*
X55087776Y-67901333D01*
X55241908Y-68290626D01*
X55468719Y-68642567D01*
X55759569Y-68943751D01*
X56103380Y-69182706D01*
X56487057Y-69350330D01*
X56895984Y-69440239D01*
X57314588Y-69449007D01*
X57726922Y-69376302D01*
X58117281Y-69224891D01*
X58470797Y-69000543D01*
X58774004Y-68711803D01*
X59015354Y-68369668D01*
X59185652Y-67987171D01*
X59278413Y-67578881D01*
X59285091Y-67100652D01*
X59203766Y-66689931D01*
X59044214Y-66302829D01*
X58812512Y-65954089D01*
X58517485Y-65656995D01*
X58170371Y-65422864D01*
X57784391Y-65260613D01*
X57374248Y-65176422D01*
X56955563Y-65173499D01*
X56544284Y-65251955D01*
X56156077Y-65408801D01*
X55805728Y-65638063D01*
X55506582Y-65931008D01*
X55270033Y-66276479D01*
X55105091Y-66661317D01*
X55018040Y-67070862D01*
X55012194Y-67489517D01*
X49119660Y-67489517D01*
X49125091Y-67100652D01*
X49043766Y-66689931D01*
X48884214Y-66302829D01*
X48652512Y-65954089D01*
X48357485Y-65656995D01*
X48202170Y-65552234D01*
X49519997Y-64790331D01*
X53380872Y-63473398D01*
X57424012Y-62931459D01*
X61495416Y-63185159D01*
M02*
