G04 #@! TF.FileFunction,Legend,Bot*
%FSLAX46Y46*%
G04 Gerber Fmt 4.6, Leading zero omitted, Abs format (unit mm)*
G04 Created by KiCad (PCBNEW 4.0.7-e2-6376~58~ubuntu16.04.1) date Tue Oct 17 16:23:07 2017*
%MOMM*%
%LPD*%
G01*
G04 APERTURE LIST*
%ADD10C,0.101600*%
%ADD11C,0.508000*%
%ADD12C,0.300000*%
%ADD13C,0.254000*%
%ADD14C,0.304800*%
%ADD15C,0.010000*%
%ADD16C,0.152400*%
%ADD17C,2.000000*%
%ADD18C,3.400000*%
%ADD19C,2.686000*%
%ADD20C,1.800000*%
%ADD21C,1.920000*%
%ADD22R,2.127200X2.127200*%
%ADD23C,2.127200*%
%ADD24C,2.900000*%
%ADD25C,2.200000*%
G04 APERTURE END LIST*
D10*
D11*
X88265000Y-92075000D02*
X83820000Y-96520000D01*
X88265000Y-84455000D02*
X88265000Y-92075000D01*
X85852000Y-82042000D02*
X88265000Y-84455000D01*
X83947000Y-82042000D02*
X85852000Y-82042000D01*
X80899000Y-85090000D02*
X83947000Y-82042000D01*
X45085000Y-85090000D02*
X80899000Y-85090000D01*
X43942000Y-83947000D02*
X45085000Y-85090000D01*
X43942000Y-79375000D02*
X43942000Y-83947000D01*
X39116000Y-79375000D02*
X43942000Y-79375000D01*
X45720000Y-99441000D02*
X45720000Y-97155000D01*
X36322000Y-99441000D02*
X36322000Y-97155000D01*
X78740000Y-96520000D02*
X78740000Y-92964000D01*
X27051000Y-92964000D02*
X85090000Y-92964000D01*
X26670000Y-92583000D02*
X27051000Y-92964000D01*
X21463000Y-92583000D02*
X26670000Y-92583000D01*
X21082000Y-92964000D02*
X21463000Y-92583000D01*
X19050000Y-92964000D02*
X21082000Y-92964000D01*
X19050000Y-89916000D02*
X19050000Y-92964000D01*
X21971000Y-88011000D02*
X24130000Y-90170000D01*
X19050000Y-88011000D02*
X21971000Y-88011000D01*
X19050000Y-84836000D02*
X19050000Y-88011000D01*
X85090000Y-92964000D02*
X85090000Y-89916000D01*
X85090000Y-84836000D02*
X85090000Y-88011000D01*
X81915000Y-88011000D02*
X85090000Y-88011000D01*
X81534000Y-87630000D02*
X81915000Y-88011000D01*
X80010000Y-87630000D02*
X81534000Y-87630000D01*
X61976000Y-90170000D02*
X80010000Y-90170000D01*
X59436000Y-87630000D02*
X61976000Y-90170000D01*
X24130000Y-87630000D02*
X59436000Y-87630000D01*
X24130000Y-86360000D02*
X24130000Y-87630000D01*
X20955000Y-83185000D02*
X24130000Y-86360000D01*
X18161000Y-83185000D02*
X20955000Y-83185000D01*
X16764000Y-84582000D02*
X18161000Y-83185000D01*
X16764000Y-93472000D02*
X16764000Y-84582000D01*
X17780000Y-94488000D02*
X16764000Y-93472000D01*
X20828000Y-94488000D02*
X17780000Y-94488000D01*
X21590000Y-95250000D02*
X20828000Y-94488000D01*
X26035000Y-95250000D02*
X21590000Y-95250000D01*
X27940000Y-97155000D02*
X26035000Y-95250000D01*
X52070000Y-97155000D02*
X27940000Y-97155000D01*
X54356000Y-99441000D02*
X52070000Y-97155000D01*
X80899000Y-99441000D02*
X72771000Y-99441000D01*
X83820000Y-96520000D02*
X80899000Y-99441000D01*
X81280000Y-97663000D02*
X81280000Y-96520000D01*
X80264000Y-98679000D02*
X81280000Y-97663000D01*
X74549000Y-98679000D02*
X80264000Y-98679000D01*
X73660000Y-97790000D02*
X74549000Y-98679000D01*
X69977000Y-97790000D02*
X73660000Y-97790000D01*
X69469000Y-98298000D02*
X69977000Y-97790000D01*
X69469000Y-99441000D02*
X69469000Y-98298000D01*
X62611000Y-99441000D02*
X69342000Y-99441000D01*
X59309000Y-99441000D02*
X62484000Y-99441000D01*
X57404000Y-99441000D02*
X54356000Y-99441000D01*
X43180000Y-101092000D02*
X43180000Y-99441000D01*
X31369000Y-101092000D02*
X29718000Y-99441000D01*
X80518000Y-101092000D02*
X31369000Y-101092000D01*
X81407000Y-100203000D02*
X80518000Y-101092000D01*
X82677000Y-100203000D02*
X81407000Y-100203000D01*
X89662000Y-93218000D02*
X82677000Y-100203000D01*
X89662000Y-84582000D02*
X89662000Y-93218000D01*
X85217000Y-80137000D02*
X89662000Y-84582000D01*
X78867000Y-80137000D02*
X85217000Y-80137000D01*
X76581000Y-82423000D02*
X78867000Y-80137000D01*
X67310000Y-82423000D02*
X76581000Y-82423000D01*
X66040000Y-81153000D02*
X67310000Y-82423000D01*
X66040000Y-79375000D02*
X66040000Y-81153000D01*
D12*
X70357857Y-81823571D02*
X70715000Y-81823571D01*
X70715000Y-79680714D01*
X70357857Y-79680714D01*
X69786428Y-80752143D02*
X68643571Y-80752143D01*
X69215000Y-81323571D02*
X69215000Y-80180714D01*
X68072142Y-81823571D02*
X67714999Y-81823571D01*
X67714999Y-79680714D01*
X68072142Y-79680714D01*
X39877857Y-83093571D02*
X40235000Y-83093571D01*
X40235000Y-80950714D01*
X39877857Y-80950714D01*
X39306428Y-82022143D02*
X38163571Y-82022143D01*
X37592142Y-83093571D02*
X37234999Y-83093571D01*
X37234999Y-80950714D01*
X37592142Y-80950714D01*
D13*
X48290238Y-95189524D02*
X48290238Y-93919524D01*
X47745952Y-95189524D02*
X47745952Y-94524286D01*
X47806429Y-94403333D01*
X47927381Y-94342857D01*
X48108809Y-94342857D01*
X48229762Y-94403333D01*
X48290238Y-94463810D01*
X47322619Y-94342857D02*
X46838809Y-94342857D01*
X47141190Y-93919524D02*
X47141190Y-95008095D01*
X47080714Y-95129048D01*
X46959761Y-95189524D01*
X46838809Y-95189524D01*
X46596905Y-94342857D02*
X46113095Y-94342857D01*
X46415476Y-93919524D02*
X46415476Y-95008095D01*
X46355000Y-95129048D01*
X46234047Y-95189524D01*
X46113095Y-95189524D01*
X45689762Y-94342857D02*
X45689762Y-95612857D01*
X45689762Y-94403333D02*
X45568810Y-94342857D01*
X45326905Y-94342857D01*
X45205953Y-94403333D01*
X45145476Y-94463810D01*
X45085000Y-94584762D01*
X45085000Y-94947619D01*
X45145476Y-95068571D01*
X45205953Y-95129048D01*
X45326905Y-95189524D01*
X45568810Y-95189524D01*
X45689762Y-95129048D01*
X44601190Y-95129048D02*
X44480238Y-95189524D01*
X44238333Y-95189524D01*
X44117381Y-95129048D01*
X44056905Y-95008095D01*
X44056905Y-94947619D01*
X44117381Y-94826667D01*
X44238333Y-94766190D01*
X44419762Y-94766190D01*
X44540714Y-94705714D01*
X44601190Y-94584762D01*
X44601190Y-94524286D01*
X44540714Y-94403333D01*
X44419762Y-94342857D01*
X44238333Y-94342857D01*
X44117381Y-94403333D01*
X43512619Y-95068571D02*
X43452143Y-95129048D01*
X43512619Y-95189524D01*
X43573095Y-95129048D01*
X43512619Y-95068571D01*
X43512619Y-95189524D01*
X43512619Y-94403333D02*
X43452143Y-94463810D01*
X43512619Y-94524286D01*
X43573095Y-94463810D01*
X43512619Y-94403333D01*
X43512619Y-94524286D01*
X42000714Y-93859048D02*
X43089286Y-95491905D01*
X40670238Y-93859048D02*
X41758810Y-95491905D01*
X39702619Y-94342857D02*
X39702619Y-95370952D01*
X39763096Y-95491905D01*
X39823572Y-95552381D01*
X39944524Y-95612857D01*
X40125953Y-95612857D01*
X40246905Y-95552381D01*
X39702619Y-95129048D02*
X39823572Y-95189524D01*
X40065476Y-95189524D01*
X40186429Y-95129048D01*
X40246905Y-95068571D01*
X40307381Y-94947619D01*
X40307381Y-94584762D01*
X40246905Y-94463810D01*
X40186429Y-94403333D01*
X40065476Y-94342857D01*
X39823572Y-94342857D01*
X39702619Y-94403333D01*
X39097857Y-95189524D02*
X39097857Y-94342857D01*
X39097857Y-93919524D02*
X39158333Y-93980000D01*
X39097857Y-94040476D01*
X39037381Y-93980000D01*
X39097857Y-93919524D01*
X39097857Y-94040476D01*
X38674524Y-94342857D02*
X38190714Y-94342857D01*
X38493095Y-93919524D02*
X38493095Y-95008095D01*
X38432619Y-95129048D01*
X38311666Y-95189524D01*
X38190714Y-95189524D01*
X37767381Y-95068571D02*
X37706905Y-95129048D01*
X37767381Y-95189524D01*
X37827857Y-95129048D01*
X37767381Y-95068571D01*
X37767381Y-95189524D01*
X37162619Y-95189524D02*
X37162619Y-94342857D01*
X37162619Y-93919524D02*
X37223095Y-93980000D01*
X37162619Y-94040476D01*
X37102143Y-93980000D01*
X37162619Y-93919524D01*
X37162619Y-94040476D01*
X36376428Y-95189524D02*
X36497381Y-95129048D01*
X36557857Y-95068571D01*
X36618333Y-94947619D01*
X36618333Y-94584762D01*
X36557857Y-94463810D01*
X36497381Y-94403333D01*
X36376428Y-94342857D01*
X36195000Y-94342857D01*
X36074048Y-94403333D01*
X36013571Y-94463810D01*
X35953095Y-94584762D01*
X35953095Y-94947619D01*
X36013571Y-95068571D01*
X36074048Y-95129048D01*
X36195000Y-95189524D01*
X36376428Y-95189524D01*
X34501666Y-93859048D02*
X35590238Y-95491905D01*
X34199285Y-94342857D02*
X33896904Y-95189524D01*
X33594524Y-94342857D01*
X32566428Y-95189524D02*
X32566428Y-93919524D01*
X32566428Y-95129048D02*
X32687381Y-95189524D01*
X32929285Y-95189524D01*
X33050238Y-95129048D01*
X33110714Y-95068571D01*
X33171190Y-94947619D01*
X33171190Y-94584762D01*
X33110714Y-94463810D01*
X33050238Y-94403333D01*
X32929285Y-94342857D01*
X32687381Y-94342857D01*
X32566428Y-94403333D01*
X32082618Y-94342857D02*
X31780237Y-95189524D01*
X31477857Y-94342857D02*
X31780237Y-95189524D01*
X31901190Y-95491905D01*
X31961666Y-95552381D01*
X32082618Y-95612857D01*
X30510238Y-95129048D02*
X30631190Y-95189524D01*
X30873095Y-95189524D01*
X30994047Y-95129048D01*
X31054523Y-95008095D01*
X31054523Y-94524286D01*
X30994047Y-94403333D01*
X30873095Y-94342857D01*
X30631190Y-94342857D01*
X30510238Y-94403333D01*
X30449761Y-94524286D01*
X30449761Y-94645238D01*
X31054523Y-94766190D01*
X29905476Y-93919524D02*
X29905476Y-94947619D01*
X29845000Y-95068571D01*
X29784524Y-95129048D01*
X29663571Y-95189524D01*
X29421667Y-95189524D01*
X29300714Y-95129048D01*
X29240238Y-95068571D01*
X29179762Y-94947619D01*
X29179762Y-93919524D01*
D14*
X75147713Y-95231857D02*
X74929999Y-95304429D01*
X74567142Y-95304429D01*
X74421999Y-95231857D01*
X74349428Y-95159286D01*
X74276856Y-95014143D01*
X74276856Y-94869000D01*
X74349428Y-94723857D01*
X74421999Y-94651286D01*
X74567142Y-94578714D01*
X74857428Y-94506143D01*
X75002570Y-94433571D01*
X75075142Y-94361000D01*
X75147713Y-94215857D01*
X75147713Y-94070714D01*
X75075142Y-93925571D01*
X75002570Y-93853000D01*
X74857428Y-93780429D01*
X74494570Y-93780429D01*
X74276856Y-93853000D01*
X73623713Y-95159286D02*
X73551141Y-95231857D01*
X73623713Y-95304429D01*
X73696284Y-95231857D01*
X73623713Y-95159286D01*
X73623713Y-95304429D01*
X73115713Y-93780429D02*
X72244856Y-93780429D01*
X72680285Y-95304429D02*
X72680285Y-93780429D01*
X71736856Y-95159286D02*
X71664284Y-95231857D01*
X71736856Y-95304429D01*
X71809427Y-95231857D01*
X71736856Y-95159286D01*
X71736856Y-95304429D01*
X71011142Y-94506143D02*
X70503142Y-94506143D01*
X70285428Y-95304429D02*
X71011142Y-95304429D01*
X71011142Y-93780429D01*
X70285428Y-93780429D01*
X69632285Y-95159286D02*
X69559713Y-95231857D01*
X69632285Y-95304429D01*
X69704856Y-95231857D01*
X69632285Y-95159286D01*
X69632285Y-95304429D01*
X68979142Y-94869000D02*
X68253428Y-94869000D01*
X69124285Y-95304429D02*
X68616285Y-93780429D01*
X68108285Y-95304429D01*
X67600285Y-95159286D02*
X67527713Y-95231857D01*
X67600285Y-95304429D01*
X67672856Y-95231857D01*
X67600285Y-95159286D01*
X67600285Y-95304429D01*
X66874571Y-95304429D02*
X66874571Y-93780429D01*
X66366571Y-94869000D01*
X65858571Y-93780429D01*
X65858571Y-95304429D01*
X65132857Y-95159286D02*
X65060285Y-95231857D01*
X65132857Y-95304429D01*
X65205428Y-95231857D01*
X65132857Y-95159286D01*
X65132857Y-95304429D01*
X62738000Y-94506143D02*
X62520286Y-94578714D01*
X62447714Y-94651286D01*
X62375143Y-94796429D01*
X62375143Y-95014143D01*
X62447714Y-95159286D01*
X62520286Y-95231857D01*
X62665428Y-95304429D01*
X63246000Y-95304429D01*
X63246000Y-93780429D01*
X62738000Y-93780429D01*
X62592857Y-93853000D01*
X62520286Y-93925571D01*
X62447714Y-94070714D01*
X62447714Y-94215857D01*
X62520286Y-94361000D01*
X62592857Y-94433571D01*
X62738000Y-94506143D01*
X63246000Y-94506143D01*
X61068857Y-95304429D02*
X61068857Y-94506143D01*
X61141428Y-94361000D01*
X61286571Y-94288429D01*
X61576857Y-94288429D01*
X61722000Y-94361000D01*
X61068857Y-95231857D02*
X61214000Y-95304429D01*
X61576857Y-95304429D01*
X61722000Y-95231857D01*
X61794571Y-95086714D01*
X61794571Y-94941571D01*
X61722000Y-94796429D01*
X61576857Y-94723857D01*
X61214000Y-94723857D01*
X61068857Y-94651286D01*
X59690000Y-95304429D02*
X59690000Y-93780429D01*
X59690000Y-95231857D02*
X59835143Y-95304429D01*
X60125429Y-95304429D01*
X60270571Y-95231857D01*
X60343143Y-95159286D01*
X60415714Y-95014143D01*
X60415714Y-94578714D01*
X60343143Y-94433571D01*
X60270571Y-94361000D01*
X60125429Y-94288429D01*
X59835143Y-94288429D01*
X59690000Y-94361000D01*
X58311143Y-94288429D02*
X58311143Y-95522143D01*
X58383714Y-95667286D01*
X58456286Y-95739857D01*
X58601429Y-95812429D01*
X58819143Y-95812429D01*
X58964286Y-95739857D01*
X58311143Y-95231857D02*
X58456286Y-95304429D01*
X58746572Y-95304429D01*
X58891714Y-95231857D01*
X58964286Y-95159286D01*
X59036857Y-95014143D01*
X59036857Y-94578714D01*
X58964286Y-94433571D01*
X58891714Y-94361000D01*
X58746572Y-94288429D01*
X58456286Y-94288429D01*
X58311143Y-94361000D01*
X57004857Y-95231857D02*
X57150000Y-95304429D01*
X57440286Y-95304429D01*
X57585429Y-95231857D01*
X57658000Y-95086714D01*
X57658000Y-94506143D01*
X57585429Y-94361000D01*
X57440286Y-94288429D01*
X57150000Y-94288429D01*
X57004857Y-94361000D01*
X56932286Y-94506143D01*
X56932286Y-94651286D01*
X57658000Y-94796429D01*
X65386856Y-91113429D02*
X65096570Y-92129429D01*
X64806284Y-91403714D01*
X64515999Y-92129429D01*
X64225713Y-91113429D01*
X63790285Y-91113429D02*
X63499999Y-92129429D01*
X63209713Y-91403714D01*
X62919428Y-92129429D01*
X62629142Y-91113429D01*
X62193714Y-91113429D02*
X61903428Y-92129429D01*
X61613142Y-91403714D01*
X61322857Y-92129429D01*
X61032571Y-91113429D01*
X60452000Y-91984286D02*
X60379428Y-92056857D01*
X60452000Y-92129429D01*
X60524571Y-92056857D01*
X60452000Y-91984286D01*
X60452000Y-92129429D01*
X59726286Y-92129429D02*
X59726286Y-91113429D01*
X59726286Y-91258571D02*
X59653714Y-91186000D01*
X59508572Y-91113429D01*
X59290857Y-91113429D01*
X59145714Y-91186000D01*
X59073143Y-91331143D01*
X59073143Y-92129429D01*
X59073143Y-91331143D02*
X59000572Y-91186000D01*
X58855429Y-91113429D01*
X58637714Y-91113429D01*
X58492572Y-91186000D01*
X58420000Y-91331143D01*
X58420000Y-92129429D01*
X57041143Y-92129429D02*
X57041143Y-91331143D01*
X57113714Y-91186000D01*
X57258857Y-91113429D01*
X57549143Y-91113429D01*
X57694286Y-91186000D01*
X57041143Y-92056857D02*
X57186286Y-92129429D01*
X57549143Y-92129429D01*
X57694286Y-92056857D01*
X57766857Y-91911714D01*
X57766857Y-91766571D01*
X57694286Y-91621429D01*
X57549143Y-91548857D01*
X57186286Y-91548857D01*
X57041143Y-91476286D01*
X56315429Y-92129429D02*
X56315429Y-90605429D01*
X56170286Y-91548857D02*
X55734857Y-92129429D01*
X55734857Y-91113429D02*
X56315429Y-91694000D01*
X54501143Y-92056857D02*
X54646286Y-92129429D01*
X54936572Y-92129429D01*
X55081715Y-92056857D01*
X55154286Y-91911714D01*
X55154286Y-91331143D01*
X55081715Y-91186000D01*
X54936572Y-91113429D01*
X54646286Y-91113429D01*
X54501143Y-91186000D01*
X54428572Y-91331143D01*
X54428572Y-91476286D01*
X55154286Y-91621429D01*
X53775429Y-92129429D02*
X53775429Y-91113429D01*
X53775429Y-91403714D02*
X53702857Y-91258571D01*
X53630286Y-91186000D01*
X53485143Y-91113429D01*
X53340000Y-91113429D01*
X52904571Y-92056857D02*
X52759428Y-92129429D01*
X52469143Y-92129429D01*
X52324000Y-92056857D01*
X52251428Y-91911714D01*
X52251428Y-91839143D01*
X52324000Y-91694000D01*
X52469143Y-91621429D01*
X52686857Y-91621429D01*
X52832000Y-91548857D01*
X52904571Y-91403714D01*
X52904571Y-91331143D01*
X52832000Y-91186000D01*
X52686857Y-91113429D01*
X52469143Y-91113429D01*
X52324000Y-91186000D01*
X50945143Y-92129429D02*
X50945143Y-91331143D01*
X51017714Y-91186000D01*
X51162857Y-91113429D01*
X51453143Y-91113429D01*
X51598286Y-91186000D01*
X50945143Y-92056857D02*
X51090286Y-92129429D01*
X51453143Y-92129429D01*
X51598286Y-92056857D01*
X51670857Y-91911714D01*
X51670857Y-91766571D01*
X51598286Y-91621429D01*
X51453143Y-91548857D01*
X51090286Y-91548857D01*
X50945143Y-91476286D01*
X50292000Y-92056857D02*
X50146857Y-92129429D01*
X49856572Y-92129429D01*
X49711429Y-92056857D01*
X49638857Y-91911714D01*
X49638857Y-91839143D01*
X49711429Y-91694000D01*
X49856572Y-91621429D01*
X50074286Y-91621429D01*
X50219429Y-91548857D01*
X50292000Y-91403714D01*
X50292000Y-91331143D01*
X50219429Y-91186000D01*
X50074286Y-91113429D01*
X49856572Y-91113429D01*
X49711429Y-91186000D01*
X49130858Y-91113429D02*
X48768001Y-92129429D01*
X48405143Y-91113429D02*
X48768001Y-92129429D01*
X48913143Y-92492286D01*
X48985715Y-92564857D01*
X49130858Y-92637429D01*
X47606858Y-92129429D02*
X47752000Y-92056857D01*
X47824572Y-91911714D01*
X47824572Y-90605429D01*
X46373143Y-91113429D02*
X46373143Y-92129429D01*
X47026286Y-91113429D02*
X47026286Y-91911714D01*
X46953714Y-92056857D01*
X46808572Y-92129429D01*
X46590857Y-92129429D01*
X46445714Y-92056857D01*
X46373143Y-91984286D01*
X45647429Y-92129429D02*
X45647429Y-91113429D01*
X45647429Y-91258571D02*
X45574857Y-91186000D01*
X45429715Y-91113429D01*
X45212000Y-91113429D01*
X45066857Y-91186000D01*
X44994286Y-91331143D01*
X44994286Y-92129429D01*
X44994286Y-91331143D02*
X44921715Y-91186000D01*
X44776572Y-91113429D01*
X44558857Y-91113429D01*
X44413715Y-91186000D01*
X44341143Y-91331143D01*
X44341143Y-92129429D01*
X43615429Y-91984286D02*
X43542857Y-92056857D01*
X43615429Y-92129429D01*
X43688000Y-92056857D01*
X43615429Y-91984286D01*
X43615429Y-92129429D01*
X42236572Y-92056857D02*
X42381715Y-92129429D01*
X42672001Y-92129429D01*
X42817143Y-92056857D01*
X42889715Y-91984286D01*
X42962286Y-91839143D01*
X42962286Y-91403714D01*
X42889715Y-91258571D01*
X42817143Y-91186000D01*
X42672001Y-91113429D01*
X42381715Y-91113429D01*
X42236572Y-91186000D01*
X41365715Y-92129429D02*
X41510857Y-92056857D01*
X41583429Y-91984286D01*
X41656000Y-91839143D01*
X41656000Y-91403714D01*
X41583429Y-91258571D01*
X41510857Y-91186000D01*
X41365715Y-91113429D01*
X41148000Y-91113429D01*
X41002857Y-91186000D01*
X40930286Y-91258571D01*
X40857715Y-91403714D01*
X40857715Y-91839143D01*
X40930286Y-91984286D01*
X41002857Y-92056857D01*
X41148000Y-92129429D01*
X41365715Y-92129429D01*
X40204572Y-92129429D02*
X40204572Y-91113429D01*
X40204572Y-91258571D02*
X40132000Y-91186000D01*
X39986858Y-91113429D01*
X39769143Y-91113429D01*
X39624000Y-91186000D01*
X39551429Y-91331143D01*
X39551429Y-92129429D01*
X39551429Y-91331143D02*
X39478858Y-91186000D01*
X39333715Y-91113429D01*
X39116000Y-91113429D01*
X38970858Y-91186000D01*
X38898286Y-91331143D01*
X38898286Y-92129429D01*
D15*
G36*
X58826371Y-81644066D02*
X58786889Y-81644467D01*
X58671200Y-81647259D01*
X58574311Y-81655550D01*
X58492919Y-81670232D01*
X58423723Y-81692193D01*
X58363420Y-81722322D01*
X58308708Y-81761510D01*
X58289167Y-81778532D01*
X58256750Y-81818363D01*
X58227520Y-81872413D01*
X58204991Y-81932323D01*
X58192679Y-81989739D01*
X58191400Y-82010956D01*
X58199417Y-82069769D01*
X58220899Y-82134013D01*
X58251999Y-82194821D01*
X58288866Y-82243330D01*
X58294854Y-82249182D01*
X58345579Y-82290321D01*
X58401125Y-82322435D01*
X58464696Y-82346365D01*
X58539494Y-82362953D01*
X58628722Y-82373041D01*
X58735582Y-82377469D01*
X58784528Y-82377845D01*
X58846762Y-82377545D01*
X58890528Y-82376292D01*
X58919931Y-82373554D01*
X58939079Y-82368801D01*
X58952077Y-82361501D01*
X58959045Y-82355267D01*
X58965626Y-82347694D01*
X58970788Y-82337924D01*
X58974703Y-82323340D01*
X58977543Y-82301326D01*
X58979480Y-82269264D01*
X58980684Y-82224536D01*
X58981328Y-82164526D01*
X58981583Y-82086617D01*
X58981622Y-82010956D01*
X58981870Y-81910041D01*
X58981817Y-81829427D01*
X58980857Y-81790822D01*
X58834867Y-81790822D01*
X58834867Y-82231089D01*
X58741734Y-82231004D01*
X58685693Y-82229396D01*
X58626999Y-82225256D01*
X58578028Y-82219464D01*
X58576538Y-82219226D01*
X58497392Y-82200090D01*
X58436002Y-82170287D01*
X58389305Y-82127878D01*
X58359635Y-82081961D01*
X58341353Y-82031026D01*
X58342771Y-81983200D01*
X58363988Y-81931933D01*
X58405489Y-81878899D01*
X58462998Y-81839600D01*
X58537750Y-81813331D01*
X58587708Y-81804035D01*
X58644416Y-81797507D01*
X58704519Y-81792782D01*
X58755639Y-81790817D01*
X58758667Y-81790808D01*
X58834867Y-81790822D01*
X58980857Y-81790822D01*
X58980260Y-81766851D01*
X58975998Y-81720055D01*
X58967830Y-81686778D01*
X58954556Y-81664759D01*
X58934974Y-81651739D01*
X58907883Y-81645457D01*
X58872082Y-81643653D01*
X58826371Y-81644066D01*
X58826371Y-81644066D01*
G37*
X58826371Y-81644066D02*
X58786889Y-81644467D01*
X58671200Y-81647259D01*
X58574311Y-81655550D01*
X58492919Y-81670232D01*
X58423723Y-81692193D01*
X58363420Y-81722322D01*
X58308708Y-81761510D01*
X58289167Y-81778532D01*
X58256750Y-81818363D01*
X58227520Y-81872413D01*
X58204991Y-81932323D01*
X58192679Y-81989739D01*
X58191400Y-82010956D01*
X58199417Y-82069769D01*
X58220899Y-82134013D01*
X58251999Y-82194821D01*
X58288866Y-82243330D01*
X58294854Y-82249182D01*
X58345579Y-82290321D01*
X58401125Y-82322435D01*
X58464696Y-82346365D01*
X58539494Y-82362953D01*
X58628722Y-82373041D01*
X58735582Y-82377469D01*
X58784528Y-82377845D01*
X58846762Y-82377545D01*
X58890528Y-82376292D01*
X58919931Y-82373554D01*
X58939079Y-82368801D01*
X58952077Y-82361501D01*
X58959045Y-82355267D01*
X58965626Y-82347694D01*
X58970788Y-82337924D01*
X58974703Y-82323340D01*
X58977543Y-82301326D01*
X58979480Y-82269264D01*
X58980684Y-82224536D01*
X58981328Y-82164526D01*
X58981583Y-82086617D01*
X58981622Y-82010956D01*
X58981870Y-81910041D01*
X58981817Y-81829427D01*
X58980857Y-81790822D01*
X58834867Y-81790822D01*
X58834867Y-82231089D01*
X58741734Y-82231004D01*
X58685693Y-82229396D01*
X58626999Y-82225256D01*
X58578028Y-82219464D01*
X58576538Y-82219226D01*
X58497392Y-82200090D01*
X58436002Y-82170287D01*
X58389305Y-82127878D01*
X58359635Y-82081961D01*
X58341353Y-82031026D01*
X58342771Y-81983200D01*
X58363988Y-81931933D01*
X58405489Y-81878899D01*
X58462998Y-81839600D01*
X58537750Y-81813331D01*
X58587708Y-81804035D01*
X58644416Y-81797507D01*
X58704519Y-81792782D01*
X58755639Y-81790817D01*
X58758667Y-81790808D01*
X58834867Y-81790822D01*
X58980857Y-81790822D01*
X58980260Y-81766851D01*
X58975998Y-81720055D01*
X58967830Y-81686778D01*
X58954556Y-81664759D01*
X58934974Y-81651739D01*
X58907883Y-81645457D01*
X58872082Y-81643653D01*
X58826371Y-81644066D01*
G36*
X57417794Y-81644146D02*
X57348386Y-81644518D01*
X57295997Y-81645385D01*
X57257847Y-81646946D01*
X57231159Y-81649403D01*
X57213153Y-81652957D01*
X57201049Y-81657810D01*
X57192069Y-81664161D01*
X57188818Y-81667084D01*
X57169043Y-81698142D01*
X57165482Y-81733828D01*
X57178491Y-81765510D01*
X57184506Y-81771913D01*
X57194235Y-81778121D01*
X57209901Y-81782910D01*
X57234408Y-81786514D01*
X57270661Y-81789164D01*
X57321565Y-81791095D01*
X57390026Y-81792539D01*
X57452617Y-81793418D01*
X57700334Y-81796467D01*
X57703719Y-81861378D01*
X57707105Y-81926289D01*
X57538958Y-81926289D01*
X57465959Y-81926919D01*
X57412517Y-81929553D01*
X57375628Y-81935309D01*
X57352288Y-81945304D01*
X57339494Y-81960656D01*
X57334242Y-81982482D01*
X57333445Y-82002738D01*
X57335923Y-82027592D01*
X57345277Y-82045906D01*
X57364383Y-82058637D01*
X57396118Y-82066741D01*
X57443359Y-82071176D01*
X57508983Y-82072899D01*
X57544801Y-82073045D01*
X57705978Y-82073045D01*
X57705978Y-82231089D01*
X57457622Y-82231089D01*
X57376213Y-82231202D01*
X57314342Y-82231712D01*
X57268968Y-82232870D01*
X57237054Y-82234930D01*
X57215559Y-82238146D01*
X57201443Y-82242772D01*
X57191668Y-82249059D01*
X57186689Y-82253667D01*
X57169610Y-82280560D01*
X57164111Y-82304467D01*
X57171963Y-82333667D01*
X57186689Y-82355267D01*
X57194546Y-82362066D01*
X57204688Y-82367346D01*
X57219844Y-82371298D01*
X57242741Y-82374113D01*
X57276109Y-82375982D01*
X57322675Y-82377098D01*
X57385167Y-82377651D01*
X57466314Y-82377833D01*
X57508422Y-82377845D01*
X57598598Y-82377765D01*
X57668924Y-82377398D01*
X57722129Y-82376552D01*
X57760940Y-82375036D01*
X57788087Y-82372659D01*
X57806298Y-82369229D01*
X57818300Y-82364554D01*
X57826822Y-82358444D01*
X57830156Y-82355267D01*
X57836755Y-82347670D01*
X57841927Y-82337870D01*
X57845846Y-82323239D01*
X57848684Y-82301152D01*
X57850615Y-82268982D01*
X57851812Y-82224103D01*
X57852448Y-82163889D01*
X57852697Y-82085713D01*
X57852734Y-82012923D01*
X57852700Y-81919707D01*
X57852465Y-81846431D01*
X57851830Y-81790458D01*
X57850594Y-81749151D01*
X57848556Y-81719872D01*
X57845517Y-81699984D01*
X57841277Y-81686850D01*
X57835635Y-81677832D01*
X57828391Y-81670293D01*
X57826606Y-81668612D01*
X57817945Y-81661172D01*
X57807882Y-81655409D01*
X57793625Y-81651112D01*
X57772383Y-81648064D01*
X57741364Y-81646051D01*
X57697777Y-81644860D01*
X57638831Y-81644275D01*
X57561734Y-81644083D01*
X57507001Y-81644067D01*
X57417794Y-81644146D01*
X57417794Y-81644146D01*
G37*
X57417794Y-81644146D02*
X57348386Y-81644518D01*
X57295997Y-81645385D01*
X57257847Y-81646946D01*
X57231159Y-81649403D01*
X57213153Y-81652957D01*
X57201049Y-81657810D01*
X57192069Y-81664161D01*
X57188818Y-81667084D01*
X57169043Y-81698142D01*
X57165482Y-81733828D01*
X57178491Y-81765510D01*
X57184506Y-81771913D01*
X57194235Y-81778121D01*
X57209901Y-81782910D01*
X57234408Y-81786514D01*
X57270661Y-81789164D01*
X57321565Y-81791095D01*
X57390026Y-81792539D01*
X57452617Y-81793418D01*
X57700334Y-81796467D01*
X57703719Y-81861378D01*
X57707105Y-81926289D01*
X57538958Y-81926289D01*
X57465959Y-81926919D01*
X57412517Y-81929553D01*
X57375628Y-81935309D01*
X57352288Y-81945304D01*
X57339494Y-81960656D01*
X57334242Y-81982482D01*
X57333445Y-82002738D01*
X57335923Y-82027592D01*
X57345277Y-82045906D01*
X57364383Y-82058637D01*
X57396118Y-82066741D01*
X57443359Y-82071176D01*
X57508983Y-82072899D01*
X57544801Y-82073045D01*
X57705978Y-82073045D01*
X57705978Y-82231089D01*
X57457622Y-82231089D01*
X57376213Y-82231202D01*
X57314342Y-82231712D01*
X57268968Y-82232870D01*
X57237054Y-82234930D01*
X57215559Y-82238146D01*
X57201443Y-82242772D01*
X57191668Y-82249059D01*
X57186689Y-82253667D01*
X57169610Y-82280560D01*
X57164111Y-82304467D01*
X57171963Y-82333667D01*
X57186689Y-82355267D01*
X57194546Y-82362066D01*
X57204688Y-82367346D01*
X57219844Y-82371298D01*
X57242741Y-82374113D01*
X57276109Y-82375982D01*
X57322675Y-82377098D01*
X57385167Y-82377651D01*
X57466314Y-82377833D01*
X57508422Y-82377845D01*
X57598598Y-82377765D01*
X57668924Y-82377398D01*
X57722129Y-82376552D01*
X57760940Y-82375036D01*
X57788087Y-82372659D01*
X57806298Y-82369229D01*
X57818300Y-82364554D01*
X57826822Y-82358444D01*
X57830156Y-82355267D01*
X57836755Y-82347670D01*
X57841927Y-82337870D01*
X57845846Y-82323239D01*
X57848684Y-82301152D01*
X57850615Y-82268982D01*
X57851812Y-82224103D01*
X57852448Y-82163889D01*
X57852697Y-82085713D01*
X57852734Y-82012923D01*
X57852700Y-81919707D01*
X57852465Y-81846431D01*
X57851830Y-81790458D01*
X57850594Y-81749151D01*
X57848556Y-81719872D01*
X57845517Y-81699984D01*
X57841277Y-81686850D01*
X57835635Y-81677832D01*
X57828391Y-81670293D01*
X57826606Y-81668612D01*
X57817945Y-81661172D01*
X57807882Y-81655409D01*
X57793625Y-81651112D01*
X57772383Y-81648064D01*
X57741364Y-81646051D01*
X57697777Y-81644860D01*
X57638831Y-81644275D01*
X57561734Y-81644083D01*
X57507001Y-81644067D01*
X57417794Y-81644146D01*
G36*
X56396703Y-81645351D02*
X56321888Y-81650581D01*
X56252306Y-81658750D01*
X56192002Y-81669550D01*
X56145020Y-81682673D01*
X56115406Y-81697813D01*
X56110860Y-81702269D01*
X56095054Y-81736850D01*
X56099847Y-81772351D01*
X56124364Y-81802725D01*
X56125534Y-81803596D01*
X56139954Y-81812954D01*
X56155008Y-81817876D01*
X56176005Y-81818473D01*
X56208257Y-81814861D01*
X56257073Y-81807154D01*
X56261000Y-81806505D01*
X56333739Y-81797569D01*
X56412217Y-81793161D01*
X56490927Y-81793119D01*
X56564361Y-81797279D01*
X56627011Y-81805479D01*
X56673370Y-81817557D01*
X56676416Y-81818771D01*
X56710048Y-81837615D01*
X56721864Y-81856685D01*
X56712614Y-81875439D01*
X56683047Y-81893337D01*
X56633911Y-81909837D01*
X56565957Y-81924396D01*
X56520645Y-81931406D01*
X56426456Y-81944889D01*
X56351544Y-81957214D01*
X56292717Y-81969449D01*
X56246785Y-81982661D01*
X56210555Y-81997917D01*
X56180838Y-82016285D01*
X56154442Y-82038831D01*
X56133230Y-82060971D01*
X56108065Y-82091819D01*
X56095681Y-82118345D01*
X56091808Y-82151026D01*
X56091667Y-82162995D01*
X56094576Y-82202712D01*
X56106202Y-82232259D01*
X56126323Y-82258486D01*
X56167216Y-82298576D01*
X56212817Y-82329149D01*
X56266513Y-82351203D01*
X56331692Y-82365735D01*
X56411744Y-82373741D01*
X56510057Y-82376218D01*
X56526289Y-82376177D01*
X56591849Y-82374818D01*
X56656866Y-82371730D01*
X56714252Y-82367356D01*
X56756922Y-82362140D01*
X56760372Y-82361541D01*
X56802796Y-82351491D01*
X56838780Y-82338796D01*
X56859150Y-82327190D01*
X56878107Y-82296572D01*
X56879427Y-82260918D01*
X56863085Y-82229144D01*
X56859429Y-82225551D01*
X56844315Y-82214876D01*
X56825415Y-82210276D01*
X56796162Y-82211059D01*
X56760651Y-82215127D01*
X56720970Y-82218762D01*
X56665345Y-82221828D01*
X56600406Y-82224053D01*
X56532785Y-82225164D01*
X56515000Y-82225237D01*
X56447128Y-82224964D01*
X56397454Y-82223646D01*
X56361610Y-82220827D01*
X56335224Y-82216050D01*
X56313926Y-82208857D01*
X56301126Y-82202867D01*
X56273000Y-82186233D01*
X56255068Y-82171168D01*
X56252447Y-82166897D01*
X56257976Y-82149263D01*
X56284260Y-82132192D01*
X56329478Y-82116458D01*
X56391808Y-82102838D01*
X56410171Y-82099804D01*
X56506090Y-82084738D01*
X56582641Y-82072146D01*
X56642780Y-82061111D01*
X56689460Y-82050720D01*
X56725637Y-82040056D01*
X56754265Y-82028205D01*
X56778298Y-82014251D01*
X56800692Y-81997281D01*
X56824402Y-81976378D01*
X56832380Y-81969049D01*
X56860353Y-81941699D01*
X56875160Y-81920029D01*
X56880952Y-81895232D01*
X56881889Y-81863983D01*
X56871575Y-81802705D01*
X56840752Y-81750640D01*
X56789595Y-81707958D01*
X56718283Y-81674825D01*
X56667400Y-81659964D01*
X56612100Y-81650366D01*
X56545853Y-81644936D01*
X56472706Y-81643367D01*
X56396703Y-81645351D01*
X56396703Y-81645351D01*
G37*
X56396703Y-81645351D02*
X56321888Y-81650581D01*
X56252306Y-81658750D01*
X56192002Y-81669550D01*
X56145020Y-81682673D01*
X56115406Y-81697813D01*
X56110860Y-81702269D01*
X56095054Y-81736850D01*
X56099847Y-81772351D01*
X56124364Y-81802725D01*
X56125534Y-81803596D01*
X56139954Y-81812954D01*
X56155008Y-81817876D01*
X56176005Y-81818473D01*
X56208257Y-81814861D01*
X56257073Y-81807154D01*
X56261000Y-81806505D01*
X56333739Y-81797569D01*
X56412217Y-81793161D01*
X56490927Y-81793119D01*
X56564361Y-81797279D01*
X56627011Y-81805479D01*
X56673370Y-81817557D01*
X56676416Y-81818771D01*
X56710048Y-81837615D01*
X56721864Y-81856685D01*
X56712614Y-81875439D01*
X56683047Y-81893337D01*
X56633911Y-81909837D01*
X56565957Y-81924396D01*
X56520645Y-81931406D01*
X56426456Y-81944889D01*
X56351544Y-81957214D01*
X56292717Y-81969449D01*
X56246785Y-81982661D01*
X56210555Y-81997917D01*
X56180838Y-82016285D01*
X56154442Y-82038831D01*
X56133230Y-82060971D01*
X56108065Y-82091819D01*
X56095681Y-82118345D01*
X56091808Y-82151026D01*
X56091667Y-82162995D01*
X56094576Y-82202712D01*
X56106202Y-82232259D01*
X56126323Y-82258486D01*
X56167216Y-82298576D01*
X56212817Y-82329149D01*
X56266513Y-82351203D01*
X56331692Y-82365735D01*
X56411744Y-82373741D01*
X56510057Y-82376218D01*
X56526289Y-82376177D01*
X56591849Y-82374818D01*
X56656866Y-82371730D01*
X56714252Y-82367356D01*
X56756922Y-82362140D01*
X56760372Y-82361541D01*
X56802796Y-82351491D01*
X56838780Y-82338796D01*
X56859150Y-82327190D01*
X56878107Y-82296572D01*
X56879427Y-82260918D01*
X56863085Y-82229144D01*
X56859429Y-82225551D01*
X56844315Y-82214876D01*
X56825415Y-82210276D01*
X56796162Y-82211059D01*
X56760651Y-82215127D01*
X56720970Y-82218762D01*
X56665345Y-82221828D01*
X56600406Y-82224053D01*
X56532785Y-82225164D01*
X56515000Y-82225237D01*
X56447128Y-82224964D01*
X56397454Y-82223646D01*
X56361610Y-82220827D01*
X56335224Y-82216050D01*
X56313926Y-82208857D01*
X56301126Y-82202867D01*
X56273000Y-82186233D01*
X56255068Y-82171168D01*
X56252447Y-82166897D01*
X56257976Y-82149263D01*
X56284260Y-82132192D01*
X56329478Y-82116458D01*
X56391808Y-82102838D01*
X56410171Y-82099804D01*
X56506090Y-82084738D01*
X56582641Y-82072146D01*
X56642780Y-82061111D01*
X56689460Y-82050720D01*
X56725637Y-82040056D01*
X56754265Y-82028205D01*
X56778298Y-82014251D01*
X56800692Y-81997281D01*
X56824402Y-81976378D01*
X56832380Y-81969049D01*
X56860353Y-81941699D01*
X56875160Y-81920029D01*
X56880952Y-81895232D01*
X56881889Y-81863983D01*
X56871575Y-81802705D01*
X56840752Y-81750640D01*
X56789595Y-81707958D01*
X56718283Y-81674825D01*
X56667400Y-81659964D01*
X56612100Y-81650366D01*
X56545853Y-81644936D01*
X56472706Y-81643367D01*
X56396703Y-81645351D01*
G36*
X55628822Y-81666645D02*
X55622242Y-81674218D01*
X55617079Y-81683987D01*
X55613164Y-81698571D01*
X55610324Y-81720585D01*
X55608387Y-81752648D01*
X55607183Y-81797375D01*
X55606539Y-81857385D01*
X55606284Y-81935294D01*
X55606245Y-82010956D01*
X55606314Y-82104802D01*
X55606638Y-82178689D01*
X55607386Y-82235232D01*
X55608732Y-82277049D01*
X55610846Y-82306757D01*
X55613900Y-82326973D01*
X55618066Y-82340314D01*
X55623516Y-82349398D01*
X55628822Y-82355267D01*
X55661826Y-82374947D01*
X55696991Y-82373181D01*
X55728455Y-82351717D01*
X55735684Y-82343337D01*
X55741334Y-82333614D01*
X55745599Y-82319861D01*
X55748673Y-82299389D01*
X55750752Y-82269512D01*
X55752030Y-82227541D01*
X55752701Y-82170789D01*
X55752959Y-82096567D01*
X55753000Y-82012537D01*
X55753000Y-81699485D01*
X55725291Y-81671776D01*
X55691137Y-81648463D01*
X55658006Y-81647623D01*
X55628822Y-81666645D01*
X55628822Y-81666645D01*
G37*
X55628822Y-81666645D02*
X55622242Y-81674218D01*
X55617079Y-81683987D01*
X55613164Y-81698571D01*
X55610324Y-81720585D01*
X55608387Y-81752648D01*
X55607183Y-81797375D01*
X55606539Y-81857385D01*
X55606284Y-81935294D01*
X55606245Y-82010956D01*
X55606314Y-82104802D01*
X55606638Y-82178689D01*
X55607386Y-82235232D01*
X55608732Y-82277049D01*
X55610846Y-82306757D01*
X55613900Y-82326973D01*
X55618066Y-82340314D01*
X55623516Y-82349398D01*
X55628822Y-82355267D01*
X55661826Y-82374947D01*
X55696991Y-82373181D01*
X55728455Y-82351717D01*
X55735684Y-82343337D01*
X55741334Y-82333614D01*
X55745599Y-82319861D01*
X55748673Y-82299389D01*
X55750752Y-82269512D01*
X55752030Y-82227541D01*
X55752701Y-82170789D01*
X55752959Y-82096567D01*
X55753000Y-82012537D01*
X55753000Y-81699485D01*
X55725291Y-81671776D01*
X55691137Y-81648463D01*
X55658006Y-81647623D01*
X55628822Y-81666645D01*
G36*
X54655081Y-81649599D02*
X54586565Y-81661095D01*
X54533943Y-81678967D01*
X54499708Y-81702499D01*
X54490379Y-81715924D01*
X54480893Y-81747148D01*
X54487277Y-81775395D01*
X54507430Y-81802182D01*
X54538745Y-81814713D01*
X54584183Y-81813696D01*
X54619326Y-81806906D01*
X54697419Y-81793971D01*
X54777226Y-81792742D01*
X54866555Y-81803241D01*
X54891229Y-81807690D01*
X54974291Y-81831108D01*
X55039273Y-81865945D01*
X55085461Y-81911604D01*
X55112145Y-81967494D01*
X55117663Y-81996388D01*
X55114051Y-82055012D01*
X55090729Y-82106879D01*
X55049824Y-82150978D01*
X54993459Y-82186299D01*
X54923760Y-82211829D01*
X54842852Y-82226559D01*
X54752860Y-82229478D01*
X54655910Y-82219575D01*
X54650436Y-82218641D01*
X54611875Y-82211459D01*
X54590494Y-82204521D01*
X54581227Y-82194227D01*
X54579006Y-82176976D01*
X54578956Y-82167841D01*
X54578956Y-82129489D01*
X54647431Y-82129489D01*
X54707900Y-82125347D01*
X54749165Y-82112147D01*
X54773175Y-82088730D01*
X54781877Y-82053936D01*
X54781983Y-82049394D01*
X54776892Y-82019654D01*
X54759433Y-81998419D01*
X54726939Y-81984366D01*
X54676743Y-81976173D01*
X54628123Y-81973161D01*
X54557456Y-81971433D01*
X54506198Y-81974070D01*
X54471239Y-81983800D01*
X54449470Y-82003353D01*
X54437780Y-82035456D01*
X54433060Y-82082838D01*
X54432200Y-82145071D01*
X54433609Y-82214535D01*
X54437848Y-82261786D01*
X54444936Y-82287012D01*
X54446311Y-82288988D01*
X54485228Y-82320508D01*
X54542286Y-82345470D01*
X54613869Y-82363340D01*
X54696358Y-82373586D01*
X54786139Y-82375673D01*
X54879592Y-82369068D01*
X54934556Y-82360956D01*
X55020766Y-82336554D01*
X55100892Y-82296662D01*
X55167977Y-82244887D01*
X55178173Y-82234539D01*
X55211302Y-82191035D01*
X55241194Y-82137118D01*
X55264357Y-82080592D01*
X55277298Y-82029259D01*
X55278858Y-82009544D01*
X55272218Y-81968419D01*
X55254568Y-81917252D01*
X55229297Y-81863394D01*
X55199789Y-81814195D01*
X55173719Y-81781334D01*
X55112765Y-81732452D01*
X55033969Y-81693545D01*
X54940157Y-81665494D01*
X54834150Y-81649179D01*
X54737000Y-81645192D01*
X54655081Y-81649599D01*
X54655081Y-81649599D01*
G37*
X54655081Y-81649599D02*
X54586565Y-81661095D01*
X54533943Y-81678967D01*
X54499708Y-81702499D01*
X54490379Y-81715924D01*
X54480893Y-81747148D01*
X54487277Y-81775395D01*
X54507430Y-81802182D01*
X54538745Y-81814713D01*
X54584183Y-81813696D01*
X54619326Y-81806906D01*
X54697419Y-81793971D01*
X54777226Y-81792742D01*
X54866555Y-81803241D01*
X54891229Y-81807690D01*
X54974291Y-81831108D01*
X55039273Y-81865945D01*
X55085461Y-81911604D01*
X55112145Y-81967494D01*
X55117663Y-81996388D01*
X55114051Y-82055012D01*
X55090729Y-82106879D01*
X55049824Y-82150978D01*
X54993459Y-82186299D01*
X54923760Y-82211829D01*
X54842852Y-82226559D01*
X54752860Y-82229478D01*
X54655910Y-82219575D01*
X54650436Y-82218641D01*
X54611875Y-82211459D01*
X54590494Y-82204521D01*
X54581227Y-82194227D01*
X54579006Y-82176976D01*
X54578956Y-82167841D01*
X54578956Y-82129489D01*
X54647431Y-82129489D01*
X54707900Y-82125347D01*
X54749165Y-82112147D01*
X54773175Y-82088730D01*
X54781877Y-82053936D01*
X54781983Y-82049394D01*
X54776892Y-82019654D01*
X54759433Y-81998419D01*
X54726939Y-81984366D01*
X54676743Y-81976173D01*
X54628123Y-81973161D01*
X54557456Y-81971433D01*
X54506198Y-81974070D01*
X54471239Y-81983800D01*
X54449470Y-82003353D01*
X54437780Y-82035456D01*
X54433060Y-82082838D01*
X54432200Y-82145071D01*
X54433609Y-82214535D01*
X54437848Y-82261786D01*
X54444936Y-82287012D01*
X54446311Y-82288988D01*
X54485228Y-82320508D01*
X54542286Y-82345470D01*
X54613869Y-82363340D01*
X54696358Y-82373586D01*
X54786139Y-82375673D01*
X54879592Y-82369068D01*
X54934556Y-82360956D01*
X55020766Y-82336554D01*
X55100892Y-82296662D01*
X55167977Y-82244887D01*
X55178173Y-82234539D01*
X55211302Y-82191035D01*
X55241194Y-82137118D01*
X55264357Y-82080592D01*
X55277298Y-82029259D01*
X55278858Y-82009544D01*
X55272218Y-81968419D01*
X55254568Y-81917252D01*
X55229297Y-81863394D01*
X55199789Y-81814195D01*
X55173719Y-81781334D01*
X55112765Y-81732452D01*
X55033969Y-81693545D01*
X54940157Y-81665494D01*
X54834150Y-81649179D01*
X54737000Y-81645192D01*
X54655081Y-81649599D01*
G36*
X54005114Y-81648448D02*
X53981548Y-81662273D01*
X53950735Y-81684881D01*
X53911078Y-81717338D01*
X53860980Y-81760708D01*
X53798843Y-81816058D01*
X53723072Y-81884451D01*
X53636334Y-81963084D01*
X53455711Y-82126878D01*
X53450067Y-81907029D01*
X53448029Y-81831351D01*
X53446063Y-81774994D01*
X53443734Y-81734706D01*
X53440606Y-81707235D01*
X53436245Y-81689329D01*
X53430216Y-81677737D01*
X53422084Y-81669208D01*
X53417772Y-81665623D01*
X53383241Y-81646670D01*
X53350383Y-81649441D01*
X53324318Y-81665633D01*
X53297667Y-81687199D01*
X53294352Y-82002151D01*
X53293435Y-82094779D01*
X53292968Y-82167544D01*
X53293113Y-82223161D01*
X53294032Y-82264342D01*
X53295887Y-82293803D01*
X53298839Y-82314255D01*
X53303050Y-82328413D01*
X53308682Y-82338991D01*
X53314927Y-82347474D01*
X53328439Y-82363207D01*
X53341883Y-82373636D01*
X53357124Y-82377639D01*
X53376026Y-82374094D01*
X53400455Y-82361879D01*
X53432273Y-82339871D01*
X53473348Y-82306949D01*
X53525542Y-82261991D01*
X53590722Y-82203875D01*
X53664556Y-82137099D01*
X53929845Y-81896458D01*
X53935489Y-82115589D01*
X53937531Y-82191128D01*
X53939502Y-82247354D01*
X53941839Y-82287524D01*
X53944981Y-82314896D01*
X53949364Y-82332728D01*
X53955424Y-82344279D01*
X53963600Y-82352807D01*
X53967784Y-82356282D01*
X54004765Y-82375372D01*
X54039708Y-82372493D01*
X54070136Y-82348100D01*
X54077097Y-82338286D01*
X54082523Y-82326826D01*
X54086603Y-82310968D01*
X54089529Y-82287963D01*
X54091492Y-82255062D01*
X54092683Y-82209516D01*
X54093292Y-82148573D01*
X54093511Y-82069486D01*
X54093534Y-82010956D01*
X54093460Y-81919407D01*
X54093113Y-81847687D01*
X54092301Y-81793045D01*
X54090833Y-81752732D01*
X54088519Y-81723998D01*
X54085167Y-81704093D01*
X54080588Y-81690268D01*
X54074589Y-81679772D01*
X54070136Y-81673811D01*
X54058850Y-81659691D01*
X54048301Y-81649029D01*
X54036893Y-81642892D01*
X54023030Y-81642343D01*
X54005114Y-81648448D01*
X54005114Y-81648448D01*
G37*
X54005114Y-81648448D02*
X53981548Y-81662273D01*
X53950735Y-81684881D01*
X53911078Y-81717338D01*
X53860980Y-81760708D01*
X53798843Y-81816058D01*
X53723072Y-81884451D01*
X53636334Y-81963084D01*
X53455711Y-82126878D01*
X53450067Y-81907029D01*
X53448029Y-81831351D01*
X53446063Y-81774994D01*
X53443734Y-81734706D01*
X53440606Y-81707235D01*
X53436245Y-81689329D01*
X53430216Y-81677737D01*
X53422084Y-81669208D01*
X53417772Y-81665623D01*
X53383241Y-81646670D01*
X53350383Y-81649441D01*
X53324318Y-81665633D01*
X53297667Y-81687199D01*
X53294352Y-82002151D01*
X53293435Y-82094779D01*
X53292968Y-82167544D01*
X53293113Y-82223161D01*
X53294032Y-82264342D01*
X53295887Y-82293803D01*
X53298839Y-82314255D01*
X53303050Y-82328413D01*
X53308682Y-82338991D01*
X53314927Y-82347474D01*
X53328439Y-82363207D01*
X53341883Y-82373636D01*
X53357124Y-82377639D01*
X53376026Y-82374094D01*
X53400455Y-82361879D01*
X53432273Y-82339871D01*
X53473348Y-82306949D01*
X53525542Y-82261991D01*
X53590722Y-82203875D01*
X53664556Y-82137099D01*
X53929845Y-81896458D01*
X53935489Y-82115589D01*
X53937531Y-82191128D01*
X53939502Y-82247354D01*
X53941839Y-82287524D01*
X53944981Y-82314896D01*
X53949364Y-82332728D01*
X53955424Y-82344279D01*
X53963600Y-82352807D01*
X53967784Y-82356282D01*
X54004765Y-82375372D01*
X54039708Y-82372493D01*
X54070136Y-82348100D01*
X54077097Y-82338286D01*
X54082523Y-82326826D01*
X54086603Y-82310968D01*
X54089529Y-82287963D01*
X54091492Y-82255062D01*
X54092683Y-82209516D01*
X54093292Y-82148573D01*
X54093511Y-82069486D01*
X54093534Y-82010956D01*
X54093460Y-81919407D01*
X54093113Y-81847687D01*
X54092301Y-81793045D01*
X54090833Y-81752732D01*
X54088519Y-81723998D01*
X54085167Y-81704093D01*
X54080588Y-81690268D01*
X54074589Y-81679772D01*
X54070136Y-81673811D01*
X54058850Y-81659691D01*
X54048301Y-81649029D01*
X54036893Y-81642892D01*
X54023030Y-81642343D01*
X54005114Y-81648448D01*
G36*
X52474657Y-81644260D02*
X52398299Y-81645174D01*
X52339783Y-81647311D01*
X52296745Y-81651175D01*
X52266817Y-81657267D01*
X52247632Y-81666090D01*
X52236824Y-81678146D01*
X52232027Y-81693939D01*
X52230873Y-81713970D01*
X52230867Y-81716335D01*
X52231869Y-81738992D01*
X52236604Y-81756503D01*
X52247667Y-81769574D01*
X52267652Y-81778913D01*
X52299154Y-81785227D01*
X52344768Y-81789222D01*
X52407087Y-81791606D01*
X52488707Y-81793086D01*
X52513723Y-81793414D01*
X52755800Y-81796467D01*
X52759186Y-81861378D01*
X52762571Y-81926289D01*
X52594424Y-81926289D01*
X52528734Y-81926531D01*
X52481828Y-81927556D01*
X52449917Y-81929811D01*
X52429209Y-81933742D01*
X52415916Y-81939798D01*
X52406245Y-81948424D01*
X52406183Y-81948493D01*
X52388644Y-81982112D01*
X52389278Y-82018448D01*
X52407686Y-82049423D01*
X52411329Y-82052607D01*
X52424259Y-82060812D01*
X52441976Y-82066521D01*
X52468430Y-82070162D01*
X52507568Y-82072167D01*
X52563338Y-82072964D01*
X52599006Y-82073045D01*
X52761445Y-82073045D01*
X52761445Y-82231089D01*
X52514839Y-82231089D01*
X52433420Y-82231231D01*
X52371590Y-82231814D01*
X52326363Y-82233068D01*
X52294752Y-82235227D01*
X52273769Y-82238523D01*
X52260427Y-82243189D01*
X52251739Y-82249457D01*
X52249550Y-82251733D01*
X52233386Y-82283280D01*
X52232203Y-82319168D01*
X52245464Y-82350285D01*
X52255957Y-82360271D01*
X52266871Y-82365769D01*
X52283783Y-82370022D01*
X52309367Y-82373180D01*
X52346299Y-82375392D01*
X52397254Y-82376806D01*
X52464906Y-82377572D01*
X52551931Y-82377838D01*
X52571606Y-82377845D01*
X52660089Y-82377787D01*
X52728773Y-82377467D01*
X52780436Y-82376667D01*
X52817855Y-82375167D01*
X52843810Y-82372749D01*
X52861078Y-82369194D01*
X52872438Y-82364282D01*
X52880668Y-82357795D01*
X52885183Y-82353138D01*
X52891979Y-82344889D01*
X52897288Y-82334669D01*
X52901294Y-82319800D01*
X52904179Y-82297602D01*
X52906126Y-82265393D01*
X52907319Y-82220496D01*
X52907939Y-82160228D01*
X52908171Y-82081911D01*
X52908200Y-82015994D01*
X52908129Y-81923628D01*
X52907792Y-81851117D01*
X52907002Y-81795737D01*
X52905574Y-81754765D01*
X52903321Y-81725478D01*
X52900057Y-81705153D01*
X52895596Y-81691066D01*
X52889752Y-81680495D01*
X52884803Y-81673811D01*
X52861406Y-81644067D01*
X52571226Y-81644067D01*
X52474657Y-81644260D01*
X52474657Y-81644260D01*
G37*
X52474657Y-81644260D02*
X52398299Y-81645174D01*
X52339783Y-81647311D01*
X52296745Y-81651175D01*
X52266817Y-81657267D01*
X52247632Y-81666090D01*
X52236824Y-81678146D01*
X52232027Y-81693939D01*
X52230873Y-81713970D01*
X52230867Y-81716335D01*
X52231869Y-81738992D01*
X52236604Y-81756503D01*
X52247667Y-81769574D01*
X52267652Y-81778913D01*
X52299154Y-81785227D01*
X52344768Y-81789222D01*
X52407087Y-81791606D01*
X52488707Y-81793086D01*
X52513723Y-81793414D01*
X52755800Y-81796467D01*
X52759186Y-81861378D01*
X52762571Y-81926289D01*
X52594424Y-81926289D01*
X52528734Y-81926531D01*
X52481828Y-81927556D01*
X52449917Y-81929811D01*
X52429209Y-81933742D01*
X52415916Y-81939798D01*
X52406245Y-81948424D01*
X52406183Y-81948493D01*
X52388644Y-81982112D01*
X52389278Y-82018448D01*
X52407686Y-82049423D01*
X52411329Y-82052607D01*
X52424259Y-82060812D01*
X52441976Y-82066521D01*
X52468430Y-82070162D01*
X52507568Y-82072167D01*
X52563338Y-82072964D01*
X52599006Y-82073045D01*
X52761445Y-82073045D01*
X52761445Y-82231089D01*
X52514839Y-82231089D01*
X52433420Y-82231231D01*
X52371590Y-82231814D01*
X52326363Y-82233068D01*
X52294752Y-82235227D01*
X52273769Y-82238523D01*
X52260427Y-82243189D01*
X52251739Y-82249457D01*
X52249550Y-82251733D01*
X52233386Y-82283280D01*
X52232203Y-82319168D01*
X52245464Y-82350285D01*
X52255957Y-82360271D01*
X52266871Y-82365769D01*
X52283783Y-82370022D01*
X52309367Y-82373180D01*
X52346299Y-82375392D01*
X52397254Y-82376806D01*
X52464906Y-82377572D01*
X52551931Y-82377838D01*
X52571606Y-82377845D01*
X52660089Y-82377787D01*
X52728773Y-82377467D01*
X52780436Y-82376667D01*
X52817855Y-82375167D01*
X52843810Y-82372749D01*
X52861078Y-82369194D01*
X52872438Y-82364282D01*
X52880668Y-82357795D01*
X52885183Y-82353138D01*
X52891979Y-82344889D01*
X52897288Y-82334669D01*
X52901294Y-82319800D01*
X52904179Y-82297602D01*
X52906126Y-82265393D01*
X52907319Y-82220496D01*
X52907939Y-82160228D01*
X52908171Y-82081911D01*
X52908200Y-82015994D01*
X52908129Y-81923628D01*
X52907792Y-81851117D01*
X52907002Y-81795737D01*
X52905574Y-81754765D01*
X52903321Y-81725478D01*
X52900057Y-81705153D01*
X52895596Y-81691066D01*
X52889752Y-81680495D01*
X52884803Y-81673811D01*
X52861406Y-81644067D01*
X52571226Y-81644067D01*
X52474657Y-81644260D01*
G36*
X51686691Y-81644275D02*
X51557712Y-81648636D01*
X51448009Y-81661861D01*
X51355774Y-81684741D01*
X51279198Y-81718070D01*
X51216473Y-81762638D01*
X51165788Y-81819236D01*
X51125337Y-81888658D01*
X51124541Y-81890351D01*
X51100399Y-81952483D01*
X51091797Y-82007509D01*
X51098769Y-82062887D01*
X51121346Y-82126073D01*
X51125628Y-82135689D01*
X51154828Y-82191966D01*
X51187644Y-82235451D01*
X51229998Y-82272417D01*
X51287810Y-82309135D01*
X51291169Y-82311052D01*
X51341496Y-82335227D01*
X51398379Y-82353282D01*
X51465473Y-82365839D01*
X51546435Y-82373522D01*
X51644918Y-82376953D01*
X51679714Y-82377251D01*
X51845406Y-82377845D01*
X51868803Y-82348100D01*
X51875743Y-82338319D01*
X51881158Y-82326897D01*
X51885235Y-82311095D01*
X51888163Y-82288175D01*
X51890133Y-82255396D01*
X51890775Y-82231089D01*
X51734156Y-82231089D01*
X51640274Y-82231089D01*
X51585336Y-82229483D01*
X51528940Y-82225255D01*
X51482655Y-82219292D01*
X51479861Y-82218790D01*
X51397652Y-82196736D01*
X51333886Y-82163600D01*
X51286548Y-82117847D01*
X51253618Y-82057939D01*
X51247892Y-82042061D01*
X51242279Y-82017333D01*
X51244709Y-81992902D01*
X51256533Y-81960400D01*
X51263660Y-81944434D01*
X51287000Y-81902006D01*
X51315120Y-81872240D01*
X51346060Y-81851511D01*
X51408034Y-81824537D01*
X51487349Y-81804998D01*
X51579747Y-81793746D01*
X51646667Y-81791270D01*
X51734156Y-81790822D01*
X51734156Y-82231089D01*
X51890775Y-82231089D01*
X51891332Y-82210021D01*
X51891950Y-82149311D01*
X51892175Y-82070526D01*
X51892200Y-82008920D01*
X51892200Y-81699485D01*
X51864491Y-81671776D01*
X51852194Y-81660544D01*
X51838897Y-81652853D01*
X51820328Y-81648040D01*
X51792214Y-81645446D01*
X51750283Y-81644410D01*
X51690263Y-81644270D01*
X51686691Y-81644275D01*
X51686691Y-81644275D01*
G37*
X51686691Y-81644275D02*
X51557712Y-81648636D01*
X51448009Y-81661861D01*
X51355774Y-81684741D01*
X51279198Y-81718070D01*
X51216473Y-81762638D01*
X51165788Y-81819236D01*
X51125337Y-81888658D01*
X51124541Y-81890351D01*
X51100399Y-81952483D01*
X51091797Y-82007509D01*
X51098769Y-82062887D01*
X51121346Y-82126073D01*
X51125628Y-82135689D01*
X51154828Y-82191966D01*
X51187644Y-82235451D01*
X51229998Y-82272417D01*
X51287810Y-82309135D01*
X51291169Y-82311052D01*
X51341496Y-82335227D01*
X51398379Y-82353282D01*
X51465473Y-82365839D01*
X51546435Y-82373522D01*
X51644918Y-82376953D01*
X51679714Y-82377251D01*
X51845406Y-82377845D01*
X51868803Y-82348100D01*
X51875743Y-82338319D01*
X51881158Y-82326897D01*
X51885235Y-82311095D01*
X51888163Y-82288175D01*
X51890133Y-82255396D01*
X51890775Y-82231089D01*
X51734156Y-82231089D01*
X51640274Y-82231089D01*
X51585336Y-82229483D01*
X51528940Y-82225255D01*
X51482655Y-82219292D01*
X51479861Y-82218790D01*
X51397652Y-82196736D01*
X51333886Y-82163600D01*
X51286548Y-82117847D01*
X51253618Y-82057939D01*
X51247892Y-82042061D01*
X51242279Y-82017333D01*
X51244709Y-81992902D01*
X51256533Y-81960400D01*
X51263660Y-81944434D01*
X51287000Y-81902006D01*
X51315120Y-81872240D01*
X51346060Y-81851511D01*
X51408034Y-81824537D01*
X51487349Y-81804998D01*
X51579747Y-81793746D01*
X51646667Y-81791270D01*
X51734156Y-81790822D01*
X51734156Y-82231089D01*
X51890775Y-82231089D01*
X51891332Y-82210021D01*
X51891950Y-82149311D01*
X51892175Y-82070526D01*
X51892200Y-82008920D01*
X51892200Y-81699485D01*
X51864491Y-81671776D01*
X51852194Y-81660544D01*
X51838897Y-81652853D01*
X51820328Y-81648040D01*
X51792214Y-81645446D01*
X51750283Y-81644410D01*
X51690263Y-81644270D01*
X51686691Y-81644275D01*
G36*
X48960335Y-81646034D02*
X48940745Y-81653035D01*
X48939990Y-81653377D01*
X48913387Y-81673678D01*
X48898730Y-81694561D01*
X48895862Y-81704352D01*
X48896004Y-81717361D01*
X48900039Y-81735895D01*
X48908854Y-81762257D01*
X48923331Y-81798752D01*
X48944355Y-81847687D01*
X48972812Y-81911365D01*
X49009585Y-81992093D01*
X49029825Y-82036216D01*
X49066375Y-82114985D01*
X49100685Y-82187423D01*
X49131448Y-82250880D01*
X49157352Y-82302708D01*
X49177090Y-82340259D01*
X49189350Y-82360884D01*
X49191776Y-82363733D01*
X49222817Y-82376302D01*
X49257879Y-82374619D01*
X49286000Y-82359332D01*
X49287146Y-82358089D01*
X49298332Y-82341154D01*
X49317096Y-82308170D01*
X49341125Y-82263380D01*
X49368103Y-82211032D01*
X49377799Y-82191742D01*
X49450986Y-82045150D01*
X49530760Y-82204393D01*
X49559233Y-82259415D01*
X49585650Y-82307132D01*
X49607852Y-82343893D01*
X49623681Y-82366044D01*
X49629046Y-82370741D01*
X49670743Y-82377102D01*
X49705151Y-82363733D01*
X49715272Y-82349446D01*
X49732786Y-82317692D01*
X49756265Y-82271597D01*
X49784280Y-82214285D01*
X49815401Y-82148880D01*
X49848201Y-82078507D01*
X49881250Y-82006291D01*
X49913119Y-81935355D01*
X49942381Y-81868825D01*
X49967605Y-81809826D01*
X49987364Y-81761481D01*
X50000228Y-81726915D01*
X50004769Y-81709253D01*
X50004723Y-81708613D01*
X49993674Y-81686388D01*
X49971590Y-81663753D01*
X49970290Y-81662768D01*
X49943147Y-81647425D01*
X49918042Y-81647574D01*
X49908632Y-81650466D01*
X49897166Y-81656718D01*
X49884990Y-81669014D01*
X49870643Y-81689908D01*
X49852664Y-81721949D01*
X49829593Y-81767688D01*
X49799970Y-81829677D01*
X49773255Y-81886898D01*
X49742520Y-81953226D01*
X49714979Y-82012874D01*
X49692062Y-82062725D01*
X49675202Y-82099664D01*
X49665827Y-82120573D01*
X49664460Y-82123845D01*
X49658311Y-82118497D01*
X49644178Y-82096109D01*
X49623943Y-82059946D01*
X49599485Y-82013277D01*
X49589752Y-81994022D01*
X49556783Y-81929004D01*
X49531357Y-81881654D01*
X49511388Y-81849219D01*
X49494790Y-81828946D01*
X49479476Y-81818082D01*
X49463360Y-81813875D01*
X49452857Y-81813400D01*
X49434330Y-81815042D01*
X49418096Y-81821831D01*
X49401965Y-81836566D01*
X49383749Y-81862044D01*
X49361261Y-81901061D01*
X49332311Y-81956414D01*
X49316338Y-81987903D01*
X49290430Y-82038087D01*
X49267833Y-82079704D01*
X49250542Y-82109242D01*
X49240550Y-82123189D01*
X49239191Y-82123770D01*
X49232739Y-82112793D01*
X49218292Y-82084290D01*
X49197297Y-82041244D01*
X49171203Y-81986638D01*
X49141454Y-81923454D01*
X49126820Y-81892071D01*
X49088750Y-81811078D01*
X49058095Y-81748756D01*
X49033263Y-81703071D01*
X49012663Y-81671989D01*
X48994702Y-81653478D01*
X48977790Y-81645504D01*
X48960335Y-81646034D01*
X48960335Y-81646034D01*
G37*
X48960335Y-81646034D02*
X48940745Y-81653035D01*
X48939990Y-81653377D01*
X48913387Y-81673678D01*
X48898730Y-81694561D01*
X48895862Y-81704352D01*
X48896004Y-81717361D01*
X48900039Y-81735895D01*
X48908854Y-81762257D01*
X48923331Y-81798752D01*
X48944355Y-81847687D01*
X48972812Y-81911365D01*
X49009585Y-81992093D01*
X49029825Y-82036216D01*
X49066375Y-82114985D01*
X49100685Y-82187423D01*
X49131448Y-82250880D01*
X49157352Y-82302708D01*
X49177090Y-82340259D01*
X49189350Y-82360884D01*
X49191776Y-82363733D01*
X49222817Y-82376302D01*
X49257879Y-82374619D01*
X49286000Y-82359332D01*
X49287146Y-82358089D01*
X49298332Y-82341154D01*
X49317096Y-82308170D01*
X49341125Y-82263380D01*
X49368103Y-82211032D01*
X49377799Y-82191742D01*
X49450986Y-82045150D01*
X49530760Y-82204393D01*
X49559233Y-82259415D01*
X49585650Y-82307132D01*
X49607852Y-82343893D01*
X49623681Y-82366044D01*
X49629046Y-82370741D01*
X49670743Y-82377102D01*
X49705151Y-82363733D01*
X49715272Y-82349446D01*
X49732786Y-82317692D01*
X49756265Y-82271597D01*
X49784280Y-82214285D01*
X49815401Y-82148880D01*
X49848201Y-82078507D01*
X49881250Y-82006291D01*
X49913119Y-81935355D01*
X49942381Y-81868825D01*
X49967605Y-81809826D01*
X49987364Y-81761481D01*
X50000228Y-81726915D01*
X50004769Y-81709253D01*
X50004723Y-81708613D01*
X49993674Y-81686388D01*
X49971590Y-81663753D01*
X49970290Y-81662768D01*
X49943147Y-81647425D01*
X49918042Y-81647574D01*
X49908632Y-81650466D01*
X49897166Y-81656718D01*
X49884990Y-81669014D01*
X49870643Y-81689908D01*
X49852664Y-81721949D01*
X49829593Y-81767688D01*
X49799970Y-81829677D01*
X49773255Y-81886898D01*
X49742520Y-81953226D01*
X49714979Y-82012874D01*
X49692062Y-82062725D01*
X49675202Y-82099664D01*
X49665827Y-82120573D01*
X49664460Y-82123845D01*
X49658311Y-82118497D01*
X49644178Y-82096109D01*
X49623943Y-82059946D01*
X49599485Y-82013277D01*
X49589752Y-81994022D01*
X49556783Y-81929004D01*
X49531357Y-81881654D01*
X49511388Y-81849219D01*
X49494790Y-81828946D01*
X49479476Y-81818082D01*
X49463360Y-81813875D01*
X49452857Y-81813400D01*
X49434330Y-81815042D01*
X49418096Y-81821831D01*
X49401965Y-81836566D01*
X49383749Y-81862044D01*
X49361261Y-81901061D01*
X49332311Y-81956414D01*
X49316338Y-81987903D01*
X49290430Y-82038087D01*
X49267833Y-82079704D01*
X49250542Y-82109242D01*
X49240550Y-82123189D01*
X49239191Y-82123770D01*
X49232739Y-82112793D01*
X49218292Y-82084290D01*
X49197297Y-82041244D01*
X49171203Y-81986638D01*
X49141454Y-81923454D01*
X49126820Y-81892071D01*
X49088750Y-81811078D01*
X49058095Y-81748756D01*
X49033263Y-81703071D01*
X49012663Y-81671989D01*
X48994702Y-81653478D01*
X48977790Y-81645504D01*
X48960335Y-81646034D01*
G36*
X48516386Y-81650877D02*
X48492673Y-81665647D01*
X48466022Y-81687227D01*
X48466022Y-82008773D01*
X48466107Y-82102830D01*
X48466471Y-82176932D01*
X48467276Y-82233704D01*
X48468687Y-82275768D01*
X48470867Y-82305748D01*
X48473979Y-82326267D01*
X48478186Y-82339949D01*
X48483652Y-82349416D01*
X48487528Y-82354082D01*
X48518966Y-82374575D01*
X48554767Y-82373739D01*
X48586127Y-82356264D01*
X48612778Y-82334684D01*
X48612778Y-81687227D01*
X48586127Y-81665647D01*
X48560406Y-81649949D01*
X48539400Y-81644067D01*
X48516386Y-81650877D01*
X48516386Y-81650877D01*
G37*
X48516386Y-81650877D02*
X48492673Y-81665647D01*
X48466022Y-81687227D01*
X48466022Y-82008773D01*
X48466107Y-82102830D01*
X48466471Y-82176932D01*
X48467276Y-82233704D01*
X48468687Y-82275768D01*
X48470867Y-82305748D01*
X48473979Y-82326267D01*
X48478186Y-82339949D01*
X48483652Y-82349416D01*
X48487528Y-82354082D01*
X48518966Y-82374575D01*
X48554767Y-82373739D01*
X48586127Y-82356264D01*
X48612778Y-82334684D01*
X48612778Y-81687227D01*
X48586127Y-81665647D01*
X48560406Y-81649949D01*
X48539400Y-81644067D01*
X48516386Y-81650877D01*
G36*
X47741935Y-81644163D02*
X47663228Y-81644542D01*
X47602137Y-81645333D01*
X47556183Y-81646670D01*
X47522886Y-81648683D01*
X47499764Y-81651506D01*
X47484338Y-81655269D01*
X47474129Y-81660105D01*
X47469187Y-81663822D01*
X47443543Y-81696358D01*
X47440441Y-81730138D01*
X47456289Y-81760826D01*
X47466652Y-81773089D01*
X47477804Y-81781450D01*
X47493965Y-81786657D01*
X47519358Y-81789457D01*
X47558202Y-81790596D01*
X47614720Y-81790821D01*
X47625820Y-81790822D01*
X47771756Y-81790822D01*
X47771756Y-82061756D01*
X47771852Y-82147154D01*
X47772289Y-82212864D01*
X47773288Y-82261774D01*
X47775072Y-82296773D01*
X47777863Y-82320749D01*
X47781883Y-82336593D01*
X47787355Y-82347191D01*
X47794334Y-82355267D01*
X47827266Y-82375112D01*
X47861646Y-82373548D01*
X47892824Y-82350906D01*
X47895114Y-82348100D01*
X47902571Y-82337492D01*
X47908253Y-82325081D01*
X47912399Y-82307850D01*
X47915250Y-82282784D01*
X47917046Y-82246867D01*
X47918028Y-82197083D01*
X47918436Y-82130417D01*
X47918511Y-82054589D01*
X47918511Y-81790822D01*
X48057873Y-81790822D01*
X48117678Y-81790418D01*
X48159082Y-81788840D01*
X48186252Y-81785547D01*
X48203354Y-81779992D01*
X48214557Y-81771631D01*
X48215917Y-81770178D01*
X48232275Y-81736939D01*
X48230828Y-81699362D01*
X48212022Y-81666645D01*
X48204750Y-81660298D01*
X48195373Y-81655266D01*
X48181391Y-81651396D01*
X48160304Y-81648537D01*
X48129611Y-81646535D01*
X48086811Y-81645239D01*
X48029405Y-81644498D01*
X47954890Y-81644158D01*
X47860767Y-81644068D01*
X47840740Y-81644067D01*
X47741935Y-81644163D01*
X47741935Y-81644163D01*
G37*
X47741935Y-81644163D02*
X47663228Y-81644542D01*
X47602137Y-81645333D01*
X47556183Y-81646670D01*
X47522886Y-81648683D01*
X47499764Y-81651506D01*
X47484338Y-81655269D01*
X47474129Y-81660105D01*
X47469187Y-81663822D01*
X47443543Y-81696358D01*
X47440441Y-81730138D01*
X47456289Y-81760826D01*
X47466652Y-81773089D01*
X47477804Y-81781450D01*
X47493965Y-81786657D01*
X47519358Y-81789457D01*
X47558202Y-81790596D01*
X47614720Y-81790821D01*
X47625820Y-81790822D01*
X47771756Y-81790822D01*
X47771756Y-82061756D01*
X47771852Y-82147154D01*
X47772289Y-82212864D01*
X47773288Y-82261774D01*
X47775072Y-82296773D01*
X47777863Y-82320749D01*
X47781883Y-82336593D01*
X47787355Y-82347191D01*
X47794334Y-82355267D01*
X47827266Y-82375112D01*
X47861646Y-82373548D01*
X47892824Y-82350906D01*
X47895114Y-82348100D01*
X47902571Y-82337492D01*
X47908253Y-82325081D01*
X47912399Y-82307850D01*
X47915250Y-82282784D01*
X47917046Y-82246867D01*
X47918028Y-82197083D01*
X47918436Y-82130417D01*
X47918511Y-82054589D01*
X47918511Y-81790822D01*
X48057873Y-81790822D01*
X48117678Y-81790418D01*
X48159082Y-81788840D01*
X48186252Y-81785547D01*
X48203354Y-81779992D01*
X48214557Y-81771631D01*
X48215917Y-81770178D01*
X48232275Y-81736939D01*
X48230828Y-81699362D01*
X48212022Y-81666645D01*
X48204750Y-81660298D01*
X48195373Y-81655266D01*
X48181391Y-81651396D01*
X48160304Y-81648537D01*
X48129611Y-81646535D01*
X48086811Y-81645239D01*
X48029405Y-81644498D01*
X47954890Y-81644158D01*
X47860767Y-81644068D01*
X47840740Y-81644067D01*
X47741935Y-81644163D01*
G36*
X46476177Y-81649533D02*
X46444798Y-81671776D01*
X46417089Y-81699485D01*
X46417089Y-82008920D01*
X46417162Y-82100799D01*
X46417505Y-82172840D01*
X46418308Y-82227780D01*
X46419759Y-82268360D01*
X46422048Y-82297317D01*
X46425364Y-82317391D01*
X46429895Y-82331321D01*
X46435831Y-82341845D01*
X46440486Y-82348100D01*
X46471217Y-82372673D01*
X46506504Y-82375341D01*
X46538755Y-82360271D01*
X46549412Y-82351374D01*
X46556536Y-82339557D01*
X46560833Y-82320526D01*
X46563009Y-82289992D01*
X46563772Y-82243662D01*
X46563845Y-82207871D01*
X46563845Y-82073045D01*
X47060556Y-82073045D01*
X47060556Y-82195700D01*
X47061069Y-82251787D01*
X47063124Y-82290333D01*
X47067492Y-82316361D01*
X47074944Y-82334897D01*
X47083953Y-82348100D01*
X47114856Y-82372604D01*
X47149804Y-82375506D01*
X47183262Y-82358089D01*
X47192396Y-82348959D01*
X47198848Y-82336855D01*
X47203103Y-82318001D01*
X47205648Y-82288620D01*
X47206971Y-82244937D01*
X47207557Y-82183175D01*
X47207625Y-82169000D01*
X47208109Y-82052631D01*
X47208359Y-81956727D01*
X47208277Y-81879177D01*
X47207769Y-81817869D01*
X47206738Y-81770690D01*
X47205087Y-81735530D01*
X47202721Y-81710276D01*
X47199543Y-81692817D01*
X47195456Y-81681041D01*
X47190366Y-81672835D01*
X47184734Y-81666645D01*
X47152872Y-81646844D01*
X47119643Y-81649533D01*
X47088265Y-81671776D01*
X47075567Y-81686126D01*
X47067474Y-81701978D01*
X47062958Y-81724554D01*
X47060994Y-81759078D01*
X47060556Y-81810776D01*
X47060556Y-81926289D01*
X46563845Y-81926289D01*
X46563845Y-81807756D01*
X46563338Y-81753148D01*
X46561302Y-81716275D01*
X46556965Y-81692307D01*
X46549553Y-81676415D01*
X46541267Y-81666645D01*
X46509406Y-81646844D01*
X46476177Y-81649533D01*
X46476177Y-81649533D01*
G37*
X46476177Y-81649533D02*
X46444798Y-81671776D01*
X46417089Y-81699485D01*
X46417089Y-82008920D01*
X46417162Y-82100799D01*
X46417505Y-82172840D01*
X46418308Y-82227780D01*
X46419759Y-82268360D01*
X46422048Y-82297317D01*
X46425364Y-82317391D01*
X46429895Y-82331321D01*
X46435831Y-82341845D01*
X46440486Y-82348100D01*
X46471217Y-82372673D01*
X46506504Y-82375341D01*
X46538755Y-82360271D01*
X46549412Y-82351374D01*
X46556536Y-82339557D01*
X46560833Y-82320526D01*
X46563009Y-82289992D01*
X46563772Y-82243662D01*
X46563845Y-82207871D01*
X46563845Y-82073045D01*
X47060556Y-82073045D01*
X47060556Y-82195700D01*
X47061069Y-82251787D01*
X47063124Y-82290333D01*
X47067492Y-82316361D01*
X47074944Y-82334897D01*
X47083953Y-82348100D01*
X47114856Y-82372604D01*
X47149804Y-82375506D01*
X47183262Y-82358089D01*
X47192396Y-82348959D01*
X47198848Y-82336855D01*
X47203103Y-82318001D01*
X47205648Y-82288620D01*
X47206971Y-82244937D01*
X47207557Y-82183175D01*
X47207625Y-82169000D01*
X47208109Y-82052631D01*
X47208359Y-81956727D01*
X47208277Y-81879177D01*
X47207769Y-81817869D01*
X47206738Y-81770690D01*
X47205087Y-81735530D01*
X47202721Y-81710276D01*
X47199543Y-81692817D01*
X47195456Y-81681041D01*
X47190366Y-81672835D01*
X47184734Y-81666645D01*
X47152872Y-81646844D01*
X47119643Y-81649533D01*
X47088265Y-81671776D01*
X47075567Y-81686126D01*
X47067474Y-81701978D01*
X47062958Y-81724554D01*
X47060994Y-81759078D01*
X47060556Y-81810776D01*
X47060556Y-81926289D01*
X46563845Y-81926289D01*
X46563845Y-81807756D01*
X46563338Y-81753148D01*
X46561302Y-81716275D01*
X46556965Y-81692307D01*
X46549553Y-81676415D01*
X46541267Y-81666645D01*
X46509406Y-81646844D01*
X46476177Y-81649533D01*
G36*
X55651400Y-76864054D02*
X55640535Y-76977993D01*
X55608918Y-77085616D01*
X55558015Y-77184615D01*
X55489293Y-77272684D01*
X55404219Y-77347516D01*
X55307232Y-77405384D01*
X55200964Y-77445005D01*
X55093950Y-77463573D01*
X54988300Y-77462434D01*
X54886125Y-77442930D01*
X54789534Y-77406406D01*
X54700638Y-77354205D01*
X54621546Y-77287673D01*
X54554369Y-77208152D01*
X54501217Y-77116987D01*
X54464199Y-77015523D01*
X54445427Y-76905102D01*
X54443489Y-76855206D01*
X54443489Y-76767267D01*
X54391560Y-76767267D01*
X54355253Y-76770111D01*
X54328355Y-76781911D01*
X54301249Y-76805649D01*
X54262867Y-76844031D01*
X54262867Y-79035602D01*
X54262876Y-79297739D01*
X54262908Y-79538241D01*
X54262972Y-79758048D01*
X54263076Y-79958101D01*
X54263227Y-80139344D01*
X54263434Y-80302716D01*
X54263706Y-80449160D01*
X54264050Y-80579617D01*
X54264474Y-80695029D01*
X54264987Y-80796338D01*
X54265597Y-80884484D01*
X54266312Y-80960410D01*
X54267140Y-81025057D01*
X54268089Y-81079367D01*
X54269167Y-81124280D01*
X54270383Y-81160740D01*
X54271745Y-81189687D01*
X54273261Y-81212063D01*
X54274938Y-81228809D01*
X54276786Y-81240868D01*
X54278813Y-81249180D01*
X54281025Y-81254687D01*
X54282108Y-81256537D01*
X54286271Y-81263549D01*
X54289805Y-81269996D01*
X54293635Y-81275900D01*
X54298682Y-81281286D01*
X54305871Y-81286178D01*
X54316123Y-81290598D01*
X54330364Y-81294572D01*
X54349514Y-81298121D01*
X54374499Y-81301270D01*
X54406240Y-81304042D01*
X54445662Y-81306461D01*
X54493686Y-81308551D01*
X54551237Y-81310335D01*
X54619237Y-81311837D01*
X54698610Y-81313080D01*
X54790279Y-81314089D01*
X54895166Y-81314885D01*
X55014196Y-81315494D01*
X55148290Y-81315939D01*
X55298373Y-81316243D01*
X55465367Y-81316430D01*
X55650196Y-81316524D01*
X55853783Y-81316548D01*
X56077050Y-81316525D01*
X56320922Y-81316480D01*
X56586321Y-81316437D01*
X56624704Y-81316432D01*
X56891682Y-81316389D01*
X57137002Y-81316318D01*
X57361583Y-81316213D01*
X57566345Y-81316066D01*
X57752206Y-81315869D01*
X57920088Y-81315616D01*
X58070908Y-81315300D01*
X58205587Y-81314913D01*
X58325044Y-81314447D01*
X58430199Y-81313897D01*
X58521971Y-81313253D01*
X58601279Y-81312511D01*
X58669043Y-81311661D01*
X58726182Y-81310697D01*
X58773617Y-81309611D01*
X58812266Y-81308397D01*
X58843049Y-81307047D01*
X58866885Y-81305555D01*
X58884694Y-81303911D01*
X58897395Y-81302111D01*
X58905908Y-81300145D01*
X58910266Y-81298477D01*
X58918728Y-81294906D01*
X58926497Y-81292270D01*
X58933602Y-81289634D01*
X58940073Y-81286062D01*
X58945939Y-81280621D01*
X58951229Y-81272375D01*
X58955974Y-81260390D01*
X58960202Y-81243731D01*
X58963943Y-81221463D01*
X58967227Y-81192652D01*
X58970083Y-81156363D01*
X58972540Y-81111661D01*
X58974629Y-81057611D01*
X58976378Y-80993279D01*
X58977817Y-80917730D01*
X58978976Y-80830030D01*
X58979883Y-80729243D01*
X58980569Y-80614434D01*
X58981063Y-80484670D01*
X58981395Y-80339015D01*
X58981593Y-80176535D01*
X58981687Y-79996295D01*
X58981708Y-79797360D01*
X58981685Y-79578796D01*
X58981646Y-79339668D01*
X58981622Y-79079040D01*
X58981622Y-79036889D01*
X58981636Y-78773992D01*
X58981661Y-78532732D01*
X58981671Y-78312165D01*
X58981642Y-78111352D01*
X58981548Y-77929349D01*
X58981362Y-77765216D01*
X58981059Y-77618011D01*
X58980614Y-77486792D01*
X58980034Y-77376867D01*
X58677197Y-77376867D01*
X58637407Y-77434711D01*
X58626236Y-77450479D01*
X58616166Y-77464441D01*
X58607138Y-77477784D01*
X58599097Y-77491693D01*
X58591986Y-77507356D01*
X58585747Y-77525958D01*
X58580325Y-77548686D01*
X58575662Y-77576727D01*
X58571701Y-77611267D01*
X58568385Y-77653492D01*
X58565659Y-77704589D01*
X58563464Y-77765744D01*
X58561745Y-77838144D01*
X58560444Y-77922975D01*
X58559505Y-78021422D01*
X58558870Y-78134674D01*
X58558484Y-78263916D01*
X58558288Y-78410334D01*
X58558227Y-78575116D01*
X58558243Y-78759447D01*
X58558280Y-78964513D01*
X58558289Y-79087133D01*
X58558265Y-79304082D01*
X58558231Y-79499642D01*
X58558243Y-79674999D01*
X58558358Y-79831341D01*
X58558630Y-79969857D01*
X58559118Y-80091734D01*
X58559876Y-80198160D01*
X58560962Y-80290322D01*
X58562431Y-80369409D01*
X58564340Y-80436608D01*
X58566744Y-80493107D01*
X58569701Y-80540093D01*
X58573266Y-80578755D01*
X58577495Y-80610280D01*
X58582446Y-80635855D01*
X58588173Y-80656670D01*
X58594733Y-80673911D01*
X58602183Y-80688765D01*
X58610579Y-80702422D01*
X58619976Y-80716069D01*
X58630432Y-80730893D01*
X58636523Y-80739783D01*
X58675296Y-80797400D01*
X58143732Y-80797400D01*
X58020483Y-80797365D01*
X57917987Y-80797215D01*
X57834420Y-80796878D01*
X57767956Y-80796286D01*
X57716771Y-80795367D01*
X57679041Y-80794051D01*
X57652940Y-80792269D01*
X57636644Y-80789951D01*
X57628328Y-80787026D01*
X57626168Y-80783424D01*
X57628339Y-80779075D01*
X57629535Y-80777645D01*
X57654685Y-80740573D01*
X57680583Y-80687772D01*
X57704192Y-80625770D01*
X57712461Y-80599357D01*
X57717078Y-80581416D01*
X57720979Y-80560355D01*
X57724248Y-80534089D01*
X57726966Y-80500532D01*
X57729215Y-80457599D01*
X57731077Y-80403204D01*
X57732636Y-80335262D01*
X57733972Y-80251688D01*
X57735169Y-80150395D01*
X57736308Y-80029300D01*
X57736685Y-79984600D01*
X57737702Y-79859449D01*
X57738460Y-79755082D01*
X57738903Y-79669707D01*
X57738970Y-79601533D01*
X57738605Y-79548765D01*
X57737748Y-79509614D01*
X57736341Y-79482285D01*
X57734325Y-79464986D01*
X57731643Y-79455926D01*
X57728236Y-79453312D01*
X57724044Y-79455351D01*
X57719571Y-79459667D01*
X57709216Y-79472602D01*
X57687158Y-79501676D01*
X57654957Y-79544759D01*
X57614174Y-79599718D01*
X57566370Y-79664423D01*
X57513105Y-79736742D01*
X57455940Y-79814544D01*
X57396437Y-79895698D01*
X57336155Y-79978072D01*
X57276655Y-80059536D01*
X57219498Y-80137957D01*
X57166245Y-80211204D01*
X57118457Y-80277147D01*
X57077693Y-80333654D01*
X57045516Y-80378593D01*
X57023485Y-80409834D01*
X57018917Y-80416466D01*
X56995996Y-80453369D01*
X56969188Y-80501359D01*
X56943789Y-80550897D01*
X56940568Y-80557577D01*
X56918890Y-80605772D01*
X56906304Y-80643334D01*
X56900574Y-80679160D01*
X56899456Y-80721200D01*
X56900090Y-80797400D01*
X55745651Y-80797400D01*
X55836815Y-80703669D01*
X55883612Y-80653775D01*
X55933899Y-80597295D01*
X55979944Y-80543026D01*
X56000369Y-80517673D01*
X56030807Y-80478128D01*
X56070862Y-80424916D01*
X56119361Y-80359667D01*
X56175135Y-80284011D01*
X56237011Y-80199577D01*
X56303819Y-80107994D01*
X56374387Y-80010892D01*
X56447545Y-79909901D01*
X56522121Y-79806650D01*
X56596944Y-79702768D01*
X56670843Y-79599885D01*
X56742646Y-79499631D01*
X56811184Y-79403636D01*
X56875284Y-79313527D01*
X56933775Y-79230936D01*
X56985486Y-79157492D01*
X57029247Y-79094824D01*
X57063885Y-79044561D01*
X57088230Y-79008334D01*
X57101111Y-78987771D01*
X57102869Y-78983668D01*
X57094910Y-78972342D01*
X57074115Y-78945162D01*
X57041847Y-78903829D01*
X56999470Y-78850044D01*
X56948347Y-78785506D01*
X56889841Y-78711918D01*
X56825314Y-78630978D01*
X56756131Y-78544388D01*
X56683653Y-78453848D01*
X56609246Y-78361060D01*
X56549517Y-78286702D01*
X55538511Y-78286702D01*
X55532602Y-78299659D01*
X55518272Y-78321908D01*
X55517225Y-78323391D01*
X55498438Y-78353544D01*
X55478791Y-78390375D01*
X55474892Y-78398511D01*
X55471356Y-78406940D01*
X55468230Y-78417059D01*
X55465486Y-78430260D01*
X55463092Y-78447938D01*
X55461019Y-78471484D01*
X55459235Y-78502293D01*
X55457712Y-78541757D01*
X55456419Y-78591269D01*
X55455326Y-78652223D01*
X55454403Y-78726011D01*
X55453619Y-78814028D01*
X55452945Y-78917665D01*
X55452350Y-79038316D01*
X55451805Y-79177374D01*
X55451279Y-79336232D01*
X55450745Y-79515089D01*
X55450206Y-79700207D01*
X55449772Y-79864145D01*
X55449509Y-80008303D01*
X55449484Y-80134079D01*
X55449765Y-80242871D01*
X55450419Y-80336077D01*
X55451514Y-80415097D01*
X55453118Y-80481328D01*
X55455297Y-80536170D01*
X55458119Y-80581021D01*
X55461651Y-80617278D01*
X55465961Y-80646341D01*
X55471117Y-80669609D01*
X55477185Y-80688479D01*
X55484233Y-80704351D01*
X55492329Y-80718622D01*
X55501540Y-80732691D01*
X55510040Y-80745158D01*
X55527176Y-80771452D01*
X55537322Y-80789037D01*
X55538511Y-80792257D01*
X55527604Y-80793334D01*
X55496411Y-80794335D01*
X55447223Y-80795235D01*
X55382333Y-80796010D01*
X55304030Y-80796637D01*
X55214607Y-80797091D01*
X55116356Y-80797349D01*
X55047445Y-80797400D01*
X54942452Y-80797180D01*
X54845610Y-80796548D01*
X54759107Y-80795549D01*
X54685132Y-80794227D01*
X54625874Y-80792626D01*
X54583520Y-80790791D01*
X54560260Y-80788765D01*
X54556378Y-80787493D01*
X54564076Y-80772591D01*
X54572074Y-80764560D01*
X54585246Y-80747434D01*
X54602485Y-80717183D01*
X54614407Y-80692622D01*
X54641045Y-80633711D01*
X54644120Y-79456845D01*
X54647195Y-78279978D01*
X55092853Y-78279978D01*
X55190670Y-78280142D01*
X55281064Y-78280611D01*
X55361630Y-78281347D01*
X55429962Y-78282316D01*
X55483656Y-78283480D01*
X55520305Y-78284803D01*
X55537504Y-78286249D01*
X55538511Y-78286702D01*
X56549517Y-78286702D01*
X56534270Y-78267722D01*
X56460090Y-78175537D01*
X56388069Y-78086204D01*
X56319569Y-78001424D01*
X56255955Y-77922898D01*
X56198588Y-77852326D01*
X56148833Y-77791409D01*
X56108052Y-77741847D01*
X56090888Y-77721178D01*
X56004596Y-77620516D01*
X55927997Y-77537259D01*
X55859183Y-77469438D01*
X55796248Y-77415089D01*
X55786867Y-77407722D01*
X55747356Y-77377117D01*
X56879116Y-77376867D01*
X56873827Y-77424844D01*
X56877130Y-77482188D01*
X56898661Y-77550463D01*
X56938635Y-77630212D01*
X56983943Y-77702495D01*
X57000161Y-77725140D01*
X57028214Y-77762696D01*
X57066430Y-77813021D01*
X57113137Y-77873973D01*
X57166661Y-77943411D01*
X57225331Y-78019194D01*
X57287475Y-78099180D01*
X57351421Y-78181228D01*
X57415495Y-78263196D01*
X57478027Y-78342943D01*
X57537343Y-78418327D01*
X57591771Y-78487207D01*
X57639639Y-78547442D01*
X57679275Y-78596889D01*
X57709006Y-78633408D01*
X57727161Y-78654858D01*
X57730220Y-78658156D01*
X57733079Y-78650149D01*
X57735293Y-78619855D01*
X57736857Y-78567556D01*
X57737767Y-78493531D01*
X57738020Y-78398063D01*
X57737613Y-78281434D01*
X57736704Y-78161445D01*
X57735382Y-78029333D01*
X57733857Y-77917594D01*
X57731881Y-77824025D01*
X57729206Y-77746419D01*
X57725582Y-77682574D01*
X57720761Y-77630283D01*
X57714494Y-77587344D01*
X57706532Y-77551551D01*
X57696627Y-77520700D01*
X57684531Y-77492586D01*
X57669993Y-77465005D01*
X57655311Y-77439966D01*
X57617314Y-77376867D01*
X58677197Y-77376867D01*
X58980034Y-77376867D01*
X58980001Y-77370617D01*
X58979195Y-77268544D01*
X58978170Y-77179633D01*
X58976900Y-77102941D01*
X58975360Y-77037527D01*
X58973524Y-76982449D01*
X58971367Y-76936765D01*
X58968863Y-76899534D01*
X58965987Y-76869813D01*
X58962713Y-76846662D01*
X58959015Y-76829139D01*
X58954869Y-76816301D01*
X58950247Y-76807208D01*
X58945126Y-76800918D01*
X58939478Y-76796488D01*
X58933279Y-76792978D01*
X58926504Y-76789445D01*
X58920508Y-76785876D01*
X58915275Y-76783300D01*
X58907099Y-76780972D01*
X58894886Y-76778878D01*
X58877541Y-76777007D01*
X58853969Y-76775347D01*
X58823077Y-76773884D01*
X58783768Y-76772608D01*
X58734950Y-76771504D01*
X58675527Y-76770561D01*
X58604404Y-76769767D01*
X58520488Y-76769109D01*
X58422683Y-76768575D01*
X58309894Y-76768153D01*
X58181029Y-76767829D01*
X58034991Y-76767592D01*
X57870686Y-76767430D01*
X57687020Y-76767330D01*
X57482897Y-76767280D01*
X57271753Y-76767267D01*
X55651400Y-76767267D01*
X55651400Y-76864054D01*
X55651400Y-76864054D01*
G37*
X55651400Y-76864054D02*
X55640535Y-76977993D01*
X55608918Y-77085616D01*
X55558015Y-77184615D01*
X55489293Y-77272684D01*
X55404219Y-77347516D01*
X55307232Y-77405384D01*
X55200964Y-77445005D01*
X55093950Y-77463573D01*
X54988300Y-77462434D01*
X54886125Y-77442930D01*
X54789534Y-77406406D01*
X54700638Y-77354205D01*
X54621546Y-77287673D01*
X54554369Y-77208152D01*
X54501217Y-77116987D01*
X54464199Y-77015523D01*
X54445427Y-76905102D01*
X54443489Y-76855206D01*
X54443489Y-76767267D01*
X54391560Y-76767267D01*
X54355253Y-76770111D01*
X54328355Y-76781911D01*
X54301249Y-76805649D01*
X54262867Y-76844031D01*
X54262867Y-79035602D01*
X54262876Y-79297739D01*
X54262908Y-79538241D01*
X54262972Y-79758048D01*
X54263076Y-79958101D01*
X54263227Y-80139344D01*
X54263434Y-80302716D01*
X54263706Y-80449160D01*
X54264050Y-80579617D01*
X54264474Y-80695029D01*
X54264987Y-80796338D01*
X54265597Y-80884484D01*
X54266312Y-80960410D01*
X54267140Y-81025057D01*
X54268089Y-81079367D01*
X54269167Y-81124280D01*
X54270383Y-81160740D01*
X54271745Y-81189687D01*
X54273261Y-81212063D01*
X54274938Y-81228809D01*
X54276786Y-81240868D01*
X54278813Y-81249180D01*
X54281025Y-81254687D01*
X54282108Y-81256537D01*
X54286271Y-81263549D01*
X54289805Y-81269996D01*
X54293635Y-81275900D01*
X54298682Y-81281286D01*
X54305871Y-81286178D01*
X54316123Y-81290598D01*
X54330364Y-81294572D01*
X54349514Y-81298121D01*
X54374499Y-81301270D01*
X54406240Y-81304042D01*
X54445662Y-81306461D01*
X54493686Y-81308551D01*
X54551237Y-81310335D01*
X54619237Y-81311837D01*
X54698610Y-81313080D01*
X54790279Y-81314089D01*
X54895166Y-81314885D01*
X55014196Y-81315494D01*
X55148290Y-81315939D01*
X55298373Y-81316243D01*
X55465367Y-81316430D01*
X55650196Y-81316524D01*
X55853783Y-81316548D01*
X56077050Y-81316525D01*
X56320922Y-81316480D01*
X56586321Y-81316437D01*
X56624704Y-81316432D01*
X56891682Y-81316389D01*
X57137002Y-81316318D01*
X57361583Y-81316213D01*
X57566345Y-81316066D01*
X57752206Y-81315869D01*
X57920088Y-81315616D01*
X58070908Y-81315300D01*
X58205587Y-81314913D01*
X58325044Y-81314447D01*
X58430199Y-81313897D01*
X58521971Y-81313253D01*
X58601279Y-81312511D01*
X58669043Y-81311661D01*
X58726182Y-81310697D01*
X58773617Y-81309611D01*
X58812266Y-81308397D01*
X58843049Y-81307047D01*
X58866885Y-81305555D01*
X58884694Y-81303911D01*
X58897395Y-81302111D01*
X58905908Y-81300145D01*
X58910266Y-81298477D01*
X58918728Y-81294906D01*
X58926497Y-81292270D01*
X58933602Y-81289634D01*
X58940073Y-81286062D01*
X58945939Y-81280621D01*
X58951229Y-81272375D01*
X58955974Y-81260390D01*
X58960202Y-81243731D01*
X58963943Y-81221463D01*
X58967227Y-81192652D01*
X58970083Y-81156363D01*
X58972540Y-81111661D01*
X58974629Y-81057611D01*
X58976378Y-80993279D01*
X58977817Y-80917730D01*
X58978976Y-80830030D01*
X58979883Y-80729243D01*
X58980569Y-80614434D01*
X58981063Y-80484670D01*
X58981395Y-80339015D01*
X58981593Y-80176535D01*
X58981687Y-79996295D01*
X58981708Y-79797360D01*
X58981685Y-79578796D01*
X58981646Y-79339668D01*
X58981622Y-79079040D01*
X58981622Y-79036889D01*
X58981636Y-78773992D01*
X58981661Y-78532732D01*
X58981671Y-78312165D01*
X58981642Y-78111352D01*
X58981548Y-77929349D01*
X58981362Y-77765216D01*
X58981059Y-77618011D01*
X58980614Y-77486792D01*
X58980034Y-77376867D01*
X58677197Y-77376867D01*
X58637407Y-77434711D01*
X58626236Y-77450479D01*
X58616166Y-77464441D01*
X58607138Y-77477784D01*
X58599097Y-77491693D01*
X58591986Y-77507356D01*
X58585747Y-77525958D01*
X58580325Y-77548686D01*
X58575662Y-77576727D01*
X58571701Y-77611267D01*
X58568385Y-77653492D01*
X58565659Y-77704589D01*
X58563464Y-77765744D01*
X58561745Y-77838144D01*
X58560444Y-77922975D01*
X58559505Y-78021422D01*
X58558870Y-78134674D01*
X58558484Y-78263916D01*
X58558288Y-78410334D01*
X58558227Y-78575116D01*
X58558243Y-78759447D01*
X58558280Y-78964513D01*
X58558289Y-79087133D01*
X58558265Y-79304082D01*
X58558231Y-79499642D01*
X58558243Y-79674999D01*
X58558358Y-79831341D01*
X58558630Y-79969857D01*
X58559118Y-80091734D01*
X58559876Y-80198160D01*
X58560962Y-80290322D01*
X58562431Y-80369409D01*
X58564340Y-80436608D01*
X58566744Y-80493107D01*
X58569701Y-80540093D01*
X58573266Y-80578755D01*
X58577495Y-80610280D01*
X58582446Y-80635855D01*
X58588173Y-80656670D01*
X58594733Y-80673911D01*
X58602183Y-80688765D01*
X58610579Y-80702422D01*
X58619976Y-80716069D01*
X58630432Y-80730893D01*
X58636523Y-80739783D01*
X58675296Y-80797400D01*
X58143732Y-80797400D01*
X58020483Y-80797365D01*
X57917987Y-80797215D01*
X57834420Y-80796878D01*
X57767956Y-80796286D01*
X57716771Y-80795367D01*
X57679041Y-80794051D01*
X57652940Y-80792269D01*
X57636644Y-80789951D01*
X57628328Y-80787026D01*
X57626168Y-80783424D01*
X57628339Y-80779075D01*
X57629535Y-80777645D01*
X57654685Y-80740573D01*
X57680583Y-80687772D01*
X57704192Y-80625770D01*
X57712461Y-80599357D01*
X57717078Y-80581416D01*
X57720979Y-80560355D01*
X57724248Y-80534089D01*
X57726966Y-80500532D01*
X57729215Y-80457599D01*
X57731077Y-80403204D01*
X57732636Y-80335262D01*
X57733972Y-80251688D01*
X57735169Y-80150395D01*
X57736308Y-80029300D01*
X57736685Y-79984600D01*
X57737702Y-79859449D01*
X57738460Y-79755082D01*
X57738903Y-79669707D01*
X57738970Y-79601533D01*
X57738605Y-79548765D01*
X57737748Y-79509614D01*
X57736341Y-79482285D01*
X57734325Y-79464986D01*
X57731643Y-79455926D01*
X57728236Y-79453312D01*
X57724044Y-79455351D01*
X57719571Y-79459667D01*
X57709216Y-79472602D01*
X57687158Y-79501676D01*
X57654957Y-79544759D01*
X57614174Y-79599718D01*
X57566370Y-79664423D01*
X57513105Y-79736742D01*
X57455940Y-79814544D01*
X57396437Y-79895698D01*
X57336155Y-79978072D01*
X57276655Y-80059536D01*
X57219498Y-80137957D01*
X57166245Y-80211204D01*
X57118457Y-80277147D01*
X57077693Y-80333654D01*
X57045516Y-80378593D01*
X57023485Y-80409834D01*
X57018917Y-80416466D01*
X56995996Y-80453369D01*
X56969188Y-80501359D01*
X56943789Y-80550897D01*
X56940568Y-80557577D01*
X56918890Y-80605772D01*
X56906304Y-80643334D01*
X56900574Y-80679160D01*
X56899456Y-80721200D01*
X56900090Y-80797400D01*
X55745651Y-80797400D01*
X55836815Y-80703669D01*
X55883612Y-80653775D01*
X55933899Y-80597295D01*
X55979944Y-80543026D01*
X56000369Y-80517673D01*
X56030807Y-80478128D01*
X56070862Y-80424916D01*
X56119361Y-80359667D01*
X56175135Y-80284011D01*
X56237011Y-80199577D01*
X56303819Y-80107994D01*
X56374387Y-80010892D01*
X56447545Y-79909901D01*
X56522121Y-79806650D01*
X56596944Y-79702768D01*
X56670843Y-79599885D01*
X56742646Y-79499631D01*
X56811184Y-79403636D01*
X56875284Y-79313527D01*
X56933775Y-79230936D01*
X56985486Y-79157492D01*
X57029247Y-79094824D01*
X57063885Y-79044561D01*
X57088230Y-79008334D01*
X57101111Y-78987771D01*
X57102869Y-78983668D01*
X57094910Y-78972342D01*
X57074115Y-78945162D01*
X57041847Y-78903829D01*
X56999470Y-78850044D01*
X56948347Y-78785506D01*
X56889841Y-78711918D01*
X56825314Y-78630978D01*
X56756131Y-78544388D01*
X56683653Y-78453848D01*
X56609246Y-78361060D01*
X56549517Y-78286702D01*
X55538511Y-78286702D01*
X55532602Y-78299659D01*
X55518272Y-78321908D01*
X55517225Y-78323391D01*
X55498438Y-78353544D01*
X55478791Y-78390375D01*
X55474892Y-78398511D01*
X55471356Y-78406940D01*
X55468230Y-78417059D01*
X55465486Y-78430260D01*
X55463092Y-78447938D01*
X55461019Y-78471484D01*
X55459235Y-78502293D01*
X55457712Y-78541757D01*
X55456419Y-78591269D01*
X55455326Y-78652223D01*
X55454403Y-78726011D01*
X55453619Y-78814028D01*
X55452945Y-78917665D01*
X55452350Y-79038316D01*
X55451805Y-79177374D01*
X55451279Y-79336232D01*
X55450745Y-79515089D01*
X55450206Y-79700207D01*
X55449772Y-79864145D01*
X55449509Y-80008303D01*
X55449484Y-80134079D01*
X55449765Y-80242871D01*
X55450419Y-80336077D01*
X55451514Y-80415097D01*
X55453118Y-80481328D01*
X55455297Y-80536170D01*
X55458119Y-80581021D01*
X55461651Y-80617278D01*
X55465961Y-80646341D01*
X55471117Y-80669609D01*
X55477185Y-80688479D01*
X55484233Y-80704351D01*
X55492329Y-80718622D01*
X55501540Y-80732691D01*
X55510040Y-80745158D01*
X55527176Y-80771452D01*
X55537322Y-80789037D01*
X55538511Y-80792257D01*
X55527604Y-80793334D01*
X55496411Y-80794335D01*
X55447223Y-80795235D01*
X55382333Y-80796010D01*
X55304030Y-80796637D01*
X55214607Y-80797091D01*
X55116356Y-80797349D01*
X55047445Y-80797400D01*
X54942452Y-80797180D01*
X54845610Y-80796548D01*
X54759107Y-80795549D01*
X54685132Y-80794227D01*
X54625874Y-80792626D01*
X54583520Y-80790791D01*
X54560260Y-80788765D01*
X54556378Y-80787493D01*
X54564076Y-80772591D01*
X54572074Y-80764560D01*
X54585246Y-80747434D01*
X54602485Y-80717183D01*
X54614407Y-80692622D01*
X54641045Y-80633711D01*
X54644120Y-79456845D01*
X54647195Y-78279978D01*
X55092853Y-78279978D01*
X55190670Y-78280142D01*
X55281064Y-78280611D01*
X55361630Y-78281347D01*
X55429962Y-78282316D01*
X55483656Y-78283480D01*
X55520305Y-78284803D01*
X55537504Y-78286249D01*
X55538511Y-78286702D01*
X56549517Y-78286702D01*
X56534270Y-78267722D01*
X56460090Y-78175537D01*
X56388069Y-78086204D01*
X56319569Y-78001424D01*
X56255955Y-77922898D01*
X56198588Y-77852326D01*
X56148833Y-77791409D01*
X56108052Y-77741847D01*
X56090888Y-77721178D01*
X56004596Y-77620516D01*
X55927997Y-77537259D01*
X55859183Y-77469438D01*
X55796248Y-77415089D01*
X55786867Y-77407722D01*
X55747356Y-77377117D01*
X56879116Y-77376867D01*
X56873827Y-77424844D01*
X56877130Y-77482188D01*
X56898661Y-77550463D01*
X56938635Y-77630212D01*
X56983943Y-77702495D01*
X57000161Y-77725140D01*
X57028214Y-77762696D01*
X57066430Y-77813021D01*
X57113137Y-77873973D01*
X57166661Y-77943411D01*
X57225331Y-78019194D01*
X57287475Y-78099180D01*
X57351421Y-78181228D01*
X57415495Y-78263196D01*
X57478027Y-78342943D01*
X57537343Y-78418327D01*
X57591771Y-78487207D01*
X57639639Y-78547442D01*
X57679275Y-78596889D01*
X57709006Y-78633408D01*
X57727161Y-78654858D01*
X57730220Y-78658156D01*
X57733079Y-78650149D01*
X57735293Y-78619855D01*
X57736857Y-78567556D01*
X57737767Y-78493531D01*
X57738020Y-78398063D01*
X57737613Y-78281434D01*
X57736704Y-78161445D01*
X57735382Y-78029333D01*
X57733857Y-77917594D01*
X57731881Y-77824025D01*
X57729206Y-77746419D01*
X57725582Y-77682574D01*
X57720761Y-77630283D01*
X57714494Y-77587344D01*
X57706532Y-77551551D01*
X57696627Y-77520700D01*
X57684531Y-77492586D01*
X57669993Y-77465005D01*
X57655311Y-77439966D01*
X57617314Y-77376867D01*
X58677197Y-77376867D01*
X58980034Y-77376867D01*
X58980001Y-77370617D01*
X58979195Y-77268544D01*
X58978170Y-77179633D01*
X58976900Y-77102941D01*
X58975360Y-77037527D01*
X58973524Y-76982449D01*
X58971367Y-76936765D01*
X58968863Y-76899534D01*
X58965987Y-76869813D01*
X58962713Y-76846662D01*
X58959015Y-76829139D01*
X58954869Y-76816301D01*
X58950247Y-76807208D01*
X58945126Y-76800918D01*
X58939478Y-76796488D01*
X58933279Y-76792978D01*
X58926504Y-76789445D01*
X58920508Y-76785876D01*
X58915275Y-76783300D01*
X58907099Y-76780972D01*
X58894886Y-76778878D01*
X58877541Y-76777007D01*
X58853969Y-76775347D01*
X58823077Y-76773884D01*
X58783768Y-76772608D01*
X58734950Y-76771504D01*
X58675527Y-76770561D01*
X58604404Y-76769767D01*
X58520488Y-76769109D01*
X58422683Y-76768575D01*
X58309894Y-76768153D01*
X58181029Y-76767829D01*
X58034991Y-76767592D01*
X57870686Y-76767430D01*
X57687020Y-76767330D01*
X57482897Y-76767280D01*
X57271753Y-76767267D01*
X55651400Y-76767267D01*
X55651400Y-76864054D01*
G36*
X52376571Y-77324071D02*
X52216430Y-77345245D01*
X52052490Y-77385385D01*
X51882687Y-77444889D01*
X51704957Y-77524154D01*
X51693690Y-77529699D01*
X51635995Y-77557725D01*
X51584448Y-77581802D01*
X51542809Y-77600249D01*
X51514838Y-77611386D01*
X51505267Y-77613933D01*
X51486050Y-77618941D01*
X51481439Y-77623147D01*
X51486542Y-77633580D01*
X51502582Y-77659868D01*
X51527712Y-77699257D01*
X51560086Y-77748991D01*
X51597857Y-77806315D01*
X51639178Y-77868476D01*
X51682202Y-77932718D01*
X51725083Y-77996285D01*
X51765974Y-78056425D01*
X51803029Y-78110380D01*
X51834400Y-78155397D01*
X51858241Y-78188721D01*
X51872706Y-78207597D01*
X51874691Y-78209787D01*
X51884809Y-78205138D01*
X51907150Y-78187962D01*
X51937720Y-78161440D01*
X51953464Y-78146964D01*
X52049953Y-78071682D01*
X52156664Y-78016241D01*
X52272168Y-77981141D01*
X52395038Y-77966880D01*
X52464439Y-77968051D01*
X52585577Y-77985212D01*
X52694795Y-78021094D01*
X52792418Y-78075959D01*
X52878772Y-78150070D01*
X52954185Y-78243688D01*
X53018982Y-78357076D01*
X53056399Y-78443667D01*
X53100252Y-78579366D01*
X53132572Y-78726850D01*
X53153443Y-78882314D01*
X53162949Y-79041956D01*
X53161173Y-79201973D01*
X53148197Y-79358561D01*
X53124106Y-79507918D01*
X53088982Y-79646240D01*
X53042908Y-79769724D01*
X53026627Y-79803978D01*
X52958380Y-79918064D01*
X52877921Y-80014557D01*
X52786430Y-80092670D01*
X52685089Y-80151617D01*
X52575080Y-80190612D01*
X52457585Y-80208868D01*
X52416117Y-80210211D01*
X52294559Y-80199290D01*
X52174122Y-80166474D01*
X52056334Y-80112439D01*
X51942723Y-80037865D01*
X51851315Y-79959539D01*
X51804785Y-79915008D01*
X51623517Y-80212271D01*
X51578420Y-80286433D01*
X51537181Y-80354646D01*
X51501265Y-80414459D01*
X51472134Y-80463420D01*
X51451250Y-80499079D01*
X51440076Y-80518984D01*
X51438625Y-80522079D01*
X51446854Y-80531718D01*
X51472433Y-80548999D01*
X51512127Y-80572283D01*
X51562703Y-80599934D01*
X51620926Y-80630315D01*
X51683563Y-80661790D01*
X51747379Y-80692722D01*
X51809140Y-80721473D01*
X51865612Y-80746408D01*
X51913562Y-80765889D01*
X51937014Y-80774318D01*
X52070779Y-80812133D01*
X52208673Y-80837136D01*
X52356378Y-80850140D01*
X52483167Y-80852468D01*
X52551122Y-80851373D01*
X52616723Y-80849275D01*
X52674153Y-80846434D01*
X52717597Y-80843106D01*
X52731702Y-80841422D01*
X52870716Y-80812587D01*
X53012243Y-80767468D01*
X53149725Y-80708750D01*
X53276606Y-80639120D01*
X53354111Y-80586441D01*
X53481519Y-80478239D01*
X53599822Y-80351671D01*
X53706828Y-80209866D01*
X53800348Y-80055951D01*
X53878190Y-79893053D01*
X53922044Y-79775756D01*
X53972292Y-79592128D01*
X54005791Y-79397581D01*
X54022551Y-79196325D01*
X54022584Y-78992568D01*
X54005899Y-78790521D01*
X53972507Y-78594392D01*
X53922420Y-78408391D01*
X53918603Y-78396803D01*
X53855719Y-78234750D01*
X53778972Y-78086832D01*
X53685758Y-77948865D01*
X53573473Y-77816661D01*
X53529608Y-77771399D01*
X53393466Y-77647457D01*
X53253509Y-77544915D01*
X53107589Y-77462656D01*
X52953558Y-77399564D01*
X52789268Y-77354523D01*
X52693711Y-77337033D01*
X52534977Y-77321466D01*
X52376571Y-77324071D01*
X52376571Y-77324071D01*
G37*
X52376571Y-77324071D02*
X52216430Y-77345245D01*
X52052490Y-77385385D01*
X51882687Y-77444889D01*
X51704957Y-77524154D01*
X51693690Y-77529699D01*
X51635995Y-77557725D01*
X51584448Y-77581802D01*
X51542809Y-77600249D01*
X51514838Y-77611386D01*
X51505267Y-77613933D01*
X51486050Y-77618941D01*
X51481439Y-77623147D01*
X51486542Y-77633580D01*
X51502582Y-77659868D01*
X51527712Y-77699257D01*
X51560086Y-77748991D01*
X51597857Y-77806315D01*
X51639178Y-77868476D01*
X51682202Y-77932718D01*
X51725083Y-77996285D01*
X51765974Y-78056425D01*
X51803029Y-78110380D01*
X51834400Y-78155397D01*
X51858241Y-78188721D01*
X51872706Y-78207597D01*
X51874691Y-78209787D01*
X51884809Y-78205138D01*
X51907150Y-78187962D01*
X51937720Y-78161440D01*
X51953464Y-78146964D01*
X52049953Y-78071682D01*
X52156664Y-78016241D01*
X52272168Y-77981141D01*
X52395038Y-77966880D01*
X52464439Y-77968051D01*
X52585577Y-77985212D01*
X52694795Y-78021094D01*
X52792418Y-78075959D01*
X52878772Y-78150070D01*
X52954185Y-78243688D01*
X53018982Y-78357076D01*
X53056399Y-78443667D01*
X53100252Y-78579366D01*
X53132572Y-78726850D01*
X53153443Y-78882314D01*
X53162949Y-79041956D01*
X53161173Y-79201973D01*
X53148197Y-79358561D01*
X53124106Y-79507918D01*
X53088982Y-79646240D01*
X53042908Y-79769724D01*
X53026627Y-79803978D01*
X52958380Y-79918064D01*
X52877921Y-80014557D01*
X52786430Y-80092670D01*
X52685089Y-80151617D01*
X52575080Y-80190612D01*
X52457585Y-80208868D01*
X52416117Y-80210211D01*
X52294559Y-80199290D01*
X52174122Y-80166474D01*
X52056334Y-80112439D01*
X51942723Y-80037865D01*
X51851315Y-79959539D01*
X51804785Y-79915008D01*
X51623517Y-80212271D01*
X51578420Y-80286433D01*
X51537181Y-80354646D01*
X51501265Y-80414459D01*
X51472134Y-80463420D01*
X51451250Y-80499079D01*
X51440076Y-80518984D01*
X51438625Y-80522079D01*
X51446854Y-80531718D01*
X51472433Y-80548999D01*
X51512127Y-80572283D01*
X51562703Y-80599934D01*
X51620926Y-80630315D01*
X51683563Y-80661790D01*
X51747379Y-80692722D01*
X51809140Y-80721473D01*
X51865612Y-80746408D01*
X51913562Y-80765889D01*
X51937014Y-80774318D01*
X52070779Y-80812133D01*
X52208673Y-80837136D01*
X52356378Y-80850140D01*
X52483167Y-80852468D01*
X52551122Y-80851373D01*
X52616723Y-80849275D01*
X52674153Y-80846434D01*
X52717597Y-80843106D01*
X52731702Y-80841422D01*
X52870716Y-80812587D01*
X53012243Y-80767468D01*
X53149725Y-80708750D01*
X53276606Y-80639120D01*
X53354111Y-80586441D01*
X53481519Y-80478239D01*
X53599822Y-80351671D01*
X53706828Y-80209866D01*
X53800348Y-80055951D01*
X53878190Y-79893053D01*
X53922044Y-79775756D01*
X53972292Y-79592128D01*
X54005791Y-79397581D01*
X54022551Y-79196325D01*
X54022584Y-78992568D01*
X54005899Y-78790521D01*
X53972507Y-78594392D01*
X53922420Y-78408391D01*
X53918603Y-78396803D01*
X53855719Y-78234750D01*
X53778972Y-78086832D01*
X53685758Y-77948865D01*
X53573473Y-77816661D01*
X53529608Y-77771399D01*
X53393466Y-77647457D01*
X53253509Y-77544915D01*
X53107589Y-77462656D01*
X52953558Y-77399564D01*
X52789268Y-77354523D01*
X52693711Y-77337033D01*
X52534977Y-77321466D01*
X52376571Y-77324071D01*
G36*
X50031426Y-78241552D02*
X49879508Y-78261567D01*
X49744244Y-78295202D01*
X49624761Y-78342725D01*
X49520185Y-78404405D01*
X49442576Y-78467965D01*
X49373735Y-78542099D01*
X49319994Y-78621871D01*
X49277090Y-78714091D01*
X49261616Y-78757161D01*
X49248756Y-78796142D01*
X49237554Y-78832289D01*
X49227880Y-78867434D01*
X49219604Y-78903410D01*
X49212597Y-78942050D01*
X49206728Y-78985185D01*
X49201869Y-79034649D01*
X49197890Y-79092273D01*
X49194660Y-79159891D01*
X49192051Y-79239334D01*
X49189933Y-79332436D01*
X49188176Y-79441027D01*
X49186651Y-79566942D01*
X49185228Y-79712012D01*
X49183975Y-79854778D01*
X49182649Y-80010968D01*
X49181444Y-80146239D01*
X49180234Y-80262246D01*
X49178894Y-80360645D01*
X49177300Y-80443093D01*
X49175325Y-80511246D01*
X49172844Y-80566760D01*
X49169731Y-80611292D01*
X49165862Y-80646498D01*
X49161111Y-80674034D01*
X49155352Y-80695556D01*
X49148461Y-80712722D01*
X49140311Y-80727186D01*
X49130777Y-80740606D01*
X49119734Y-80754638D01*
X49115434Y-80760071D01*
X49099614Y-80782910D01*
X49092578Y-80798463D01*
X49092556Y-80798922D01*
X49103433Y-80801121D01*
X49134418Y-80803147D01*
X49183043Y-80804942D01*
X49246837Y-80806451D01*
X49323331Y-80807616D01*
X49410056Y-80808380D01*
X49504543Y-80808686D01*
X49515450Y-80808689D01*
X49938343Y-80808689D01*
X49941605Y-80712622D01*
X49944867Y-80616556D01*
X50006956Y-80667543D01*
X50104286Y-80735057D01*
X50214187Y-80789749D01*
X50300651Y-80819978D01*
X50369722Y-80834666D01*
X50453075Y-80844659D01*
X50542841Y-80849646D01*
X50631155Y-80849313D01*
X50710149Y-80843351D01*
X50746378Y-80837638D01*
X50886397Y-80799776D01*
X51012822Y-80744932D01*
X51124740Y-80673924D01*
X51221238Y-80587568D01*
X51301400Y-80486679D01*
X51364313Y-80372076D01*
X51408688Y-80245984D01*
X51421022Y-80189401D01*
X51428632Y-80127202D01*
X51432261Y-80052363D01*
X51432755Y-80018467D01*
X51432690Y-80015282D01*
X50672752Y-80015282D01*
X50663459Y-80090333D01*
X50635272Y-80154160D01*
X50586803Y-80209798D01*
X50581746Y-80214211D01*
X50533452Y-80249037D01*
X50481743Y-80271620D01*
X50421011Y-80283540D01*
X50345648Y-80286383D01*
X50327541Y-80285978D01*
X50273722Y-80283325D01*
X50233692Y-80277909D01*
X50198676Y-80267745D01*
X50159897Y-80250850D01*
X50149255Y-80245672D01*
X50088604Y-80209844D01*
X50041785Y-80167212D01*
X50029048Y-80151973D01*
X49984378Y-80095462D01*
X49984378Y-79899586D01*
X49984914Y-79820939D01*
X49986604Y-79762988D01*
X49989572Y-79723875D01*
X49993943Y-79701741D01*
X49998028Y-79695274D01*
X50013953Y-79692111D01*
X50047736Y-79689488D01*
X50094660Y-79687655D01*
X50150007Y-79686857D01*
X50158894Y-79686842D01*
X50279670Y-79692096D01*
X50382340Y-79708263D01*
X50468894Y-79735961D01*
X50541319Y-79775808D01*
X50596249Y-79822758D01*
X50640796Y-79880645D01*
X50665520Y-79943693D01*
X50672752Y-80015282D01*
X51432690Y-80015282D01*
X51430822Y-79924712D01*
X51422478Y-79845812D01*
X51406232Y-79774590D01*
X51380595Y-79703864D01*
X51356599Y-79651493D01*
X51297980Y-79556196D01*
X51219883Y-79468170D01*
X51124685Y-79389017D01*
X51014762Y-79320340D01*
X50892490Y-79263741D01*
X50760245Y-79220821D01*
X50695578Y-79205882D01*
X50559396Y-79183777D01*
X50410951Y-79169194D01*
X50259495Y-79162813D01*
X50132936Y-79164445D01*
X49971050Y-79171224D01*
X49978470Y-79112245D01*
X49997762Y-79013092D01*
X50028896Y-78932372D01*
X50072731Y-78869466D01*
X50130129Y-78823756D01*
X50201952Y-78794622D01*
X50289059Y-78781447D01*
X50392314Y-78783611D01*
X50430289Y-78787612D01*
X50571480Y-78812780D01*
X50708293Y-78853814D01*
X50802822Y-78891815D01*
X50847982Y-78911190D01*
X50886415Y-78926760D01*
X50912766Y-78936405D01*
X50920454Y-78938452D01*
X50930198Y-78929374D01*
X50946917Y-78900405D01*
X50970768Y-78851217D01*
X51001907Y-78781484D01*
X51040493Y-78690879D01*
X51047090Y-78675089D01*
X51077147Y-78602772D01*
X51104126Y-78537425D01*
X51126864Y-78481906D01*
X51144194Y-78439072D01*
X51154952Y-78411781D01*
X51158059Y-78402942D01*
X51148060Y-78398187D01*
X51121783Y-78392910D01*
X51093511Y-78389231D01*
X51063354Y-78384474D01*
X51015567Y-78375028D01*
X50954388Y-78361820D01*
X50884054Y-78345776D01*
X50808806Y-78327820D01*
X50780245Y-78320797D01*
X50675184Y-78295209D01*
X50587520Y-78275147D01*
X50512932Y-78259969D01*
X50447097Y-78249035D01*
X50385693Y-78241704D01*
X50324398Y-78237335D01*
X50258890Y-78235287D01*
X50200872Y-78234889D01*
X50031426Y-78241552D01*
X50031426Y-78241552D01*
G37*
X50031426Y-78241552D02*
X49879508Y-78261567D01*
X49744244Y-78295202D01*
X49624761Y-78342725D01*
X49520185Y-78404405D01*
X49442576Y-78467965D01*
X49373735Y-78542099D01*
X49319994Y-78621871D01*
X49277090Y-78714091D01*
X49261616Y-78757161D01*
X49248756Y-78796142D01*
X49237554Y-78832289D01*
X49227880Y-78867434D01*
X49219604Y-78903410D01*
X49212597Y-78942050D01*
X49206728Y-78985185D01*
X49201869Y-79034649D01*
X49197890Y-79092273D01*
X49194660Y-79159891D01*
X49192051Y-79239334D01*
X49189933Y-79332436D01*
X49188176Y-79441027D01*
X49186651Y-79566942D01*
X49185228Y-79712012D01*
X49183975Y-79854778D01*
X49182649Y-80010968D01*
X49181444Y-80146239D01*
X49180234Y-80262246D01*
X49178894Y-80360645D01*
X49177300Y-80443093D01*
X49175325Y-80511246D01*
X49172844Y-80566760D01*
X49169731Y-80611292D01*
X49165862Y-80646498D01*
X49161111Y-80674034D01*
X49155352Y-80695556D01*
X49148461Y-80712722D01*
X49140311Y-80727186D01*
X49130777Y-80740606D01*
X49119734Y-80754638D01*
X49115434Y-80760071D01*
X49099614Y-80782910D01*
X49092578Y-80798463D01*
X49092556Y-80798922D01*
X49103433Y-80801121D01*
X49134418Y-80803147D01*
X49183043Y-80804942D01*
X49246837Y-80806451D01*
X49323331Y-80807616D01*
X49410056Y-80808380D01*
X49504543Y-80808686D01*
X49515450Y-80808689D01*
X49938343Y-80808689D01*
X49941605Y-80712622D01*
X49944867Y-80616556D01*
X50006956Y-80667543D01*
X50104286Y-80735057D01*
X50214187Y-80789749D01*
X50300651Y-80819978D01*
X50369722Y-80834666D01*
X50453075Y-80844659D01*
X50542841Y-80849646D01*
X50631155Y-80849313D01*
X50710149Y-80843351D01*
X50746378Y-80837638D01*
X50886397Y-80799776D01*
X51012822Y-80744932D01*
X51124740Y-80673924D01*
X51221238Y-80587568D01*
X51301400Y-80486679D01*
X51364313Y-80372076D01*
X51408688Y-80245984D01*
X51421022Y-80189401D01*
X51428632Y-80127202D01*
X51432261Y-80052363D01*
X51432755Y-80018467D01*
X51432690Y-80015282D01*
X50672752Y-80015282D01*
X50663459Y-80090333D01*
X50635272Y-80154160D01*
X50586803Y-80209798D01*
X50581746Y-80214211D01*
X50533452Y-80249037D01*
X50481743Y-80271620D01*
X50421011Y-80283540D01*
X50345648Y-80286383D01*
X50327541Y-80285978D01*
X50273722Y-80283325D01*
X50233692Y-80277909D01*
X50198676Y-80267745D01*
X50159897Y-80250850D01*
X50149255Y-80245672D01*
X50088604Y-80209844D01*
X50041785Y-80167212D01*
X50029048Y-80151973D01*
X49984378Y-80095462D01*
X49984378Y-79899586D01*
X49984914Y-79820939D01*
X49986604Y-79762988D01*
X49989572Y-79723875D01*
X49993943Y-79701741D01*
X49998028Y-79695274D01*
X50013953Y-79692111D01*
X50047736Y-79689488D01*
X50094660Y-79687655D01*
X50150007Y-79686857D01*
X50158894Y-79686842D01*
X50279670Y-79692096D01*
X50382340Y-79708263D01*
X50468894Y-79735961D01*
X50541319Y-79775808D01*
X50596249Y-79822758D01*
X50640796Y-79880645D01*
X50665520Y-79943693D01*
X50672752Y-80015282D01*
X51432690Y-80015282D01*
X51430822Y-79924712D01*
X51422478Y-79845812D01*
X51406232Y-79774590D01*
X51380595Y-79703864D01*
X51356599Y-79651493D01*
X51297980Y-79556196D01*
X51219883Y-79468170D01*
X51124685Y-79389017D01*
X51014762Y-79320340D01*
X50892490Y-79263741D01*
X50760245Y-79220821D01*
X50695578Y-79205882D01*
X50559396Y-79183777D01*
X50410951Y-79169194D01*
X50259495Y-79162813D01*
X50132936Y-79164445D01*
X49971050Y-79171224D01*
X49978470Y-79112245D01*
X49997762Y-79013092D01*
X50028896Y-78932372D01*
X50072731Y-78869466D01*
X50130129Y-78823756D01*
X50201952Y-78794622D01*
X50289059Y-78781447D01*
X50392314Y-78783611D01*
X50430289Y-78787612D01*
X50571480Y-78812780D01*
X50708293Y-78853814D01*
X50802822Y-78891815D01*
X50847982Y-78911190D01*
X50886415Y-78926760D01*
X50912766Y-78936405D01*
X50920454Y-78938452D01*
X50930198Y-78929374D01*
X50946917Y-78900405D01*
X50970768Y-78851217D01*
X51001907Y-78781484D01*
X51040493Y-78690879D01*
X51047090Y-78675089D01*
X51077147Y-78602772D01*
X51104126Y-78537425D01*
X51126864Y-78481906D01*
X51144194Y-78439072D01*
X51154952Y-78411781D01*
X51158059Y-78402942D01*
X51148060Y-78398187D01*
X51121783Y-78392910D01*
X51093511Y-78389231D01*
X51063354Y-78384474D01*
X51015567Y-78375028D01*
X50954388Y-78361820D01*
X50884054Y-78345776D01*
X50808806Y-78327820D01*
X50780245Y-78320797D01*
X50675184Y-78295209D01*
X50587520Y-78275147D01*
X50512932Y-78259969D01*
X50447097Y-78249035D01*
X50385693Y-78241704D01*
X50324398Y-78237335D01*
X50258890Y-78235287D01*
X50200872Y-78234889D01*
X50031426Y-78241552D01*
G36*
X46518493Y-78847245D02*
X46518474Y-79081662D01*
X46518448Y-79294603D01*
X46518375Y-79487168D01*
X46518218Y-79660459D01*
X46517936Y-79815576D01*
X46517491Y-79953620D01*
X46516844Y-80075692D01*
X46515955Y-80182894D01*
X46514787Y-80276326D01*
X46513299Y-80357090D01*
X46511454Y-80426286D01*
X46509211Y-80485015D01*
X46506531Y-80534379D01*
X46503377Y-80575478D01*
X46499708Y-80609413D01*
X46495487Y-80637286D01*
X46490673Y-80660198D01*
X46485227Y-80679249D01*
X46479112Y-80695540D01*
X46472288Y-80710173D01*
X46464715Y-80724249D01*
X46456355Y-80738868D01*
X46451161Y-80747974D01*
X46416896Y-80808689D01*
X47275045Y-80808689D01*
X47275045Y-80712733D01*
X47275776Y-80669370D01*
X47277728Y-80636205D01*
X47280537Y-80618424D01*
X47281779Y-80616778D01*
X47293201Y-80623662D01*
X47315916Y-80641505D01*
X47338615Y-80660879D01*
X47393200Y-80701614D01*
X47462679Y-80742617D01*
X47539730Y-80780123D01*
X47617035Y-80810364D01*
X47647887Y-80820012D01*
X47716384Y-80834578D01*
X47799236Y-80844539D01*
X47888629Y-80849583D01*
X47976752Y-80849396D01*
X48055793Y-80843666D01*
X48093489Y-80837858D01*
X48231586Y-80799797D01*
X48358887Y-80742073D01*
X48474708Y-80665211D01*
X48578363Y-80569739D01*
X48669167Y-80456179D01*
X48735969Y-80345381D01*
X48790836Y-80228625D01*
X48832837Y-80109276D01*
X48862833Y-79983283D01*
X48881689Y-79846594D01*
X48890268Y-79695158D01*
X48890994Y-79617711D01*
X48888900Y-79560934D01*
X48059783Y-79560934D01*
X48059576Y-79654002D01*
X48056663Y-79741692D01*
X48051000Y-79818772D01*
X48042545Y-79880009D01*
X48039962Y-79892350D01*
X48008160Y-79999633D01*
X47966502Y-80086658D01*
X47914637Y-80153642D01*
X47852219Y-80200805D01*
X47778900Y-80228365D01*
X47694331Y-80236541D01*
X47598165Y-80225551D01*
X47534689Y-80209829D01*
X47485546Y-80191639D01*
X47431417Y-80165791D01*
X47390756Y-80142089D01*
X47320200Y-80095721D01*
X47320200Y-78945530D01*
X47387608Y-78901962D01*
X47466133Y-78861040D01*
X47550319Y-78834389D01*
X47635443Y-78822465D01*
X47716784Y-78825722D01*
X47789620Y-78844615D01*
X47821574Y-78860184D01*
X47879499Y-78903181D01*
X47928456Y-78959953D01*
X47969610Y-79032575D01*
X48004126Y-79123121D01*
X48033167Y-79233666D01*
X48034448Y-79239533D01*
X48044619Y-79301788D01*
X48052261Y-79379594D01*
X48057330Y-79467720D01*
X48059783Y-79560934D01*
X48888900Y-79560934D01*
X48883143Y-79404895D01*
X48861198Y-79209059D01*
X48825214Y-79030332D01*
X48775241Y-78868845D01*
X48711332Y-78724726D01*
X48633538Y-78598106D01*
X48541911Y-78489115D01*
X48436503Y-78397883D01*
X48391338Y-78366932D01*
X48290389Y-78310785D01*
X48187099Y-78271174D01*
X48077011Y-78247014D01*
X47955670Y-78237219D01*
X47863164Y-78238265D01*
X47733510Y-78249231D01*
X47620916Y-78271046D01*
X47522125Y-78304714D01*
X47433879Y-78351236D01*
X47385014Y-78385448D01*
X47355647Y-78407362D01*
X47333957Y-78422333D01*
X47325747Y-78426733D01*
X47324132Y-78415904D01*
X47322841Y-78385251D01*
X47321862Y-78337526D01*
X47321183Y-78275479D01*
X47320790Y-78201862D01*
X47320670Y-78119427D01*
X47320812Y-78030925D01*
X47321203Y-77939107D01*
X47321829Y-77846724D01*
X47322680Y-77756528D01*
X47323740Y-77671271D01*
X47324999Y-77593703D01*
X47326444Y-77526576D01*
X47328062Y-77472641D01*
X47329839Y-77434650D01*
X47330331Y-77427667D01*
X47337908Y-77357251D01*
X47349469Y-77302102D01*
X47367208Y-77254981D01*
X47393318Y-77208647D01*
X47399585Y-77199067D01*
X47424017Y-77162378D01*
X46518689Y-77162378D01*
X46518493Y-78847245D01*
X46518493Y-78847245D01*
G37*
X46518493Y-78847245D02*
X46518474Y-79081662D01*
X46518448Y-79294603D01*
X46518375Y-79487168D01*
X46518218Y-79660459D01*
X46517936Y-79815576D01*
X46517491Y-79953620D01*
X46516844Y-80075692D01*
X46515955Y-80182894D01*
X46514787Y-80276326D01*
X46513299Y-80357090D01*
X46511454Y-80426286D01*
X46509211Y-80485015D01*
X46506531Y-80534379D01*
X46503377Y-80575478D01*
X46499708Y-80609413D01*
X46495487Y-80637286D01*
X46490673Y-80660198D01*
X46485227Y-80679249D01*
X46479112Y-80695540D01*
X46472288Y-80710173D01*
X46464715Y-80724249D01*
X46456355Y-80738868D01*
X46451161Y-80747974D01*
X46416896Y-80808689D01*
X47275045Y-80808689D01*
X47275045Y-80712733D01*
X47275776Y-80669370D01*
X47277728Y-80636205D01*
X47280537Y-80618424D01*
X47281779Y-80616778D01*
X47293201Y-80623662D01*
X47315916Y-80641505D01*
X47338615Y-80660879D01*
X47393200Y-80701614D01*
X47462679Y-80742617D01*
X47539730Y-80780123D01*
X47617035Y-80810364D01*
X47647887Y-80820012D01*
X47716384Y-80834578D01*
X47799236Y-80844539D01*
X47888629Y-80849583D01*
X47976752Y-80849396D01*
X48055793Y-80843666D01*
X48093489Y-80837858D01*
X48231586Y-80799797D01*
X48358887Y-80742073D01*
X48474708Y-80665211D01*
X48578363Y-80569739D01*
X48669167Y-80456179D01*
X48735969Y-80345381D01*
X48790836Y-80228625D01*
X48832837Y-80109276D01*
X48862833Y-79983283D01*
X48881689Y-79846594D01*
X48890268Y-79695158D01*
X48890994Y-79617711D01*
X48888900Y-79560934D01*
X48059783Y-79560934D01*
X48059576Y-79654002D01*
X48056663Y-79741692D01*
X48051000Y-79818772D01*
X48042545Y-79880009D01*
X48039962Y-79892350D01*
X48008160Y-79999633D01*
X47966502Y-80086658D01*
X47914637Y-80153642D01*
X47852219Y-80200805D01*
X47778900Y-80228365D01*
X47694331Y-80236541D01*
X47598165Y-80225551D01*
X47534689Y-80209829D01*
X47485546Y-80191639D01*
X47431417Y-80165791D01*
X47390756Y-80142089D01*
X47320200Y-80095721D01*
X47320200Y-78945530D01*
X47387608Y-78901962D01*
X47466133Y-78861040D01*
X47550319Y-78834389D01*
X47635443Y-78822465D01*
X47716784Y-78825722D01*
X47789620Y-78844615D01*
X47821574Y-78860184D01*
X47879499Y-78903181D01*
X47928456Y-78959953D01*
X47969610Y-79032575D01*
X48004126Y-79123121D01*
X48033167Y-79233666D01*
X48034448Y-79239533D01*
X48044619Y-79301788D01*
X48052261Y-79379594D01*
X48057330Y-79467720D01*
X48059783Y-79560934D01*
X48888900Y-79560934D01*
X48883143Y-79404895D01*
X48861198Y-79209059D01*
X48825214Y-79030332D01*
X48775241Y-78868845D01*
X48711332Y-78724726D01*
X48633538Y-78598106D01*
X48541911Y-78489115D01*
X48436503Y-78397883D01*
X48391338Y-78366932D01*
X48290389Y-78310785D01*
X48187099Y-78271174D01*
X48077011Y-78247014D01*
X47955670Y-78237219D01*
X47863164Y-78238265D01*
X47733510Y-78249231D01*
X47620916Y-78271046D01*
X47522125Y-78304714D01*
X47433879Y-78351236D01*
X47385014Y-78385448D01*
X47355647Y-78407362D01*
X47333957Y-78422333D01*
X47325747Y-78426733D01*
X47324132Y-78415904D01*
X47322841Y-78385251D01*
X47321862Y-78337526D01*
X47321183Y-78275479D01*
X47320790Y-78201862D01*
X47320670Y-78119427D01*
X47320812Y-78030925D01*
X47321203Y-77939107D01*
X47321829Y-77846724D01*
X47322680Y-77756528D01*
X47323740Y-77671271D01*
X47324999Y-77593703D01*
X47326444Y-77526576D01*
X47328062Y-77472641D01*
X47329839Y-77434650D01*
X47330331Y-77427667D01*
X47337908Y-77357251D01*
X47349469Y-77302102D01*
X47367208Y-77254981D01*
X47393318Y-77208647D01*
X47399585Y-77199067D01*
X47424017Y-77162378D01*
X46518689Y-77162378D01*
X46518493Y-78847245D01*
G36*
X54978043Y-76401571D02*
X54881768Y-76425809D01*
X54795184Y-76468641D01*
X54720373Y-76528419D01*
X54659418Y-76603494D01*
X54614399Y-76692220D01*
X54588136Y-76788530D01*
X54582286Y-76885795D01*
X54597140Y-76979654D01*
X54630840Y-77067511D01*
X54681528Y-77146770D01*
X54747345Y-77214836D01*
X54826434Y-77269112D01*
X54916934Y-77307002D01*
X54968200Y-77319426D01*
X55012698Y-77326947D01*
X55046999Y-77329919D01*
X55079960Y-77328094D01*
X55120434Y-77321225D01*
X55153531Y-77314250D01*
X55246947Y-77282741D01*
X55330619Y-77231617D01*
X55402665Y-77162429D01*
X55461200Y-77076728D01*
X55475148Y-77049489D01*
X55491586Y-77013122D01*
X55501894Y-76982582D01*
X55507460Y-76950450D01*
X55509669Y-76909307D01*
X55509948Y-76863222D01*
X55505861Y-76778865D01*
X55492446Y-76709586D01*
X55467256Y-76648961D01*
X55427846Y-76590567D01*
X55389298Y-76546302D01*
X55317406Y-76480484D01*
X55242313Y-76435053D01*
X55159562Y-76407850D01*
X55081928Y-76397576D01*
X54978043Y-76401571D01*
X54978043Y-76401571D01*
G37*
X54978043Y-76401571D02*
X54881768Y-76425809D01*
X54795184Y-76468641D01*
X54720373Y-76528419D01*
X54659418Y-76603494D01*
X54614399Y-76692220D01*
X54588136Y-76788530D01*
X54582286Y-76885795D01*
X54597140Y-76979654D01*
X54630840Y-77067511D01*
X54681528Y-77146770D01*
X54747345Y-77214836D01*
X54826434Y-77269112D01*
X54916934Y-77307002D01*
X54968200Y-77319426D01*
X55012698Y-77326947D01*
X55046999Y-77329919D01*
X55079960Y-77328094D01*
X55120434Y-77321225D01*
X55153531Y-77314250D01*
X55246947Y-77282741D01*
X55330619Y-77231617D01*
X55402665Y-77162429D01*
X55461200Y-77076728D01*
X55475148Y-77049489D01*
X55491586Y-77013122D01*
X55501894Y-76982582D01*
X55507460Y-76950450D01*
X55509669Y-76909307D01*
X55509948Y-76863222D01*
X55505861Y-76778865D01*
X55492446Y-76709586D01*
X55467256Y-76648961D01*
X55427846Y-76590567D01*
X55389298Y-76546302D01*
X55317406Y-76480484D01*
X55242313Y-76435053D01*
X55159562Y-76407850D01*
X55081928Y-76397576D01*
X54978043Y-76401571D01*
D14*
X41125445Y-75856430D02*
G75*
G02X62024000Y-75575000I10498555J-3518570D01*
G01*
X62017786Y-83201964D02*
G75*
G02X41128242Y-82886550I-10389544J3815414D01*
G01*
X62024000Y-75575000D02*
X65024000Y-75575000D01*
X65024000Y-75575000D02*
X65024000Y-83175000D01*
X65024000Y-83185000D02*
X62024000Y-83185000D01*
X41148000Y-75875000D02*
X41148000Y-82875000D01*
X29972000Y-88392000D02*
X27432000Y-88392000D01*
X28702000Y-89408000D02*
X27432000Y-89408000D01*
X25630000Y-91150000D02*
X22630000Y-91150000D01*
X25630780Y-91149479D02*
G75*
G03X22630000Y-91150000I-1500780J2249479D01*
G01*
X74168000Y-89408000D02*
X76708000Y-89408000D01*
X75438000Y-88392000D02*
X76708000Y-88392000D01*
X78510000Y-86650000D02*
X81510000Y-86650000D01*
X78509220Y-86650521D02*
G75*
G03X81510000Y-86650000I1500780J-2249479D01*
G01*
D16*
X52768500Y-88836500D02*
X52641500Y-88878833D01*
X52599167Y-88921167D01*
X52556833Y-89005833D01*
X52556833Y-89132833D01*
X52599167Y-89217500D01*
X52641500Y-89259833D01*
X52726167Y-89302167D01*
X53064833Y-89302167D01*
X53064833Y-88413167D01*
X52768500Y-88413167D01*
X52683833Y-88455500D01*
X52641500Y-88497833D01*
X52599167Y-88582500D01*
X52599167Y-88667167D01*
X52641500Y-88751833D01*
X52683833Y-88794167D01*
X52768500Y-88836500D01*
X53064833Y-88836500D01*
X52302833Y-88413167D02*
X51794833Y-88413167D01*
X52048833Y-89302167D02*
X52048833Y-88413167D01*
X51032834Y-89302167D02*
X51540834Y-89302167D01*
X51286834Y-89302167D02*
X51286834Y-88413167D01*
X51371500Y-88540167D01*
X51456167Y-88624833D01*
X51540834Y-88667167D01*
X29442833Y-91799833D02*
X29315833Y-91842167D01*
X29104166Y-91842167D01*
X29019499Y-91799833D01*
X28977166Y-91757500D01*
X28934833Y-91672833D01*
X28934833Y-91588167D01*
X28977166Y-91503500D01*
X29019499Y-91461167D01*
X29104166Y-91418833D01*
X29273499Y-91376500D01*
X29358166Y-91334167D01*
X29400499Y-91291833D01*
X29442833Y-91207167D01*
X29442833Y-91122500D01*
X29400499Y-91037833D01*
X29358166Y-90995500D01*
X29273499Y-90953167D01*
X29061833Y-90953167D01*
X28934833Y-90995500D01*
X28553832Y-91842167D02*
X28553832Y-90953167D01*
X28553832Y-91376500D02*
X28045832Y-91376500D01*
X28045832Y-91842167D02*
X28045832Y-90953167D01*
X27114499Y-91842167D02*
X27410833Y-91418833D01*
X27622499Y-91842167D02*
X27622499Y-90953167D01*
X27283833Y-90953167D01*
X27199166Y-90995500D01*
X27156833Y-91037833D01*
X27114499Y-91122500D01*
X27114499Y-91249500D01*
X27156833Y-91334167D01*
X27199166Y-91376500D01*
X27283833Y-91418833D01*
X27622499Y-91418833D01*
X26860499Y-90953167D02*
X26352499Y-90953167D01*
X26606499Y-91842167D02*
X26606499Y-90953167D01*
X29040666Y-86762167D02*
X29463999Y-86762167D01*
X29463999Y-85873167D01*
X28574999Y-85873167D02*
X28405666Y-85873167D01*
X28320999Y-85915500D01*
X28236332Y-86000167D01*
X28193999Y-86169500D01*
X28193999Y-86465833D01*
X28236332Y-86635167D01*
X28320999Y-86719833D01*
X28405666Y-86762167D01*
X28574999Y-86762167D01*
X28659666Y-86719833D01*
X28744332Y-86635167D01*
X28786666Y-86465833D01*
X28786666Y-86169500D01*
X28744332Y-86000167D01*
X28659666Y-85915500D01*
X28574999Y-85873167D01*
X27812999Y-86762167D02*
X27812999Y-85873167D01*
X27304999Y-86762167D01*
X27304999Y-85873167D01*
X26416000Y-85915500D02*
X26500666Y-85873167D01*
X26627666Y-85873167D01*
X26754666Y-85915500D01*
X26839333Y-86000167D01*
X26881666Y-86084833D01*
X26924000Y-86254167D01*
X26924000Y-86381167D01*
X26881666Y-86550500D01*
X26839333Y-86635167D01*
X26754666Y-86719833D01*
X26627666Y-86762167D01*
X26543000Y-86762167D01*
X26416000Y-86719833D01*
X26373666Y-86677500D01*
X26373666Y-86381167D01*
X26543000Y-86381167D01*
X77702833Y-86719833D02*
X77575833Y-86762167D01*
X77364166Y-86762167D01*
X77279499Y-86719833D01*
X77237166Y-86677500D01*
X77194833Y-86592833D01*
X77194833Y-86508167D01*
X77237166Y-86423500D01*
X77279499Y-86381167D01*
X77364166Y-86338833D01*
X77533499Y-86296500D01*
X77618166Y-86254167D01*
X77660499Y-86211833D01*
X77702833Y-86127167D01*
X77702833Y-86042500D01*
X77660499Y-85957833D01*
X77618166Y-85915500D01*
X77533499Y-85873167D01*
X77321833Y-85873167D01*
X77194833Y-85915500D01*
X76813832Y-86762167D02*
X76813832Y-85873167D01*
X76813832Y-86296500D02*
X76305832Y-86296500D01*
X76305832Y-86762167D02*
X76305832Y-85873167D01*
X75374499Y-86762167D02*
X75670833Y-86338833D01*
X75882499Y-86762167D02*
X75882499Y-85873167D01*
X75543833Y-85873167D01*
X75459166Y-85915500D01*
X75416833Y-85957833D01*
X75374499Y-86042500D01*
X75374499Y-86169500D01*
X75416833Y-86254167D01*
X75459166Y-86296500D01*
X75543833Y-86338833D01*
X75882499Y-86338833D01*
X75120499Y-85873167D02*
X74612499Y-85873167D01*
X74866499Y-86762167D02*
X74866499Y-85873167D01*
X77300666Y-91842167D02*
X77723999Y-91842167D01*
X77723999Y-90953167D01*
X76834999Y-90953167D02*
X76665666Y-90953167D01*
X76580999Y-90995500D01*
X76496332Y-91080167D01*
X76453999Y-91249500D01*
X76453999Y-91545833D01*
X76496332Y-91715167D01*
X76580999Y-91799833D01*
X76665666Y-91842167D01*
X76834999Y-91842167D01*
X76919666Y-91799833D01*
X77004332Y-91715167D01*
X77046666Y-91545833D01*
X77046666Y-91249500D01*
X77004332Y-91080167D01*
X76919666Y-90995500D01*
X76834999Y-90953167D01*
X76072999Y-91842167D02*
X76072999Y-90953167D01*
X75564999Y-91842167D01*
X75564999Y-90953167D01*
X74676000Y-90995500D02*
X74760666Y-90953167D01*
X74887666Y-90953167D01*
X75014666Y-90995500D01*
X75099333Y-91080167D01*
X75141666Y-91164833D01*
X75184000Y-91334167D01*
X75184000Y-91461167D01*
X75141666Y-91630500D01*
X75099333Y-91715167D01*
X75014666Y-91799833D01*
X74887666Y-91842167D01*
X74803000Y-91842167D01*
X74676000Y-91799833D01*
X74633666Y-91757500D01*
X74633666Y-91461167D01*
X74803000Y-91461167D01*
%LPC*%
D17*
X19050000Y-84836000D03*
X19050000Y-92964000D03*
X85090000Y-84836000D03*
X85090000Y-92964000D03*
D18*
X67945000Y-74930000D03*
X46990000Y-67310000D03*
X24130000Y-82550000D03*
X57150000Y-67310000D03*
X36195000Y-74930000D03*
X80010000Y-82550000D03*
D17*
X62484000Y-99441000D03*
X54356000Y-99441000D03*
D19*
X29768800Y-99441000D03*
X36271200Y-99441000D03*
D20*
X25400000Y-99060000D03*
X25400000Y-96520000D03*
X25400000Y-93980000D03*
X22860000Y-93980000D03*
X22860000Y-96520000D03*
X22860000Y-99060000D03*
X20320000Y-96520000D03*
X30480000Y-78740000D03*
X33020000Y-78740000D03*
X35560000Y-78740000D03*
X33020000Y-76200000D03*
X73660000Y-78740000D03*
X71120000Y-78740000D03*
X76200000Y-78740000D03*
X73660000Y-76200000D03*
X71120000Y-76200000D03*
X71120000Y-73660000D03*
X73660000Y-73660000D03*
X76200000Y-76200000D03*
X71120000Y-71120000D03*
D21*
X81280000Y-96520000D03*
X83820000Y-96520000D03*
X78740000Y-96520000D03*
D17*
X69418200Y-99441000D03*
X72821800Y-99441000D03*
D22*
X43180000Y-99441000D03*
D23*
X45720000Y-99441000D03*
X48260000Y-99441000D03*
D24*
X43970000Y-79375000D03*
X63870000Y-79375000D03*
X66070000Y-79375000D03*
X39070000Y-79375000D03*
D25*
X24130000Y-87630000D03*
X24130000Y-90170000D03*
X80010000Y-90170000D03*
X80010000Y-87630000D03*
M02*
