G04 #@! TF.FileFunction,Soldermask,Top*
%FSLAX46Y46*%
G04 Gerber Fmt 4.6, Leading zero omitted, Abs format (unit mm)*
G04 Created by KiCad (PCBNEW 4.0.7-e2-6376~58~ubuntu16.04.1) date Tue Oct 17 16:23:07 2017*
%MOMM*%
%LPD*%
G01*
G04 APERTURE LIST*
%ADD10C,0.101600*%
%ADD11R,1.850000X1.400000*%
%ADD12C,2.000000*%
%ADD13C,3.400000*%
%ADD14R,1.400000X1.850000*%
%ADD15C,2.686000*%
%ADD16C,1.800000*%
%ADD17C,1.920000*%
%ADD18R,2.127200X2.127200*%
%ADD19C,2.127200*%
%ADD20C,2.900000*%
%ADD21C,2.200000*%
G04 APERTURE END LIST*
D10*
D11*
X19050000Y-87950000D03*
X19050000Y-89850000D03*
D12*
X19050000Y-84836000D03*
X19050000Y-92964000D03*
D11*
X85090000Y-87950000D03*
X85090000Y-89850000D03*
D12*
X85090000Y-84836000D03*
X85090000Y-92964000D03*
D13*
X67945000Y-74930000D03*
X46990000Y-67310000D03*
X24130000Y-82550000D03*
X57150000Y-67310000D03*
X36195000Y-74930000D03*
X80010000Y-82550000D03*
D14*
X59370000Y-99441000D03*
X57470000Y-99441000D03*
D12*
X62484000Y-99441000D03*
X54356000Y-99441000D03*
D15*
X29768800Y-99441000D03*
X36271200Y-99441000D03*
D16*
X25400000Y-99060000D03*
X25400000Y-96520000D03*
X25400000Y-93980000D03*
X22860000Y-93980000D03*
X22860000Y-96520000D03*
X22860000Y-99060000D03*
X20320000Y-96520000D03*
X30480000Y-78740000D03*
X33020000Y-78740000D03*
X35560000Y-78740000D03*
X33020000Y-76200000D03*
X73660000Y-78740000D03*
X71120000Y-78740000D03*
X76200000Y-78740000D03*
X73660000Y-76200000D03*
X71120000Y-76200000D03*
X71120000Y-73660000D03*
X73660000Y-73660000D03*
X76200000Y-76200000D03*
X71120000Y-71120000D03*
D17*
X81280000Y-96520000D03*
X83820000Y-96520000D03*
X78740000Y-96520000D03*
D12*
X69418200Y-99441000D03*
X72821800Y-99441000D03*
D18*
X43180000Y-99441000D03*
D19*
X45720000Y-99441000D03*
X48260000Y-99441000D03*
D20*
X43970000Y-79375000D03*
X63870000Y-79375000D03*
X66070000Y-79375000D03*
X39070000Y-79375000D03*
D21*
X24130000Y-87630000D03*
X24130000Y-90170000D03*
X80010000Y-90170000D03*
X80010000Y-87630000D03*
M02*
